<svg width="1280" height="832" viewBox="0 0 1280 832" fill="none" xmlns="http://www.w3.org/2000/svg">
<g clip-path="url(#clip0_232_724)">
<rect width="1280" height="832" fill="#0A0A0A"/>
<path d="M751.5 832.5C757.667 754.333 815.9 574.4 999.5 480C1183.1 385.6 1174 226.667 1146.5 159C1086 48.6666 949.3 -71.3 650.5 305.5C277 776.5 102 320.5 123.5 -16" stroke="#171717" stroke-width="34"/>
<path d="M-7.5 698.5C50.5 734.833 201.4 773.5 293 641.5C384.6 509.5 479.5 602 467.5 657C446.384 753.781 265.5 747.9 195.5 369.5C125.5 -8.89984 599 22.1668 844.5 85.0002C941.667 117.333 1110.2 229.5 1007 419.5C878 657 670.5 451 757.5 342C844.5 233 1009.5 250 1090.5 395.5C1155.3 511.9 1256.83 469.333 1293 436" stroke="#171717" stroke-width="34"/>
<path d="M-6.5 507.5C72.8333 438.5 284.1 330.3 450.5 457.5C616.9 584.7 814.5 505.5 851.5 411C882.167 304.333 873.8 100.8 595 140C316.2 179.2 433.5 436.333 527 560C592.167 638.167 757.6 766.3 898 653.5C1073.5 512.5 1238 723 1217 836" stroke="#171717" stroke-width="34"/>
<circle cx="121" cy="150" r="18" fill="#3C3C3C"/>
<circle cx="761" cy="784" r="18" fill="#3C3C3C"/>
<circle cx="491" cy="168" r="18" fill="#3C3C3C"/>
<circle cx="103" cy="434" r="18" fill="#3C3C3C"/>
<circle cx="391" cy="575" r="18" fill="#3C3C3C"/>
<circle cx="834" cy="214" r="18" fill="#3C3C3C"/>
<circle cx="1119" cy="117" r="18" fill="#3C3C3C"/>
<circle cx="1014" cy="398" r="18" fill="#3C3C3C"/>
<circle cx="700" cy="513" r="18" fill="#3C3C3C"/>
<circle cx="1137" cy="650" r="18" fill="#3C3C3C"/>
</g>
<defs>
<clipPath id="clip0_232_724">
<rect width="1280" height="832" fill="white"/>
</clipPath>
</defs>
</svg>
