<svg width="1280" height="832" viewBox="0 0 1280 832" fill="none" xmlns="http://www.w3.org/2000/svg">
<rect width="1280" height="832" fill="#0A0A0A"/>
<rect x="200" y="641" width="880" height="120" rx="24" fill="#141414"/>
<path d="M250.262 682.384C250.87 682.48 251.422 682.728 251.918 683.128C252.43 683.528 252.83 684.024 253.118 684.616C253.422 685.208 253.574 685.84 253.574 686.512C253.574 687.36 253.358 688.128 252.926 688.816C252.494 689.488 251.862 690.024 251.03 690.424C250.214 690.808 249.246 691 248.126 691H241.886V674.272H247.886C249.022 674.272 249.99 674.464 250.79 674.848C251.59 675.216 252.19 675.72 252.59 676.36C252.99 677 253.19 677.72 253.19 678.52C253.19 679.512 252.918 680.336 252.374 680.992C251.846 681.632 251.142 682.096 250.262 682.384ZM244.07 681.496H247.742C248.766 681.496 249.558 681.256 250.118 680.776C250.678 680.296 250.958 679.632 250.958 678.784C250.958 677.936 250.678 677.272 250.118 676.792C249.558 676.312 248.75 676.072 247.694 676.072H244.07V681.496ZM247.934 689.2C249.022 689.2 249.87 688.944 250.478 688.432C251.086 687.92 251.39 687.208 251.39 686.296C251.39 685.368 251.07 684.64 250.43 684.112C249.79 683.568 248.934 683.296 247.862 683.296H244.07V689.2H247.934ZM268.005 677.848V691H265.821V689.056C265.405 689.728 264.821 690.256 264.069 690.64C263.333 691.008 262.517 691.192 261.621 691.192C260.597 691.192 259.677 690.984 258.861 690.568C258.045 690.136 257.397 689.496 256.917 688.648C256.453 687.8 256.221 686.768 256.221 685.552V677.848H258.381V685.264C258.381 686.56 258.709 687.56 259.365 688.264C260.021 688.952 260.917 689.296 262.053 689.296C263.221 689.296 264.141 688.936 264.813 688.216C265.485 687.496 265.821 686.448 265.821 685.072V677.848H268.005ZM274.092 679.648V687.4C274.092 688.04 274.228 688.496 274.5 688.768C274.772 689.024 275.244 689.152 275.916 689.152H277.524V691H275.556C274.34 691 273.428 690.72 272.82 690.16C272.212 689.6 271.908 688.68 271.908 687.4V679.648H270.204V677.848H271.908V674.536H274.092V677.848H277.524V679.648H274.092ZM303.561 677.848L299.457 691H297.201L294.033 680.56L290.865 691H288.609L284.481 677.848H286.713L289.737 688.888L293.001 677.848H295.233L298.425 688.912L301.401 677.848H303.561ZM311.992 677.608C312.984 677.608 313.88 677.824 314.68 678.256C315.48 678.672 316.104 679.304 316.552 680.152C317.016 681 317.248 682.032 317.248 683.248V691H315.088V683.56C315.088 682.248 314.76 681.248 314.104 680.56C313.448 679.856 312.552 679.504 311.416 679.504C310.264 679.504 309.344 679.864 308.656 680.584C307.984 681.304 307.648 682.352 307.648 683.728V691H305.464V673.24H307.648V679.72C308.08 679.048 308.672 678.528 309.424 678.16C310.192 677.792 311.048 677.608 311.992 677.608ZM319.736 684.376C319.736 683.032 320.008 681.856 320.552 680.848C321.096 679.824 321.84 679.032 322.784 678.472C323.744 677.912 324.808 677.632 325.976 677.632C327.128 677.632 328.128 677.88 328.976 678.376C329.824 678.872 330.456 679.496 330.872 680.248V677.848H333.08V691H330.872V688.552C330.44 689.32 329.792 689.96 328.928 690.472C328.08 690.968 327.088 691.216 325.952 691.216C324.784 691.216 323.728 690.928 322.784 690.352C321.84 689.776 321.096 688.968 320.552 687.928C320.008 686.888 319.736 685.704 319.736 684.376ZM330.872 684.4C330.872 683.408 330.672 682.544 330.272 681.808C329.872 681.072 329.328 680.512 328.64 680.128C327.968 679.728 327.224 679.528 326.408 679.528C325.592 679.528 324.848 679.72 324.176 680.104C323.504 680.488 322.968 681.048 322.568 681.784C322.168 682.52 321.968 683.384 321.968 684.376C321.968 685.384 322.168 686.264 322.568 687.016C322.968 687.752 323.504 688.32 324.176 688.72C324.848 689.104 325.592 689.296 326.408 689.296C327.224 689.296 327.968 689.104 328.64 688.72C329.328 688.32 329.872 687.752 330.272 687.016C330.672 686.264 330.872 685.392 330.872 684.4ZM339.171 679.648V687.4C339.171 688.04 339.307 688.496 339.579 688.768C339.851 689.024 340.323 689.152 340.995 689.152H342.603V691H340.635C339.419 691 338.507 690.72 337.899 690.16C337.291 689.6 336.987 688.68 336.987 687.4V679.648H335.283V677.848H336.987V674.536H339.171V677.848H342.603V679.648H339.171ZM357.647 677.608C358.639 677.608 359.535 677.824 360.335 678.256C361.135 678.672 361.759 679.304 362.207 680.152C362.671 681 362.903 682.032 362.903 683.248V691H360.743V683.56C360.743 682.248 360.415 681.248 359.759 680.56C359.103 679.856 358.207 679.504 357.071 679.504C355.919 679.504 354.999 679.864 354.311 680.584C353.639 681.304 353.303 682.352 353.303 683.728V691H351.119V673.24H353.303V679.72C353.735 679.048 354.327 678.528 355.079 678.16C355.847 677.792 356.703 677.608 357.647 677.608ZM365.391 684.376C365.391 683.032 365.663 681.856 366.207 680.848C366.751 679.824 367.495 679.032 368.439 678.472C369.399 677.912 370.463 677.632 371.631 677.632C372.783 677.632 373.783 677.88 374.631 678.376C375.479 678.872 376.111 679.496 376.527 680.248V677.848H378.735V691H376.527V688.552C376.095 689.32 375.447 689.96 374.583 690.472C373.735 690.968 372.743 691.216 371.607 691.216C370.439 691.216 369.383 690.928 368.439 690.352C367.495 689.776 366.751 688.968 366.207 687.928C365.663 686.888 365.391 685.704 365.391 684.376ZM376.527 684.4C376.527 683.408 376.327 682.544 375.927 681.808C375.527 681.072 374.983 680.512 374.295 680.128C373.623 679.728 372.879 679.528 372.063 679.528C371.247 679.528 370.503 679.72 369.831 680.104C369.159 680.488 368.623 681.048 368.223 681.784C367.823 682.52 367.623 683.384 367.623 684.376C367.623 685.384 367.823 686.264 368.223 687.016C368.623 687.752 369.159 688.32 369.831 688.72C370.503 689.104 371.247 689.296 372.063 689.296C372.879 689.296 373.623 689.104 374.295 688.72C374.983 688.32 375.527 687.752 375.927 687.016C376.327 686.264 376.527 685.392 376.527 684.4ZM384.346 680.272C384.778 679.52 385.418 678.896 386.266 678.4C387.13 677.888 388.13 677.632 389.266 677.632C390.434 677.632 391.49 677.912 392.434 678.472C393.394 679.032 394.146 679.824 394.69 680.848C395.234 681.856 395.506 683.032 395.506 684.376C395.506 685.704 395.234 686.888 394.69 687.928C394.146 688.968 393.394 689.776 392.434 690.352C391.49 690.928 390.434 691.216 389.266 691.216C388.146 691.216 387.154 690.968 386.29 690.472C385.442 689.96 384.794 689.328 384.346 688.576V697.24H382.162V677.848H384.346V680.272ZM393.274 684.376C393.274 683.384 393.074 682.52 392.674 681.784C392.274 681.048 391.73 680.488 391.042 680.104C390.37 679.72 389.626 679.528 388.81 679.528C388.01 679.528 387.266 679.728 386.578 680.128C385.906 680.512 385.362 681.08 384.946 681.832C384.546 682.568 384.346 683.424 384.346 684.4C384.346 685.392 384.546 686.264 384.946 687.016C385.362 687.752 385.906 688.32 386.578 688.72C387.266 689.104 388.01 689.296 388.81 689.296C389.626 689.296 390.37 689.104 391.042 688.72C391.73 688.32 392.274 687.752 392.674 687.016C393.074 686.264 393.274 685.384 393.274 684.376ZM400.3 680.272C400.732 679.52 401.372 678.896 402.22 678.4C403.084 677.888 404.084 677.632 405.22 677.632C406.388 677.632 407.444 677.912 408.388 678.472C409.348 679.032 410.1 679.824 410.644 680.848C411.188 681.856 411.46 683.032 411.46 684.376C411.46 685.704 411.188 686.888 410.644 687.928C410.1 688.968 409.348 689.776 408.388 690.352C407.444 690.928 406.388 691.216 405.22 691.216C404.1 691.216 403.108 690.968 402.244 690.472C401.396 689.96 400.748 689.328 400.3 688.576V697.24H398.116V677.848H400.3V680.272ZM409.228 684.376C409.228 683.384 409.028 682.52 408.628 681.784C408.228 681.048 407.684 680.488 406.996 680.104C406.324 679.72 405.58 679.528 404.764 679.528C403.964 679.528 403.22 679.728 402.532 680.128C401.86 680.512 401.316 681.08 400.9 681.832C400.5 682.568 400.3 683.424 400.3 684.4C400.3 685.392 400.5 686.264 400.9 687.016C401.316 687.752 401.86 688.32 402.532 688.72C403.22 689.104 403.964 689.296 404.764 689.296C405.58 689.296 406.324 689.104 406.996 688.72C407.684 688.32 408.228 687.752 408.628 687.016C409.028 686.264 409.228 685.384 409.228 684.376ZM426.071 683.92C426.071 684.336 426.047 684.776 425.999 685.24H415.487C415.567 686.536 416.007 687.552 416.807 688.288C417.623 689.008 418.607 689.368 419.759 689.368C420.703 689.368 421.487 689.152 422.111 688.72C422.751 688.272 423.199 687.68 423.455 686.944H425.807C425.455 688.208 424.751 689.24 423.695 690.04C422.639 690.824 421.327 691.216 419.759 691.216C418.511 691.216 417.391 690.936 416.399 690.376C415.423 689.816 414.655 689.024 414.095 688C413.535 686.96 413.255 685.76 413.255 684.4C413.255 683.04 413.527 681.848 414.071 680.824C414.615 679.8 415.375 679.016 416.351 678.472C417.343 677.912 418.479 677.632 419.759 677.632C421.007 677.632 422.111 677.904 423.071 678.448C424.031 678.992 424.767 679.744 425.279 680.704C425.807 681.648 426.071 682.72 426.071 683.92ZM423.815 683.464C423.815 682.632 423.631 681.92 423.263 681.328C422.895 680.72 422.391 680.264 421.751 679.96C421.127 679.64 420.431 679.48 419.663 679.48C418.559 679.48 417.615 679.832 416.831 680.536C416.063 681.24 415.623 682.216 415.511 683.464H423.815ZM435.098 677.608C436.698 677.608 437.994 678.096 438.986 679.072C439.978 680.032 440.474 681.424 440.474 683.248V691H438.314V683.56C438.314 682.248 437.986 681.248 437.33 680.56C436.674 679.856 435.778 679.504 434.642 679.504C433.49 679.504 432.57 679.864 431.882 680.584C431.21 681.304 430.874 682.352 430.874 683.728V691H428.69V677.848H430.874V679.72C431.306 679.048 431.89 678.528 432.626 678.16C433.378 677.792 434.202 677.608 435.098 677.608ZM448.433 691.216C447.425 691.216 446.521 691.048 445.721 690.712C444.921 690.36 444.289 689.88 443.825 689.272C443.361 688.648 443.105 687.936 443.057 687.136H445.313C445.377 687.792 445.681 688.328 446.225 688.744C446.785 689.16 447.513 689.368 448.409 689.368C449.241 689.368 449.897 689.184 450.377 688.816C450.857 688.448 451.097 687.984 451.097 687.424C451.097 686.848 450.841 686.424 450.329 686.152C449.817 685.864 449.025 685.584 447.953 685.312C446.977 685.056 446.177 684.8 445.553 684.544C444.945 684.272 444.417 683.88 443.969 683.368C443.537 682.84 443.321 682.152 443.321 681.304C443.321 680.632 443.521 680.016 443.921 679.456C444.321 678.896 444.889 678.456 445.625 678.136C446.361 677.8 447.201 677.632 448.145 677.632C449.601 677.632 450.777 678 451.673 678.736C452.569 679.472 453.049 680.48 453.113 681.76H450.929C450.881 681.072 450.601 680.52 450.089 680.104C449.593 679.688 448.921 679.48 448.073 679.48C447.289 679.48 446.665 679.648 446.201 679.984C445.737 680.32 445.505 680.76 445.505 681.304C445.505 681.736 445.641 682.096 445.913 682.384C446.201 682.656 446.553 682.88 446.969 683.056C447.401 683.216 447.993 683.4 448.745 683.608C449.689 683.864 450.457 684.12 451.049 684.376C451.641 684.616 452.145 684.984 452.561 685.48C452.993 685.976 453.217 686.624 453.233 687.424C453.233 688.144 453.033 688.792 452.633 689.368C452.233 689.944 451.665 690.4 450.929 690.736C450.209 691.056 449.377 691.216 448.433 691.216ZM464.851 679.648V687.4C464.851 688.04 464.987 688.496 465.259 688.768C465.531 689.024 466.003 689.152 466.675 689.152H468.283V691H466.315C465.099 691 464.187 690.72 463.579 690.16C462.971 689.6 462.667 688.68 462.667 687.4V679.648H460.963V677.848H462.667V674.536H464.851V677.848H468.283V679.648H464.851ZM476.401 691.216C475.169 691.216 474.049 690.936 473.041 690.376C472.049 689.816 471.265 689.024 470.689 688C470.129 686.96 469.849 685.76 469.849 684.4C469.849 683.056 470.137 681.872 470.713 680.848C471.305 679.808 472.105 679.016 473.113 678.472C474.121 677.912 475.249 677.632 476.497 677.632C477.745 677.632 478.873 677.912 479.881 678.472C480.889 679.016 481.681 679.8 482.257 680.824C482.849 681.848 483.145 683.04 483.145 684.4C483.145 685.76 482.841 686.96 482.233 688C481.641 689.024 480.833 689.816 479.809 690.376C478.785 690.936 477.649 691.216 476.401 691.216ZM476.401 689.296C477.185 689.296 477.921 689.112 478.609 688.744C479.297 688.376 479.849 687.824 480.265 687.088C480.697 686.352 480.913 685.456 480.913 684.4C480.913 683.344 480.705 682.448 480.289 681.712C479.873 680.976 479.329 680.432 478.657 680.08C477.985 679.712 477.257 679.528 476.473 679.528C475.673 679.528 474.937 679.712 474.265 680.08C473.609 680.432 473.081 680.976 472.681 681.712C472.281 682.448 472.081 683.344 472.081 684.4C472.081 685.472 472.273 686.376 472.657 687.112C473.057 687.848 473.585 688.4 474.241 688.768C474.897 689.12 475.617 689.296 476.401 689.296ZM491.071 684.376C491.071 683.032 491.343 681.856 491.887 680.848C492.431 679.824 493.175 679.032 494.119 678.472C495.079 677.912 496.143 677.632 497.311 677.632C498.463 677.632 499.463 677.88 500.311 678.376C501.159 678.872 501.791 679.496 502.207 680.248V677.848H504.415V691H502.207V688.552C501.775 689.32 501.127 689.96 500.263 690.472C499.415 690.968 498.423 691.216 497.287 691.216C496.119 691.216 495.063 690.928 494.119 690.352C493.175 689.776 492.431 688.968 491.887 687.928C491.343 686.888 491.071 685.704 491.071 684.376ZM502.207 684.4C502.207 683.408 502.007 682.544 501.607 681.808C501.207 681.072 500.663 680.512 499.975 680.128C499.303 679.728 498.559 679.528 497.743 679.528C496.927 679.528 496.183 679.72 495.511 680.104C494.839 680.488 494.303 681.048 493.903 681.784C493.503 682.52 493.303 683.384 493.303 684.376C493.303 685.384 493.503 686.264 493.903 687.016C494.303 687.752 494.839 688.32 495.511 688.72C496.183 689.104 496.927 689.296 497.743 689.296C498.559 689.296 499.303 689.104 499.975 688.72C500.663 688.32 501.207 687.752 501.607 687.016C502.007 686.264 502.207 685.392 502.207 684.4ZM510.026 673.24V691H507.842V673.24H510.026ZM515.668 673.24V691H513.484V673.24H515.668ZM527.925 679.648V687.4C527.925 688.04 528.061 688.496 528.333 688.768C528.605 689.024 529.077 689.152 529.749 689.152H531.357V691H529.389C528.173 691 527.261 690.72 526.653 690.16C526.045 689.6 525.741 688.68 525.741 687.4V679.648H524.037V677.848H525.741V674.536H527.925V677.848H531.357V679.648H527.925ZM540.267 677.608C541.259 677.608 542.155 677.824 542.955 678.256C543.755 678.672 544.379 679.304 544.827 680.152C545.291 681 545.523 682.032 545.523 683.248V691H543.363V683.56C543.363 682.248 543.035 681.248 542.379 680.56C541.723 679.856 540.827 679.504 539.691 679.504C538.539 679.504 537.619 679.864 536.931 680.584C536.259 681.304 535.923 682.352 535.923 683.728V691H533.739V673.24H535.923V679.72C536.355 679.048 536.947 678.528 537.699 678.16C538.467 677.792 539.323 677.608 540.267 677.608ZM560.827 683.92C560.827 684.336 560.803 684.776 560.755 685.24H550.243C550.323 686.536 550.763 687.552 551.563 688.288C552.379 689.008 553.363 689.368 554.515 689.368C555.459 689.368 556.243 689.152 556.867 688.72C557.507 688.272 557.955 687.68 558.211 686.944H560.563C560.211 688.208 559.507 689.24 558.451 690.04C557.395 690.824 556.083 691.216 554.515 691.216C553.267 691.216 552.147 690.936 551.155 690.376C550.179 689.816 549.411 689.024 548.851 688C548.291 686.96 548.011 685.76 548.011 684.4C548.011 683.04 548.283 681.848 548.827 680.824C549.371 679.8 550.131 679.016 551.107 678.472C552.099 677.912 553.235 677.632 554.515 677.632C555.763 677.632 556.867 677.904 557.827 678.448C558.787 678.992 559.523 679.744 560.035 680.704C560.563 681.648 560.827 682.72 560.827 683.92ZM558.571 683.464C558.571 682.632 558.387 681.92 558.019 681.328C557.651 680.72 557.147 680.264 556.507 679.96C555.883 679.64 555.187 679.48 554.419 679.48C553.315 679.48 552.371 679.832 551.587 680.536C550.819 681.24 550.379 682.216 550.267 683.464H558.571ZM572.244 679.648V687.4C572.244 688.04 572.38 688.496 572.652 688.768C572.924 689.024 573.396 689.152 574.068 689.152H575.676V691H573.708C572.492 691 571.58 690.72 570.972 690.16C570.364 689.6 570.06 688.68 570.06 687.4V679.648H568.356V677.848H570.06V674.536H572.244V677.848H575.676V679.648H572.244ZM580.242 679.984C580.626 679.232 581.17 678.648 581.874 678.232C582.594 677.816 583.466 677.608 584.49 677.608V679.864H583.914C581.466 679.864 580.242 681.192 580.242 683.848V691H578.058V677.848H580.242V679.984ZM585.931 684.376C585.931 683.032 586.203 681.856 586.747 680.848C587.291 679.824 588.035 679.032 588.979 678.472C589.939 677.912 591.003 677.632 592.171 677.632C593.323 677.632 594.323 677.88 595.171 678.376C596.019 678.872 596.651 679.496 597.067 680.248V677.848H599.275V691H597.067V688.552C596.635 689.32 595.987 689.96 595.123 690.472C594.275 690.968 593.283 691.216 592.147 691.216C590.979 691.216 589.923 690.928 588.979 690.352C588.035 689.776 587.291 688.968 586.747 687.928C586.203 686.888 585.931 685.704 585.931 684.376ZM597.067 684.4C597.067 683.408 596.867 682.544 596.467 681.808C596.067 681.072 595.523 680.512 594.835 680.128C594.163 679.728 593.419 679.528 592.603 679.528C591.787 679.528 591.043 679.72 590.371 680.104C589.699 680.488 589.163 681.048 588.763 681.784C588.363 682.52 588.163 683.384 588.163 684.376C588.163 685.384 588.363 686.264 588.763 687.016C589.163 687.752 589.699 688.32 590.371 688.72C591.043 689.104 591.787 689.296 592.603 689.296C593.419 689.296 594.163 689.104 594.835 688.72C595.523 688.32 596.067 687.752 596.467 687.016C596.867 686.264 597.067 685.392 597.067 684.4ZM609.11 677.608C610.71 677.608 612.006 678.096 612.998 679.072C613.99 680.032 614.486 681.424 614.486 683.248V691H612.326V683.56C612.326 682.248 611.998 681.248 611.342 680.56C610.686 679.856 609.79 679.504 608.654 679.504C607.502 679.504 606.582 679.864 605.894 680.584C605.222 681.304 604.886 682.352 604.886 683.728V691H602.702V677.848H604.886V679.72C605.318 679.048 605.902 678.528 606.638 678.16C607.39 677.792 608.214 677.608 609.11 677.608ZM622.445 691.216C621.437 691.216 620.533 691.048 619.733 690.712C618.933 690.36 618.301 689.88 617.837 689.272C617.373 688.648 617.117 687.936 617.069 687.136H619.325C619.389 687.792 619.693 688.328 620.237 688.744C620.797 689.16 621.525 689.368 622.421 689.368C623.253 689.368 623.909 689.184 624.389 688.816C624.869 688.448 625.109 687.984 625.109 687.424C625.109 686.848 624.853 686.424 624.341 686.152C623.829 685.864 623.037 685.584 621.965 685.312C620.989 685.056 620.189 684.8 619.565 684.544C618.957 684.272 618.429 683.88 617.981 683.368C617.549 682.84 617.333 682.152 617.333 681.304C617.333 680.632 617.533 680.016 617.933 679.456C618.333 678.896 618.901 678.456 619.637 678.136C620.373 677.8 621.213 677.632 622.157 677.632C623.613 677.632 624.789 678 625.685 678.736C626.581 679.472 627.061 680.48 627.125 681.76H624.941C624.893 681.072 624.613 680.52 624.101 680.104C623.605 679.688 622.933 679.48 622.085 679.48C621.301 679.48 620.677 679.648 620.213 679.984C619.749 680.32 619.517 680.76 619.517 681.304C619.517 681.736 619.653 682.096 619.925 682.384C620.213 682.656 620.565 682.88 620.981 683.056C621.413 683.216 622.005 683.4 622.757 683.608C623.701 683.864 624.469 684.12 625.061 684.376C625.653 684.616 626.157 684.984 626.573 685.48C627.005 685.976 627.229 686.624 627.245 687.424C627.245 688.144 627.045 688.792 626.645 689.368C626.245 689.944 625.677 690.4 624.941 690.736C624.221 691.056 623.389 691.216 622.445 691.216ZM652.015 677.608C653.039 677.608 653.951 677.824 654.751 678.256C655.551 678.672 656.183 679.304 656.647 680.152C657.111 681 657.343 682.032 657.343 683.248V691H655.183V683.56C655.183 682.248 654.855 681.248 654.199 680.56C653.559 679.856 652.687 679.504 651.583 679.504C650.447 679.504 649.543 679.872 648.871 680.608C648.199 681.328 647.863 682.376 647.863 683.752V691H645.703V683.56C645.703 682.248 645.375 681.248 644.719 680.56C644.079 679.856 643.207 679.504 642.103 679.504C640.967 679.504 640.063 679.872 639.391 680.608C638.719 681.328 638.383 682.376 638.383 683.752V691H636.199V677.848H638.383V679.744C638.815 679.056 639.391 678.528 640.111 678.16C640.847 677.792 641.655 677.608 642.535 677.608C643.639 677.608 644.615 677.856 645.463 678.352C646.311 678.848 646.943 679.576 647.359 680.536C647.727 679.608 648.335 678.888 649.183 678.376C650.031 677.864 650.975 677.608 652.015 677.608ZM672.661 683.92C672.661 684.336 672.637 684.776 672.589 685.24H662.077C662.157 686.536 662.597 687.552 663.397 688.288C664.213 689.008 665.197 689.368 666.349 689.368C667.293 689.368 668.077 689.152 668.701 688.72C669.341 688.272 669.789 687.68 670.045 686.944H672.397C672.045 688.208 671.341 689.24 670.285 690.04C669.229 690.824 667.917 691.216 666.349 691.216C665.101 691.216 663.981 690.936 662.989 690.376C662.013 689.816 661.245 689.024 660.685 688C660.125 686.96 659.845 685.76 659.845 684.4C659.845 683.04 660.117 681.848 660.661 680.824C661.205 679.8 661.965 679.016 662.941 678.472C663.933 677.912 665.069 677.632 666.349 677.632C667.597 677.632 668.701 677.904 669.661 678.448C670.621 678.992 671.357 679.744 671.869 680.704C672.397 681.648 672.661 682.72 672.661 683.92ZM670.405 683.464C670.405 682.632 670.221 681.92 669.853 681.328C669.485 680.72 668.981 680.264 668.341 679.96C667.717 679.64 667.021 679.48 666.253 679.48C665.149 679.48 664.205 679.832 663.421 680.536C662.653 681.24 662.213 682.216 662.101 683.464H670.405ZM681.688 677.608C683.288 677.608 684.584 678.096 685.576 679.072C686.568 680.032 687.064 681.424 687.064 683.248V691H684.904V683.56C684.904 682.248 684.576 681.248 683.92 680.56C683.264 679.856 682.368 679.504 681.232 679.504C680.08 679.504 679.16 679.864 678.472 680.584C677.8 681.304 677.464 682.352 677.464 683.728V691H675.28V677.848H677.464V679.72C677.896 679.048 678.48 678.528 679.216 678.16C679.968 677.792 680.792 677.608 681.688 677.608ZM692.624 687.976L689.936 694.432H688.472L690.224 687.976H692.624ZM703.66 679.648V687.4C703.66 688.04 703.796 688.496 704.068 688.768C704.34 689.024 704.812 689.152 705.484 689.152H707.092V691H705.124C703.908 691 702.996 690.72 702.388 690.16C701.78 689.6 701.476 688.68 701.476 687.4V679.648H699.772V677.848H701.476V674.536H703.66V677.848H707.092V679.648H703.66ZM711.658 679.984C712.042 679.232 712.586 678.648 713.29 678.232C714.01 677.816 714.882 677.608 715.906 677.608V679.864H715.33C712.882 679.864 711.658 681.192 711.658 683.848V691H709.474V677.848H711.658V679.984ZM717.347 684.376C717.347 683.032 717.619 681.856 718.163 680.848C718.707 679.824 719.451 679.032 720.395 678.472C721.355 677.912 722.419 677.632 723.587 677.632C724.739 677.632 725.739 677.88 726.587 678.376C727.435 678.872 728.067 679.496 728.483 680.248V677.848H730.691V691H728.483V688.552C728.051 689.32 727.403 689.96 726.539 690.472C725.691 690.968 724.699 691.216 723.563 691.216C722.395 691.216 721.339 690.928 720.395 690.352C719.451 689.776 718.707 688.968 718.163 687.928C717.619 686.888 717.347 685.704 717.347 684.376ZM728.483 684.4C728.483 683.408 728.283 682.544 727.883 681.808C727.483 681.072 726.939 680.512 726.251 680.128C725.579 679.728 724.835 679.528 724.019 679.528C723.203 679.528 722.459 679.72 721.787 680.104C721.115 680.488 720.579 681.048 720.179 681.784C719.779 682.52 719.579 683.384 719.579 684.376C719.579 685.384 719.779 686.264 720.179 687.016C720.579 687.752 721.115 688.32 721.787 688.72C722.459 689.104 723.203 689.296 724.019 689.296C724.835 689.296 725.579 689.104 726.251 688.72C726.939 688.32 727.483 687.752 727.883 687.016C728.283 686.264 728.483 685.392 728.483 684.4ZM740.526 677.608C742.126 677.608 743.422 678.096 744.414 679.072C745.406 680.032 745.902 681.424 745.902 683.248V691H743.742V683.56C743.742 682.248 743.414 681.248 742.758 680.56C742.102 679.856 741.206 679.504 740.07 679.504C738.918 679.504 737.998 679.864 737.31 680.584C736.638 681.304 736.302 682.352 736.302 683.728V691H734.118V677.848H736.302V679.72C736.734 679.048 737.318 678.528 738.054 678.16C738.806 677.792 739.63 677.608 740.526 677.608ZM753.862 691.216C752.854 691.216 751.95 691.048 751.15 690.712C750.35 690.36 749.718 689.88 749.254 689.272C748.79 688.648 748.534 687.936 748.486 687.136H750.742C750.806 687.792 751.11 688.328 751.654 688.744C752.214 689.16 752.942 689.368 753.838 689.368C754.67 689.368 755.326 689.184 755.806 688.816C756.286 688.448 756.526 687.984 756.526 687.424C756.526 686.848 756.27 686.424 755.758 686.152C755.246 685.864 754.454 685.584 753.382 685.312C752.406 685.056 751.606 684.8 750.982 684.544C750.374 684.272 749.846 683.88 749.398 683.368C748.966 682.84 748.75 682.152 748.75 681.304C748.75 680.632 748.95 680.016 749.35 679.456C749.75 678.896 750.318 678.456 751.054 678.136C751.79 677.8 752.63 677.632 753.574 677.632C755.03 677.632 756.206 678 757.102 678.736C757.998 679.472 758.478 680.48 758.542 681.76H756.358C756.31 681.072 756.03 680.52 755.518 680.104C755.022 679.688 754.35 679.48 753.502 679.48C752.718 679.48 752.094 679.648 751.63 679.984C751.166 680.32 750.934 680.76 750.934 681.304C750.934 681.736 751.07 682.096 751.342 682.384C751.63 682.656 751.982 682.88 752.398 683.056C752.83 683.216 753.422 683.4 754.174 683.608C755.118 683.864 755.886 684.12 756.478 684.376C757.07 684.616 757.574 684.984 757.99 685.48C758.422 685.976 758.646 686.624 758.662 687.424C758.662 688.144 758.462 688.792 758.062 689.368C757.662 689.944 757.094 690.4 756.358 690.736C755.638 691.056 754.806 691.216 753.862 691.216ZM785.135 677.848L781.031 691H778.775L775.607 680.56L772.439 691H770.183L766.055 677.848H768.287L771.311 688.888L774.575 677.848H776.807L779.999 688.912L782.975 677.848H785.135ZM792.775 691.216C791.543 691.216 790.423 690.936 789.415 690.376C788.423 689.816 787.639 689.024 787.063 688C786.503 686.96 786.223 685.76 786.223 684.4C786.223 683.056 786.511 681.872 787.087 680.848C787.679 679.808 788.479 679.016 789.487 678.472C790.495 677.912 791.623 677.632 792.871 677.632C794.119 677.632 795.247 677.912 796.255 678.472C797.263 679.016 798.055 679.8 798.631 680.824C799.223 681.848 799.519 683.04 799.519 684.4C799.519 685.76 799.215 686.96 798.607 688C798.015 689.024 797.207 689.816 796.183 690.376C795.159 690.936 794.023 691.216 792.775 691.216ZM792.775 689.296C793.559 689.296 794.295 689.112 794.983 688.744C795.671 688.376 796.223 687.824 796.639 687.088C797.071 686.352 797.287 685.456 797.287 684.4C797.287 683.344 797.079 682.448 796.663 681.712C796.247 680.976 795.703 680.432 795.031 680.08C794.359 679.712 793.631 679.528 792.847 679.528C792.047 679.528 791.311 679.712 790.639 680.08C789.983 680.432 789.455 680.976 789.055 681.712C788.655 682.448 788.455 683.344 788.455 684.4C788.455 685.472 788.647 686.376 789.031 687.112C789.431 687.848 789.959 688.4 790.615 688.768C791.271 689.12 791.991 689.296 792.775 689.296ZM817.942 677.608C818.966 677.608 819.878 677.824 820.678 678.256C821.478 678.672 822.11 679.304 822.574 680.152C823.038 681 823.27 682.032 823.27 683.248V691H821.11V683.56C821.11 682.248 820.782 681.248 820.126 680.56C819.486 679.856 818.614 679.504 817.51 679.504C816.374 679.504 815.47 679.872 814.798 680.608C814.126 681.328 813.79 682.376 813.79 683.752V691H811.63V683.56C811.63 682.248 811.302 681.248 810.646 680.56C810.006 679.856 809.134 679.504 808.03 679.504C806.894 679.504 805.99 679.872 805.318 680.608C804.646 681.328 804.31 682.376 804.31 683.752V691H802.126V677.848H804.31V679.744C804.742 679.056 805.318 678.528 806.038 678.16C806.774 677.792 807.582 677.608 808.462 677.608C809.566 677.608 810.542 677.856 811.39 678.352C812.238 678.848 812.87 679.576 813.286 680.536C813.654 679.608 814.262 678.888 815.11 678.376C815.958 677.864 816.902 677.608 817.942 677.608ZM838.589 683.92C838.589 684.336 838.565 684.776 838.517 685.24H828.005C828.085 686.536 828.525 687.552 829.325 688.288C830.141 689.008 831.125 689.368 832.277 689.368C833.221 689.368 834.005 689.152 834.629 688.72C835.269 688.272 835.717 687.68 835.973 686.944H838.325C837.973 688.208 837.269 689.24 836.213 690.04C835.157 690.824 833.845 691.216 832.277 691.216C831.029 691.216 829.909 690.936 828.917 690.376C827.941 689.816 827.173 689.024 826.613 688C826.053 686.96 825.773 685.76 825.773 684.4C825.773 683.04 826.045 681.848 826.589 680.824C827.133 679.8 827.893 679.016 828.869 678.472C829.861 677.912 830.997 677.632 832.277 677.632C833.525 677.632 834.629 677.904 835.589 678.448C836.549 678.992 837.285 679.744 837.797 680.704C838.325 681.648 838.589 682.72 838.589 683.92ZM836.333 683.464C836.333 682.632 836.149 681.92 835.781 681.328C835.413 680.72 834.909 680.264 834.269 679.96C833.645 679.64 832.949 679.48 832.181 679.48C831.077 679.48 830.133 679.832 829.349 680.536C828.581 681.24 828.141 682.216 828.029 683.464H836.333ZM847.616 677.608C849.216 677.608 850.512 678.096 851.504 679.072C852.496 680.032 852.992 681.424 852.992 683.248V691H850.832V683.56C850.832 682.248 850.504 681.248 849.848 680.56C849.192 679.856 848.296 679.504 847.16 679.504C846.008 679.504 845.088 679.864 844.4 680.584C843.728 681.304 843.392 682.352 843.392 683.728V691H841.208V677.848H843.392V679.72C843.824 679.048 844.408 678.528 845.144 678.16C845.896 677.792 846.72 677.608 847.616 677.608ZM861.614 684.376C861.614 683.032 861.886 681.856 862.43 680.848C862.974 679.824 863.718 679.032 864.662 678.472C865.622 677.912 866.686 677.632 867.854 677.632C869.006 677.632 870.006 677.88 870.854 678.376C871.702 678.872 872.334 679.496 872.75 680.248V677.848H874.958V691H872.75V688.552C872.318 689.32 871.67 689.96 870.806 690.472C869.958 690.968 868.966 691.216 867.83 691.216C866.662 691.216 865.606 690.928 864.662 690.352C863.718 689.776 862.974 688.968 862.43 687.928C861.886 686.888 861.614 685.704 861.614 684.376ZM872.75 684.4C872.75 683.408 872.55 682.544 872.15 681.808C871.75 681.072 871.206 680.512 870.518 680.128C869.846 679.728 869.102 679.528 868.286 679.528C867.47 679.528 866.726 679.72 866.054 680.104C865.382 680.488 864.846 681.048 864.446 681.784C864.046 682.52 863.846 683.384 863.846 684.376C863.846 685.384 864.046 686.264 864.446 687.016C864.846 687.752 865.382 688.32 866.054 688.72C866.726 689.104 867.47 689.296 868.286 689.296C869.102 689.296 869.846 689.104 870.518 688.72C871.206 688.32 871.75 687.752 872.15 687.016C872.55 686.264 872.75 685.392 872.75 684.4ZM884.792 677.608C886.392 677.608 887.688 678.096 888.68 679.072C889.672 680.032 890.168 681.424 890.168 683.248V691H888.008V683.56C888.008 682.248 887.68 681.248 887.024 680.56C886.368 679.856 885.472 679.504 884.336 679.504C883.184 679.504 882.264 679.864 881.576 680.584C880.904 681.304 880.568 682.352 880.568 683.728V691H878.384V677.848H880.568V679.72C881 679.048 881.584 678.528 882.32 678.16C883.072 677.792 883.896 677.608 884.792 677.608ZM892.656 684.376C892.656 683.032 892.928 681.856 893.472 680.848C894.016 679.824 894.76 679.032 895.704 678.472C896.664 677.912 897.736 677.632 898.92 677.632C899.944 677.632 900.896 677.872 901.776 678.352C902.656 678.816 903.328 679.432 903.792 680.2V673.24H906V691H903.792V688.528C903.36 689.312 902.72 689.96 901.872 690.472C901.024 690.968 900.032 691.216 898.896 691.216C897.728 691.216 896.664 690.928 895.704 690.352C894.76 689.776 894.016 688.968 893.472 687.928C892.928 686.888 892.656 685.704 892.656 684.376ZM903.792 684.4C903.792 683.408 903.592 682.544 903.192 681.808C902.792 681.072 902.248 680.512 901.56 680.128C900.888 679.728 900.144 679.528 899.328 679.528C898.512 679.528 897.768 679.72 897.096 680.104C896.424 680.488 895.888 681.048 895.488 681.784C895.088 682.52 894.888 683.384 894.888 684.376C894.888 685.384 895.088 686.264 895.488 687.016C895.888 687.752 896.424 688.32 897.096 688.72C897.768 689.104 898.512 689.296 899.328 689.296C900.144 689.296 900.888 689.104 901.56 688.72C902.248 688.32 902.792 687.752 903.192 687.016C903.592 686.264 903.792 685.392 903.792 684.4ZM921.969 677.608C923.569 677.608 924.865 678.096 925.857 679.072C926.849 680.032 927.345 681.424 927.345 683.248V691H925.185V683.56C925.185 682.248 924.857 681.248 924.201 680.56C923.545 679.856 922.649 679.504 921.513 679.504C920.361 679.504 919.441 679.864 918.753 680.584C918.081 681.304 917.745 682.352 917.745 683.728V691H915.561V677.848H917.745V679.72C918.177 679.048 918.761 678.528 919.497 678.16C920.249 677.792 921.073 677.608 921.969 677.608ZM936.385 691.216C935.153 691.216 934.033 690.936 933.025 690.376C932.033 689.816 931.249 689.024 930.673 688C930.113 686.96 929.833 685.76 929.833 684.4C929.833 683.056 930.121 681.872 930.697 680.848C931.289 679.808 932.089 679.016 933.097 678.472C934.105 677.912 935.233 677.632 936.481 677.632C937.729 677.632 938.857 677.912 939.865 678.472C940.873 679.016 941.665 679.8 942.241 680.824C942.833 681.848 943.129 683.04 943.129 684.4C943.129 685.76 942.825 686.96 942.217 688C941.625 689.024 940.817 689.816 939.793 690.376C938.769 690.936 937.633 691.216 936.385 691.216ZM936.385 689.296C937.169 689.296 937.905 689.112 938.593 688.744C939.281 688.376 939.833 687.824 940.249 687.088C940.681 686.352 940.897 685.456 940.897 684.4C940.897 683.344 940.689 682.448 940.273 681.712C939.857 680.976 939.313 680.432 938.641 680.08C937.969 679.712 937.241 679.528 936.457 679.528C935.657 679.528 934.921 679.712 934.249 680.08C933.593 680.432 933.065 680.976 932.665 681.712C932.265 682.448 932.065 683.344 932.065 684.4C932.065 685.472 932.257 686.376 932.641 687.112C933.041 687.848 933.569 688.4 934.225 688.768C934.881 689.12 935.601 689.296 936.385 689.296ZM952.144 677.608C953.744 677.608 955.04 678.096 956.032 679.072C957.024 680.032 957.52 681.424 957.52 683.248V691H955.36V683.56C955.36 682.248 955.032 681.248 954.376 680.56C953.72 679.856 952.824 679.504 951.688 679.504C950.536 679.504 949.616 679.864 948.928 680.584C948.256 681.304 947.92 682.352 947.92 683.728V691H945.736V677.848H947.92V679.72C948.352 679.048 948.936 678.528 949.672 678.16C950.424 677.792 951.248 677.608 952.144 677.608ZM969.142 680.296C969.59 679.512 970.246 678.872 971.11 678.376C971.974 677.88 972.958 677.632 974.062 677.632C975.246 677.632 976.31 677.912 977.254 678.472C978.198 679.032 978.942 679.824 979.486 680.848C980.03 681.856 980.302 683.032 980.302 684.376C980.302 685.704 980.03 686.888 979.486 687.928C978.942 688.968 978.19 689.776 977.23 690.352C976.286 690.928 975.23 691.216 974.062 691.216C972.926 691.216 971.926 690.968 971.062 690.472C970.214 689.976 969.574 689.344 969.142 688.576V691H966.958V673.24H969.142V680.296ZM978.07 684.376C978.07 683.384 977.87 682.52 977.47 681.784C977.07 681.048 976.526 680.488 975.838 680.104C975.166 679.72 974.422 679.528 973.606 679.528C972.806 679.528 972.062 679.728 971.374 680.128C970.702 680.512 970.158 681.08 969.742 681.832C969.342 682.568 969.142 683.424 969.142 684.4C969.142 685.392 969.342 686.264 969.742 687.016C970.158 687.752 970.702 688.32 971.374 688.72C972.062 689.104 972.806 689.296 973.606 689.296C974.422 689.296 975.166 689.104 975.838 688.72C976.526 688.32 977.07 687.752 977.47 687.016C977.87 686.264 978.07 685.384 978.07 684.376ZM984.041 675.712C983.625 675.712 983.273 675.568 982.985 675.28C982.697 674.992 982.553 674.64 982.553 674.224C982.553 673.808 982.697 673.456 982.985 673.168C983.273 672.88 983.625 672.736 984.041 672.736C984.441 672.736 984.777 672.88 985.049 673.168C985.337 673.456 985.481 673.808 985.481 674.224C985.481 674.64 985.337 674.992 985.049 675.28C984.777 675.568 984.441 675.712 984.041 675.712ZM985.097 677.848V691H982.913V677.848H985.097ZM994.963 677.608C996.563 677.608 997.859 678.096 998.851 679.072C999.843 680.032 1000.34 681.424 1000.34 683.248V691H998.179V683.56C998.179 682.248 997.851 681.248 997.195 680.56C996.539 679.856 995.643 679.504 994.507 679.504C993.355 679.504 992.435 679.864 991.747 680.584C991.075 681.304 990.739 682.352 990.739 683.728V691H988.555V677.848H990.739V679.72C991.171 679.048 991.755 678.528 992.491 678.16C993.243 677.792 994.067 677.608 994.963 677.608ZM1002.83 684.376C1002.83 683.032 1003.1 681.856 1003.64 680.848C1004.19 679.824 1004.93 679.032 1005.87 678.472C1006.83 677.912 1007.9 677.632 1009.07 677.632C1010.22 677.632 1011.22 677.88 1012.07 678.376C1012.91 678.872 1013.55 679.496 1013.96 680.248V677.848H1016.17V691H1013.96V688.552C1013.53 689.32 1012.88 689.96 1012.02 690.472C1011.17 690.968 1010.18 691.216 1009.04 691.216C1007.87 691.216 1006.82 690.928 1005.87 690.352C1004.93 689.776 1004.19 688.968 1003.64 687.928C1003.1 686.888 1002.83 685.704 1002.83 684.376ZM1013.96 684.4C1013.96 683.408 1013.76 682.544 1013.36 681.808C1012.96 681.072 1012.42 680.512 1011.73 680.128C1011.06 679.728 1010.31 679.528 1009.5 679.528C1008.68 679.528 1007.94 679.72 1007.27 680.104C1006.59 680.488 1006.06 681.048 1005.66 681.784C1005.26 682.52 1005.06 683.384 1005.06 684.376C1005.06 685.384 1005.26 686.264 1005.66 687.016C1006.06 687.752 1006.59 688.32 1007.27 688.72C1007.94 689.104 1008.68 689.296 1009.5 689.296C1010.31 689.296 1011.06 689.104 1011.73 688.72C1012.42 688.32 1012.96 687.752 1013.36 687.016C1013.76 686.264 1013.96 685.392 1013.96 684.4ZM1021.78 679.984C1022.17 679.232 1022.71 678.648 1023.41 678.232C1024.13 677.816 1025.01 677.608 1026.03 677.608V679.864H1025.45C1023.01 679.864 1021.78 681.192 1021.78 683.848V691H1019.6V677.848H1021.78V679.984ZM1039.61 677.848L1031.69 697.192H1029.44L1032.03 690.856L1026.73 677.848H1029.15L1033.28 688.504L1037.36 677.848H1039.61ZM264.709 716.272C265.141 715.52 265.781 714.896 266.629 714.4C267.493 713.888 268.493 713.632 269.629 713.632C270.797 713.632 271.853 713.912 272.797 714.472C273.757 715.032 274.509 715.824 275.053 716.848C275.597 717.856 275.869 719.032 275.869 720.376C275.869 721.704 275.597 722.888 275.053 723.928C274.509 724.968 273.757 725.776 272.797 726.352C271.853 726.928 270.797 727.216 269.629 727.216C268.509 727.216 267.517 726.968 266.653 726.472C265.805 725.96 265.157 725.328 264.709 724.576V733.24H262.525V713.848H264.709V716.272ZM273.637 720.376C273.637 719.384 273.437 718.52 273.037 717.784C272.637 717.048 272.093 716.488 271.405 716.104C270.733 715.72 269.989 715.528 269.173 715.528C268.373 715.528 267.629 715.728 266.941 716.128C266.269 716.512 265.725 717.08 265.309 717.832C264.909 718.568 264.709 719.424 264.709 720.4C264.709 721.392 264.909 722.264 265.309 723.016C265.725 723.752 266.269 724.32 266.941 724.72C267.629 725.104 268.373 725.296 269.173 725.296C269.989 725.296 270.733 725.104 271.405 724.72C272.093 724.32 272.637 723.752 273.037 723.016C273.437 722.264 273.637 721.384 273.637 720.376ZM290.48 719.92C290.48 720.336 290.456 720.776 290.408 721.24H279.896C279.976 722.536 280.416 723.552 281.216 724.288C282.032 725.008 283.016 725.368 284.168 725.368C285.112 725.368 285.896 725.152 286.52 724.72C287.16 724.272 287.608 723.68 287.864 722.944H290.216C289.864 724.208 289.16 725.24 288.104 726.04C287.048 726.824 285.736 727.216 284.168 727.216C282.92 727.216 281.8 726.936 280.808 726.376C279.832 725.816 279.064 725.024 278.504 724C277.944 722.96 277.664 721.76 277.664 720.4C277.664 719.04 277.936 717.848 278.48 716.824C279.024 715.8 279.784 715.016 280.76 714.472C281.752 713.912 282.888 713.632 284.168 713.632C285.416 713.632 286.52 713.904 287.48 714.448C288.44 714.992 289.176 715.744 289.688 716.704C290.216 717.648 290.48 718.72 290.48 719.92ZM288.224 719.464C288.224 718.632 288.04 717.92 287.672 717.328C287.304 716.72 286.8 716.264 286.16 715.96C285.536 715.64 284.84 715.48 284.072 715.48C282.968 715.48 282.024 715.832 281.24 716.536C280.472 717.24 280.032 718.216 279.92 719.464H288.224ZM298.835 727.216C297.603 727.216 296.483 726.936 295.475 726.376C294.483 725.816 293.699 725.024 293.123 724C292.563 722.96 292.283 721.76 292.283 720.4C292.283 719.056 292.571 717.872 293.147 716.848C293.739 715.808 294.539 715.016 295.547 714.472C296.555 713.912 297.683 713.632 298.931 713.632C300.179 713.632 301.307 713.912 302.315 714.472C303.323 715.016 304.115 715.8 304.691 716.824C305.283 717.848 305.579 719.04 305.579 720.4C305.579 721.76 305.275 722.96 304.667 724C304.075 725.024 303.267 725.816 302.243 726.376C301.219 726.936 300.083 727.216 298.835 727.216ZM298.835 725.296C299.619 725.296 300.355 725.112 301.043 724.744C301.731 724.376 302.283 723.824 302.699 723.088C303.131 722.352 303.347 721.456 303.347 720.4C303.347 719.344 303.139 718.448 302.723 717.712C302.307 716.976 301.763 716.432 301.091 716.08C300.419 715.712 299.691 715.528 298.907 715.528C298.107 715.528 297.371 715.712 296.699 716.08C296.043 716.432 295.515 716.976 295.115 717.712C294.715 718.448 294.515 719.344 294.515 720.4C294.515 721.472 294.707 722.376 295.091 723.112C295.491 723.848 296.019 724.4 296.675 724.768C297.331 725.12 298.051 725.296 298.835 725.296ZM310.37 716.272C310.802 715.52 311.442 714.896 312.29 714.4C313.154 713.888 314.154 713.632 315.29 713.632C316.458 713.632 317.514 713.912 318.458 714.472C319.418 715.032 320.17 715.824 320.714 716.848C321.258 717.856 321.53 719.032 321.53 720.376C321.53 721.704 321.258 722.888 320.714 723.928C320.17 724.968 319.418 725.776 318.458 726.352C317.514 726.928 316.458 727.216 315.29 727.216C314.17 727.216 313.178 726.968 312.314 726.472C311.466 725.96 310.818 725.328 310.37 724.576V733.24H308.186V713.848H310.37V716.272ZM319.298 720.376C319.298 719.384 319.098 718.52 318.698 717.784C318.298 717.048 317.754 716.488 317.066 716.104C316.394 715.72 315.65 715.528 314.834 715.528C314.034 715.528 313.29 715.728 312.602 716.128C311.93 716.512 311.386 717.08 310.97 717.832C310.57 718.568 310.37 719.424 310.37 720.4C310.37 721.392 310.57 722.264 310.97 723.016C311.386 723.752 311.93 724.32 312.602 724.72C313.29 725.104 314.034 725.296 314.834 725.296C315.65 725.296 316.394 725.104 317.066 724.72C317.754 724.32 318.298 723.752 318.698 723.016C319.098 722.264 319.298 721.384 319.298 720.376ZM326.325 709.24V727H324.141V709.24H326.325ZM341.783 719.92C341.783 720.336 341.759 720.776 341.711 721.24H331.199C331.279 722.536 331.719 723.552 332.519 724.288C333.335 725.008 334.319 725.368 335.471 725.368C336.415 725.368 337.199 725.152 337.823 724.72C338.463 724.272 338.911 723.68 339.167 722.944H341.519C341.167 724.208 340.463 725.24 339.407 726.04C338.351 726.824 337.039 727.216 335.471 727.216C334.223 727.216 333.103 726.936 332.111 726.376C331.135 725.816 330.367 725.024 329.807 724C329.247 722.96 328.967 721.76 328.967 720.4C328.967 719.04 329.239 717.848 329.783 716.824C330.327 715.8 331.087 715.016 332.063 714.472C333.055 713.912 334.191 713.632 335.471 713.632C336.719 713.632 337.823 713.904 338.783 714.448C339.743 714.992 340.479 715.744 340.991 716.704C341.519 717.648 341.783 718.72 341.783 719.92ZM339.527 719.464C339.527 718.632 339.343 717.92 338.975 717.328C338.607 716.72 338.103 716.264 337.463 715.96C336.839 715.64 336.143 715.48 335.375 715.48C334.271 715.48 333.327 715.832 332.543 716.536C331.775 717.24 331.335 718.216 331.223 719.464H339.527ZM368.056 713.848L363.952 727H361.696L358.528 716.56L355.36 727H353.104L348.976 713.848H351.208L354.232 724.888L357.496 713.848H359.728L362.92 724.912L365.896 713.848H368.056ZM376.488 713.608C377.48 713.608 378.376 713.824 379.176 714.256C379.976 714.672 380.6 715.304 381.048 716.152C381.512 717 381.744 718.032 381.744 719.248V727H379.584V719.56C379.584 718.248 379.256 717.248 378.6 716.56C377.944 715.856 377.048 715.504 375.912 715.504C374.76 715.504 373.84 715.864 373.152 716.584C372.48 717.304 372.144 718.352 372.144 719.728V727H369.96V709.24H372.144V715.72C372.576 715.048 373.168 714.528 373.92 714.16C374.688 713.792 375.544 713.608 376.488 713.608ZM397.047 719.92C397.047 720.336 397.023 720.776 396.975 721.24H386.463C386.543 722.536 386.983 723.552 387.783 724.288C388.599 725.008 389.583 725.368 390.735 725.368C391.679 725.368 392.463 725.152 393.087 724.72C393.727 724.272 394.175 723.68 394.431 722.944H396.783C396.431 724.208 395.727 725.24 394.671 726.04C393.615 726.824 392.303 727.216 390.735 727.216C389.487 727.216 388.367 726.936 387.375 726.376C386.399 725.816 385.631 725.024 385.071 724C384.511 722.96 384.231 721.76 384.231 720.4C384.231 719.04 384.503 717.848 385.047 716.824C385.591 715.8 386.351 715.016 387.327 714.472C388.319 713.912 389.455 713.632 390.735 713.632C391.983 713.632 393.087 713.904 394.047 714.448C395.007 714.992 395.743 715.744 396.255 716.704C396.783 717.648 397.047 718.72 397.047 719.92ZM394.791 719.464C394.791 718.632 394.607 717.92 394.239 717.328C393.871 716.72 393.367 716.264 392.727 715.96C392.103 715.64 391.407 715.48 390.639 715.48C389.535 715.48 388.591 715.832 387.807 716.536C387.039 717.24 386.599 718.216 386.487 719.464H394.791ZM406.074 713.608C407.674 713.608 408.97 714.096 409.962 715.072C410.954 716.032 411.45 717.424 411.45 719.248V727H409.29V719.56C409.29 718.248 408.962 717.248 408.306 716.56C407.65 715.856 406.754 715.504 405.618 715.504C404.466 715.504 403.546 715.864 402.858 716.584C402.186 717.304 401.85 718.352 401.85 719.728V727H399.666V713.848H401.85V715.72C402.282 715.048 402.866 714.528 403.602 714.16C404.354 713.792 405.178 713.608 406.074 713.608ZM423.552 715.648V723.4C423.552 724.04 423.688 724.496 423.96 724.768C424.232 725.024 424.704 725.152 425.376 725.152H426.984V727H425.016C423.8 727 422.888 726.72 422.28 726.16C421.672 725.6 421.368 724.68 421.368 723.4V715.648H419.664V713.848H421.368V710.536H423.552V713.848H426.984V715.648H423.552ZM435.894 713.608C436.886 713.608 437.782 713.824 438.582 714.256C439.382 714.672 440.006 715.304 440.454 716.152C440.918 717 441.15 718.032 441.15 719.248V727H438.99V719.56C438.99 718.248 438.662 717.248 438.006 716.56C437.35 715.856 436.454 715.504 435.318 715.504C434.166 715.504 433.246 715.864 432.558 716.584C431.886 717.304 431.55 718.352 431.55 719.728V727H429.366V709.24H431.55V715.72C431.982 715.048 432.574 714.528 433.326 714.16C434.094 713.792 434.95 713.608 435.894 713.608ZM456.454 719.92C456.454 720.336 456.43 720.776 456.382 721.24H445.87C445.95 722.536 446.39 723.552 447.19 724.288C448.006 725.008 448.99 725.368 450.142 725.368C451.086 725.368 451.87 725.152 452.494 724.72C453.134 724.272 453.582 723.68 453.838 722.944H456.19C455.838 724.208 455.134 725.24 454.078 726.04C453.022 726.824 451.71 727.216 450.142 727.216C448.894 727.216 447.774 726.936 446.782 726.376C445.806 725.816 445.038 725.024 444.478 724C443.918 722.96 443.638 721.76 443.638 720.4C443.638 719.04 443.91 717.848 444.454 716.824C444.998 715.8 445.758 715.016 446.734 714.472C447.726 713.912 448.862 713.632 450.142 713.632C451.39 713.632 452.494 713.904 453.454 714.448C454.414 714.992 455.15 715.744 455.662 716.704C456.19 717.648 456.454 718.72 456.454 719.92ZM454.198 719.464C454.198 718.632 454.014 717.92 453.646 717.328C453.278 716.72 452.774 716.264 452.134 715.96C451.51 715.64 450.814 715.48 450.046 715.48C448.942 715.48 447.998 715.832 447.214 716.536C446.446 717.24 446.006 718.216 445.894 719.464H454.198ZM470.401 713.848L462.481 733.192H460.225L462.817 726.856L457.513 713.848H459.937L464.065 724.504L468.145 713.848H470.401ZM477.651 720.376C477.651 719.032 477.923 717.856 478.467 716.848C479.011 715.824 479.755 715.032 480.699 714.472C481.659 713.912 482.723 713.632 483.891 713.632C485.043 713.632 486.043 713.88 486.891 714.376C487.739 714.872 488.371 715.496 488.787 716.248V713.848H490.995V727H488.787V724.552C488.355 725.32 487.707 725.96 486.843 726.472C485.995 726.968 485.003 727.216 483.867 727.216C482.699 727.216 481.643 726.928 480.699 726.352C479.755 725.776 479.011 724.968 478.467 723.928C477.923 722.888 477.651 721.704 477.651 720.376ZM488.787 720.4C488.787 719.408 488.587 718.544 488.187 717.808C487.787 717.072 487.243 716.512 486.555 716.128C485.883 715.728 485.139 715.528 484.323 715.528C483.507 715.528 482.763 715.72 482.091 716.104C481.419 716.488 480.883 717.048 480.483 717.784C480.083 718.52 479.883 719.384 479.883 720.376C479.883 721.384 480.083 722.264 480.483 723.016C480.883 723.752 481.419 724.32 482.091 724.72C482.763 725.104 483.507 725.296 484.323 725.296C485.139 725.296 485.883 725.104 486.555 724.72C487.243 724.32 487.787 723.752 488.187 723.016C488.587 722.264 488.787 721.392 488.787 720.4ZM496.605 715.984C496.989 715.232 497.533 714.648 498.237 714.232C498.957 713.816 499.829 713.608 500.853 713.608V715.864H500.277C497.829 715.864 496.605 717.192 496.605 719.848V727H494.421V713.848H496.605V715.984ZM515.111 719.92C515.111 720.336 515.087 720.776 515.039 721.24H504.527C504.607 722.536 505.047 723.552 505.847 724.288C506.663 725.008 507.647 725.368 508.799 725.368C509.743 725.368 510.527 725.152 511.151 724.72C511.791 724.272 512.239 723.68 512.495 722.944H514.847C514.495 724.208 513.791 725.24 512.735 726.04C511.679 726.824 510.367 727.216 508.799 727.216C507.551 727.216 506.431 726.936 505.439 726.376C504.463 725.816 503.695 725.024 503.135 724C502.575 722.96 502.295 721.76 502.295 720.4C502.295 719.04 502.567 717.848 503.111 716.824C503.655 715.8 504.415 715.016 505.391 714.472C506.383 713.912 507.519 713.632 508.799 713.632C510.047 713.632 511.151 713.904 512.111 714.448C513.071 714.992 513.807 715.744 514.319 716.704C514.847 717.648 515.111 718.72 515.111 719.92ZM512.855 719.464C512.855 718.632 512.671 717.92 512.303 717.328C511.935 716.72 511.431 716.264 510.791 715.96C510.167 715.64 509.471 715.48 508.703 715.48C507.599 715.48 506.655 715.832 505.871 716.536C505.103 717.24 504.663 718.216 504.551 719.464H512.855ZM524.992 711.712C524.576 711.712 524.224 711.568 523.936 711.28C523.648 710.992 523.504 710.64 523.504 710.224C523.504 709.808 523.648 709.456 523.936 709.168C524.224 708.88 524.576 708.736 524.992 708.736C525.392 708.736 525.728 708.88 526 709.168C526.288 709.456 526.432 709.808 526.432 710.224C526.432 710.64 526.288 710.992 526 711.28C525.728 711.568 525.392 711.712 524.992 711.712ZM526.048 713.848V727H523.864V713.848H526.048ZM535.914 713.608C537.514 713.608 538.81 714.096 539.802 715.072C540.794 716.032 541.29 717.424 541.29 719.248V727H539.13V719.56C539.13 718.248 538.802 717.248 538.146 716.56C537.49 715.856 536.594 715.504 535.458 715.504C534.306 715.504 533.386 715.864 532.698 716.584C532.026 717.304 531.69 718.352 531.69 719.728V727H529.506V713.848H531.69V715.72C532.122 715.048 532.706 714.528 533.442 714.16C534.194 713.792 535.018 713.608 535.914 713.608ZM555.384 727.216C554.376 727.216 553.472 727.048 552.672 726.712C551.872 726.36 551.24 725.88 550.776 725.272C550.312 724.648 550.056 723.936 550.008 723.136H552.264C552.328 723.792 552.632 724.328 553.176 724.744C553.736 725.16 554.464 725.368 555.36 725.368C556.192 725.368 556.848 725.184 557.328 724.816C557.808 724.448 558.048 723.984 558.048 723.424C558.048 722.848 557.792 722.424 557.28 722.152C556.768 721.864 555.976 721.584 554.904 721.312C553.928 721.056 553.128 720.8 552.504 720.544C551.896 720.272 551.368 719.88 550.92 719.368C550.488 718.84 550.272 718.152 550.272 717.304C550.272 716.632 550.472 716.016 550.872 715.456C551.272 714.896 551.84 714.456 552.576 714.136C553.312 713.8 554.152 713.632 555.096 713.632C556.552 713.632 557.728 714 558.624 714.736C559.52 715.472 560 716.48 560.064 717.76H557.88C557.832 717.072 557.552 716.52 557.04 716.104C556.544 715.688 555.872 715.48 555.024 715.48C554.24 715.48 553.616 715.648 553.152 715.984C552.688 716.32 552.456 716.76 552.456 717.304C552.456 717.736 552.592 718.096 552.864 718.384C553.152 718.656 553.504 718.88 553.92 719.056C554.352 719.216 554.944 719.4 555.696 719.608C556.64 719.864 557.408 720.12 558 720.376C558.592 720.616 559.096 720.984 559.512 721.48C559.944 721.976 560.168 722.624 560.184 723.424C560.184 724.144 559.984 724.792 559.584 725.368C559.184 725.944 558.616 726.4 557.88 726.736C557.16 727.056 556.328 727.216 555.384 727.216ZM565.187 716.272C565.619 715.52 566.259 714.896 567.107 714.4C567.971 713.888 568.971 713.632 570.107 713.632C571.275 713.632 572.331 713.912 573.275 714.472C574.235 715.032 574.987 715.824 575.531 716.848C576.075 717.856 576.347 719.032 576.347 720.376C576.347 721.704 576.075 722.888 575.531 723.928C574.987 724.968 574.235 725.776 573.275 726.352C572.331 726.928 571.275 727.216 570.107 727.216C568.987 727.216 567.995 726.968 567.131 726.472C566.283 725.96 565.635 725.328 565.187 724.576V733.24H563.003V713.848H565.187V716.272ZM574.115 720.376C574.115 719.384 573.915 718.52 573.515 717.784C573.115 717.048 572.571 716.488 571.883 716.104C571.211 715.72 570.467 715.528 569.651 715.528C568.851 715.528 568.107 715.728 567.419 716.128C566.747 716.512 566.203 717.08 565.787 717.832C565.387 718.568 565.187 719.424 565.187 720.4C565.187 721.392 565.387 722.264 565.787 723.016C566.203 723.752 566.747 724.32 567.419 724.72C568.107 725.104 568.851 725.296 569.651 725.296C570.467 725.296 571.211 725.104 571.883 724.72C572.571 724.32 573.115 723.752 573.515 723.016C573.915 722.264 574.115 721.384 574.115 720.376ZM578.142 720.376C578.142 719.032 578.414 717.856 578.958 716.848C579.502 715.824 580.246 715.032 581.19 714.472C582.15 713.912 583.214 713.632 584.382 713.632C585.534 713.632 586.534 713.88 587.382 714.376C588.23 714.872 588.862 715.496 589.278 716.248V713.848H591.486V727H589.278V724.552C588.846 725.32 588.198 725.96 587.334 726.472C586.486 726.968 585.494 727.216 584.358 727.216C583.19 727.216 582.134 726.928 581.19 726.352C580.246 725.776 579.502 724.968 578.958 723.928C578.414 722.888 578.142 721.704 578.142 720.376ZM589.278 720.4C589.278 719.408 589.078 718.544 588.678 717.808C588.278 717.072 587.734 716.512 587.046 716.128C586.374 715.728 585.63 715.528 584.814 715.528C583.998 715.528 583.254 715.72 582.582 716.104C581.91 716.488 581.374 717.048 580.974 717.784C580.574 718.52 580.374 719.384 580.374 720.376C580.374 721.384 580.574 722.264 580.974 723.016C581.374 723.752 581.91 724.32 582.582 724.72C583.254 725.104 583.998 725.296 584.814 725.296C585.63 725.296 586.374 725.104 587.046 724.72C587.734 724.32 588.278 723.752 588.678 723.016C589.078 722.264 589.278 721.392 589.278 720.4ZM594.097 720.4C594.097 719.04 594.369 717.856 594.913 716.848C595.457 715.824 596.209 715.032 597.169 714.472C598.145 713.912 599.257 713.632 600.505 713.632C602.121 713.632 603.449 714.024 604.489 714.808C605.545 715.592 606.241 716.68 606.577 718.072H604.225C604.001 717.272 603.561 716.64 602.905 716.176C602.265 715.712 601.465 715.48 600.505 715.48C599.257 715.48 598.249 715.912 597.481 716.776C596.713 717.624 596.329 718.832 596.329 720.4C596.329 721.984 596.713 723.208 597.481 724.072C598.249 724.936 599.257 725.368 600.505 725.368C601.465 725.368 602.265 725.144 602.905 724.696C603.545 724.248 603.985 723.608 604.225 722.776H606.577C606.225 724.12 605.521 725.2 604.465 726.016C603.409 726.816 602.089 727.216 600.505 727.216C599.257 727.216 598.145 726.936 597.169 726.376C596.209 725.816 595.457 725.024 594.913 724C594.369 722.976 594.097 721.776 594.097 720.4ZM621.227 719.92C621.227 720.336 621.203 720.776 621.155 721.24H610.643C610.723 722.536 611.163 723.552 611.963 724.288C612.779 725.008 613.763 725.368 614.915 725.368C615.859 725.368 616.643 725.152 617.267 724.72C617.907 724.272 618.355 723.68 618.611 722.944H620.963C620.611 724.208 619.907 725.24 618.851 726.04C617.795 726.824 616.483 727.216 614.915 727.216C613.667 727.216 612.547 726.936 611.555 726.376C610.579 725.816 609.811 725.024 609.251 724C608.691 722.96 608.411 721.76 608.411 720.4C608.411 719.04 608.683 717.848 609.227 716.824C609.771 715.8 610.531 715.016 611.507 714.472C612.499 713.912 613.635 713.632 614.915 713.632C616.163 713.632 617.267 713.904 618.227 714.448C619.187 714.992 619.923 715.744 620.435 716.704C620.963 717.648 621.227 718.72 621.227 719.92ZM618.971 719.464C618.971 718.632 618.787 717.92 618.419 717.328C618.051 716.72 617.547 716.264 616.907 715.96C616.283 715.64 615.587 715.48 614.819 715.48C613.715 715.48 612.771 715.832 611.987 716.536C611.219 717.24 610.779 718.216 610.667 719.464H618.971ZM628.502 727.216C627.494 727.216 626.59 727.048 625.79 726.712C624.99 726.36 624.358 725.88 623.894 725.272C623.43 724.648 623.174 723.936 623.126 723.136H625.382C625.446 723.792 625.75 724.328 626.294 724.744C626.854 725.16 627.582 725.368 628.478 725.368C629.31 725.368 629.966 725.184 630.446 724.816C630.926 724.448 631.166 723.984 631.166 723.424C631.166 722.848 630.91 722.424 630.398 722.152C629.886 721.864 629.094 721.584 628.022 721.312C627.046 721.056 626.246 720.8 625.622 720.544C625.014 720.272 624.486 719.88 624.038 719.368C623.606 718.84 623.39 718.152 623.39 717.304C623.39 716.632 623.59 716.016 623.99 715.456C624.39 714.896 624.958 714.456 625.694 714.136C626.43 713.8 627.27 713.632 628.214 713.632C629.67 713.632 630.846 714 631.742 714.736C632.638 715.472 633.118 716.48 633.182 717.76H630.998C630.95 717.072 630.67 716.52 630.158 716.104C629.662 715.688 628.99 715.48 628.142 715.48C627.358 715.48 626.734 715.648 626.27 715.984C625.806 716.32 625.574 716.76 625.574 717.304C625.574 717.736 625.71 718.096 625.982 718.384C626.27 718.656 626.622 718.88 627.038 719.056C627.47 719.216 628.062 719.4 628.814 719.608C629.758 719.864 630.526 720.12 631.118 720.376C631.71 720.616 632.214 720.984 632.63 721.48C633.062 721.976 633.286 722.624 633.302 723.424C633.302 724.144 633.102 724.792 632.702 725.368C632.302 725.944 631.734 726.4 630.998 726.736C630.278 727.056 629.446 727.216 628.502 727.216ZM644.919 715.648V723.4C644.919 724.04 645.055 724.496 645.327 724.768C645.599 725.024 646.071 725.152 646.743 725.152H648.351V727H646.383C645.167 727 644.255 726.72 643.647 726.16C643.039 725.6 642.735 724.68 642.735 723.4V715.648H641.031V713.848H642.735V710.536H644.919V713.848H648.351V715.648H644.919ZM657.261 713.608C658.253 713.608 659.149 713.824 659.949 714.256C660.749 714.672 661.373 715.304 661.821 716.152C662.285 717 662.517 718.032 662.517 719.248V727H660.357V719.56C660.357 718.248 660.029 717.248 659.373 716.56C658.717 715.856 657.821 715.504 656.685 715.504C655.533 715.504 654.613 715.864 653.925 716.584C653.253 717.304 652.917 718.352 652.917 719.728V727H650.733V709.24H652.917V715.72C653.349 715.048 653.941 714.528 654.693 714.16C655.461 713.792 656.317 713.608 657.261 713.608ZM665.005 720.376C665.005 719.032 665.277 717.856 665.821 716.848C666.365 715.824 667.109 715.032 668.053 714.472C669.013 713.912 670.077 713.632 671.245 713.632C672.397 713.632 673.397 713.88 674.245 714.376C675.093 714.872 675.725 715.496 676.141 716.248V713.848H678.349V727H676.141V724.552C675.709 725.32 675.061 725.96 674.197 726.472C673.349 726.968 672.357 727.216 671.221 727.216C670.053 727.216 668.997 726.928 668.053 726.352C667.109 725.776 666.365 724.968 665.821 723.928C665.277 722.888 665.005 721.704 665.005 720.376ZM676.141 720.4C676.141 719.408 675.941 718.544 675.541 717.808C675.141 717.072 674.597 716.512 673.909 716.128C673.237 715.728 672.493 715.528 671.677 715.528C670.861 715.528 670.117 715.72 669.445 716.104C668.773 716.488 668.237 717.048 667.837 717.784C667.437 718.52 667.237 719.384 667.237 720.376C667.237 721.384 667.437 722.264 667.837 723.016C668.237 723.752 668.773 724.32 669.445 724.72C670.117 725.104 670.861 725.296 671.677 725.296C672.493 725.296 673.237 725.104 673.909 724.72C674.597 724.32 675.141 723.752 675.541 723.016C675.941 722.264 676.141 721.392 676.141 720.4ZM684.44 715.648V723.4C684.44 724.04 684.576 724.496 684.848 724.768C685.12 725.024 685.592 725.152 686.264 725.152H687.872V727H685.904C684.688 727 683.776 726.72 683.168 726.16C682.56 725.6 682.256 724.68 682.256 723.4V715.648H680.552V713.848H682.256V710.536H684.44V713.848H687.872V715.648H684.44ZM695.572 720.376C695.572 719.032 695.844 717.856 696.388 716.848C696.932 715.824 697.676 715.032 698.62 714.472C699.58 713.912 700.644 713.632 701.812 713.632C702.964 713.632 703.964 713.88 704.812 714.376C705.66 714.872 706.292 715.496 706.708 716.248V713.848H708.916V727H706.708V724.552C706.276 725.32 705.628 725.96 704.764 726.472C703.916 726.968 702.924 727.216 701.788 727.216C700.62 727.216 699.564 726.928 698.62 726.352C697.676 725.776 696.932 724.968 696.388 723.928C695.844 722.888 695.572 721.704 695.572 720.376ZM706.708 720.4C706.708 719.408 706.508 718.544 706.108 717.808C705.708 717.072 705.164 716.512 704.476 716.128C703.804 715.728 703.06 715.528 702.244 715.528C701.428 715.528 700.684 715.72 700.012 716.104C699.34 716.488 698.804 717.048 698.404 717.784C698.004 718.52 697.804 719.384 697.804 720.376C697.804 721.384 698.004 722.264 698.404 723.016C698.804 723.752 699.34 724.32 700.012 724.72C700.684 725.104 701.428 725.296 702.244 725.296C703.06 725.296 703.804 725.104 704.476 724.72C705.164 724.32 705.708 723.752 706.108 723.016C706.508 722.264 706.708 721.392 706.708 720.4ZM714.527 715.984C714.911 715.232 715.455 714.648 716.159 714.232C716.879 713.816 717.751 713.608 718.775 713.608V715.864H718.199C715.751 715.864 714.527 717.192 714.527 719.848V727H712.343V713.848H714.527V715.984ZM733.032 719.92C733.032 720.336 733.008 720.776 732.96 721.24H722.448C722.528 722.536 722.968 723.552 723.768 724.288C724.584 725.008 725.568 725.368 726.72 725.368C727.664 725.368 728.448 725.152 729.072 724.72C729.712 724.272 730.16 723.68 730.416 722.944H732.768C732.416 724.208 731.712 725.24 730.656 726.04C729.6 726.824 728.288 727.216 726.72 727.216C725.472 727.216 724.352 726.936 723.36 726.376C722.384 725.816 721.616 725.024 721.056 724C720.496 722.96 720.216 721.76 720.216 720.4C720.216 719.04 720.488 717.848 721.032 716.824C721.576 715.8 722.336 715.016 723.312 714.472C724.304 713.912 725.44 713.632 726.72 713.632C727.968 713.632 729.072 713.904 730.032 714.448C730.992 714.992 731.728 715.744 732.24 716.704C732.768 717.648 733.032 718.72 733.032 719.92ZM730.776 719.464C730.776 718.632 730.592 717.92 730.224 717.328C729.856 716.72 729.352 716.264 728.712 715.96C728.088 715.64 727.392 715.48 726.624 715.48C725.52 715.48 724.576 715.832 723.792 716.536C723.024 717.24 722.584 718.216 722.472 719.464H730.776ZM757.601 713.608C758.625 713.608 759.537 713.824 760.337 714.256C761.137 714.672 761.769 715.304 762.233 716.152C762.697 717 762.929 718.032 762.929 719.248V727H760.769V719.56C760.769 718.248 760.441 717.248 759.785 716.56C759.145 715.856 758.273 715.504 757.169 715.504C756.033 715.504 755.129 715.872 754.457 716.608C753.785 717.328 753.449 718.376 753.449 719.752V727H751.289V719.56C751.289 718.248 750.961 717.248 750.305 716.56C749.665 715.856 748.793 715.504 747.689 715.504C746.553 715.504 745.649 715.872 744.977 716.608C744.305 717.328 743.969 718.376 743.969 719.752V727H741.785V713.848H743.969V715.744C744.401 715.056 744.977 714.528 745.697 714.16C746.433 713.792 747.241 713.608 748.121 713.608C749.225 713.608 750.201 713.856 751.049 714.352C751.897 714.848 752.529 715.576 752.945 716.536C753.313 715.608 753.921 714.888 754.769 714.376C755.617 713.864 756.561 713.608 757.601 713.608ZM765.432 720.376C765.432 719.032 765.704 717.856 766.248 716.848C766.792 715.824 767.536 715.032 768.48 714.472C769.44 713.912 770.504 713.632 771.672 713.632C772.824 713.632 773.824 713.88 774.672 714.376C775.52 714.872 776.152 715.496 776.568 716.248V713.848H778.776V727H776.568V724.552C776.136 725.32 775.488 725.96 774.624 726.472C773.776 726.968 772.784 727.216 771.648 727.216C770.48 727.216 769.424 726.928 768.48 726.352C767.536 725.776 766.792 724.968 766.248 723.928C765.704 722.888 765.432 721.704 765.432 720.376ZM776.568 720.4C776.568 719.408 776.368 718.544 775.968 717.808C775.568 717.072 775.024 716.512 774.336 716.128C773.664 715.728 772.92 715.528 772.104 715.528C771.288 715.528 770.544 715.72 769.872 716.104C769.2 716.488 768.664 717.048 768.264 717.784C767.864 718.52 767.664 719.384 767.664 720.376C767.664 721.384 767.864 722.264 768.264 723.016C768.664 723.752 769.2 724.32 769.872 724.72C770.544 725.104 771.288 725.296 772.104 725.296C772.92 725.296 773.664 725.104 774.336 724.72C775.024 724.32 775.568 723.752 775.968 723.016C776.368 722.264 776.568 721.392 776.568 720.4ZM781.387 720.376C781.387 719.032 781.659 717.856 782.203 716.848C782.747 715.824 783.491 715.032 784.435 714.472C785.395 713.912 786.467 713.632 787.651 713.632C788.675 713.632 789.627 713.872 790.507 714.352C791.387 714.816 792.059 715.432 792.523 716.2V709.24H794.731V727H792.523V724.528C792.091 725.312 791.451 725.96 790.603 726.472C789.755 726.968 788.763 727.216 787.627 727.216C786.459 727.216 785.395 726.928 784.435 726.352C783.491 725.776 782.747 724.968 782.203 723.928C781.659 722.888 781.387 721.704 781.387 720.376ZM792.523 720.4C792.523 719.408 792.323 718.544 791.923 717.808C791.523 717.072 790.979 716.512 790.291 716.128C789.619 715.728 788.875 715.528 788.059 715.528C787.243 715.528 786.499 715.72 785.827 716.104C785.155 716.488 784.619 717.048 784.219 717.784C783.819 718.52 783.619 719.384 783.619 720.376C783.619 721.384 783.819 722.264 784.219 723.016C784.619 723.752 785.155 724.32 785.827 724.72C786.499 725.104 787.243 725.296 788.059 725.296C788.875 725.296 789.619 725.104 790.291 724.72C790.979 724.32 791.523 723.752 791.923 723.016C792.323 722.264 792.523 721.392 792.523 720.4ZM810.157 719.92C810.157 720.336 810.133 720.776 810.085 721.24H799.573C799.653 722.536 800.093 723.552 800.893 724.288C801.709 725.008 802.693 725.368 803.845 725.368C804.789 725.368 805.573 725.152 806.197 724.72C806.837 724.272 807.285 723.68 807.541 722.944H809.893C809.541 724.208 808.837 725.24 807.781 726.04C806.725 726.824 805.413 727.216 803.845 727.216C802.597 727.216 801.477 726.936 800.485 726.376C799.509 725.816 798.741 725.024 798.181 724C797.621 722.96 797.341 721.76 797.341 720.4C797.341 719.04 797.613 717.848 798.157 716.824C798.701 715.8 799.461 715.016 800.437 714.472C801.429 713.912 802.565 713.632 803.845 713.632C805.093 713.632 806.197 713.904 807.157 714.448C808.117 714.992 808.853 715.744 809.365 716.704C809.893 717.648 810.157 718.72 810.157 719.92ZM807.901 719.464C807.901 718.632 807.717 717.92 807.349 717.328C806.981 716.72 806.477 716.264 805.837 715.96C805.213 715.64 804.517 715.48 803.749 715.48C802.645 715.48 801.701 715.832 800.917 716.536C800.149 717.24 799.709 718.216 799.597 719.464H807.901ZM821.575 715.648V723.4C821.575 724.04 821.711 724.496 821.983 724.768C822.255 725.024 822.727 725.152 823.399 725.152H825.007V727H823.039C821.823 727 820.911 726.72 820.303 726.16C819.695 725.6 819.391 724.68 819.391 723.4V715.648H817.687V713.848H819.391V710.536H821.575V713.848H825.007V715.648H821.575ZM833.125 727.216C831.893 727.216 830.773 726.936 829.765 726.376C828.773 725.816 827.989 725.024 827.413 724C826.853 722.96 826.573 721.76 826.573 720.4C826.573 719.056 826.861 717.872 827.437 716.848C828.029 715.808 828.829 715.016 829.837 714.472C830.845 713.912 831.973 713.632 833.221 713.632C834.469 713.632 835.597 713.912 836.605 714.472C837.613 715.016 838.405 715.8 838.981 716.824C839.573 717.848 839.869 719.04 839.869 720.4C839.869 721.76 839.565 722.96 838.957 724C838.365 725.024 837.557 725.816 836.533 726.376C835.509 726.936 834.373 727.216 833.125 727.216ZM833.125 725.296C833.909 725.296 834.645 725.112 835.333 724.744C836.021 724.376 836.573 723.824 836.989 723.088C837.421 722.352 837.637 721.456 837.637 720.4C837.637 719.344 837.429 718.448 837.013 717.712C836.597 716.976 836.053 716.432 835.381 716.08C834.709 715.712 833.981 715.528 833.197 715.528C832.397 715.528 831.661 715.712 830.989 716.08C830.333 716.432 829.805 716.976 829.405 717.712C829.005 718.448 828.805 719.344 828.805 720.4C828.805 721.472 828.997 722.376 829.381 723.112C829.781 723.848 830.309 724.4 830.965 724.768C831.621 725.12 832.341 725.296 833.125 725.296ZM860.611 719.92C860.611 720.336 860.587 720.776 860.539 721.24H850.027C850.107 722.536 850.547 723.552 851.347 724.288C852.163 725.008 853.147 725.368 854.299 725.368C855.243 725.368 856.027 725.152 856.651 724.72C857.291 724.272 857.739 723.68 857.995 722.944H860.347C859.995 724.208 859.291 725.24 858.235 726.04C857.179 726.824 855.867 727.216 854.299 727.216C853.051 727.216 851.931 726.936 850.939 726.376C849.963 725.816 849.195 725.024 848.635 724C848.075 722.96 847.795 721.76 847.795 720.4C847.795 719.04 848.067 717.848 848.611 716.824C849.155 715.8 849.915 715.016 850.891 714.472C851.883 713.912 853.019 713.632 854.299 713.632C855.547 713.632 856.651 713.904 857.611 714.448C858.571 714.992 859.307 715.744 859.819 716.704C860.347 717.648 860.611 718.72 860.611 719.92ZM858.355 719.464C858.355 718.632 858.171 717.92 857.803 717.328C857.435 716.72 856.931 716.264 856.291 715.96C855.667 715.64 854.971 715.48 854.203 715.48C853.099 715.48 852.155 715.832 851.371 716.536C850.603 717.24 850.163 718.216 850.051 719.464H858.355ZM870.094 727L866.974 722.104L863.974 727H861.694L865.942 720.472L861.694 713.848H864.166L867.286 718.72L870.262 713.848H872.542L868.318 720.352L872.566 727H870.094ZM873.634 720.4C873.634 719.04 873.906 717.856 874.45 716.848C874.994 715.824 875.746 715.032 876.706 714.472C877.682 713.912 878.794 713.632 880.042 713.632C881.658 713.632 882.986 714.024 884.026 714.808C885.082 715.592 885.778 716.68 886.114 718.072H883.762C883.538 717.272 883.098 716.64 882.442 716.176C881.802 715.712 881.002 715.48 880.042 715.48C878.794 715.48 877.786 715.912 877.018 716.776C876.25 717.624 875.866 718.832 875.866 720.4C875.866 721.984 876.25 723.208 877.018 724.072C877.786 724.936 878.794 725.368 880.042 725.368C881.002 725.368 881.802 725.144 882.442 724.696C883.082 724.248 883.522 723.608 883.762 722.776H886.114C885.762 724.12 885.058 725.2 884.002 726.016C882.946 726.816 881.626 727.216 880.042 727.216C878.794 727.216 877.682 726.936 876.706 726.376C875.746 725.816 874.994 725.024 874.45 724C873.906 722.976 873.634 721.776 873.634 720.4ZM890.948 709.24V727H888.764V709.24H890.948ZM906.07 713.848V727H903.886V725.056C903.47 725.728 902.886 726.256 902.134 726.64C901.398 727.008 900.582 727.192 899.686 727.192C898.662 727.192 897.742 726.984 896.926 726.568C896.11 726.136 895.462 725.496 894.982 724.648C894.518 723.8 894.286 722.768 894.286 721.552V713.848H896.446V721.264C896.446 722.56 896.774 723.56 897.43 724.264C898.086 724.952 898.982 725.296 900.118 725.296C901.286 725.296 902.206 724.936 902.878 724.216C903.55 723.496 903.886 722.448 903.886 721.072V713.848H906.07ZM908.678 720.376C908.678 719.032 908.95 717.856 909.494 716.848C910.038 715.824 910.782 715.032 911.726 714.472C912.686 713.912 913.758 713.632 914.942 713.632C915.966 713.632 916.918 713.872 917.798 714.352C918.678 714.816 919.35 715.432 919.814 716.2V709.24H922.022V727H919.814V724.528C919.382 725.312 918.742 725.96 917.894 726.472C917.046 726.968 916.054 727.216 914.918 727.216C913.75 727.216 912.686 726.928 911.726 726.352C910.782 725.776 910.038 724.968 909.494 723.928C908.95 722.888 908.678 721.704 908.678 720.376ZM919.814 720.4C919.814 719.408 919.614 718.544 919.214 717.808C918.814 717.072 918.27 716.512 917.582 716.128C916.91 715.728 916.166 715.528 915.35 715.528C914.534 715.528 913.79 715.72 913.118 716.104C912.446 716.488 911.91 717.048 911.51 717.784C911.11 718.52 910.91 719.384 910.91 720.376C910.91 721.384 911.11 722.264 911.51 723.016C911.91 723.752 912.446 724.32 913.118 724.72C913.79 725.104 914.534 725.296 915.35 725.296C916.166 725.296 916.91 725.104 917.582 724.72C918.27 724.32 918.814 723.752 919.214 723.016C919.614 722.264 919.814 721.392 919.814 720.4ZM937.449 719.92C937.449 720.336 937.425 720.776 937.377 721.24H926.865C926.945 722.536 927.385 723.552 928.185 724.288C929.001 725.008 929.985 725.368 931.137 725.368C932.081 725.368 932.865 725.152 933.489 724.72C934.129 724.272 934.577 723.68 934.833 722.944H937.185C936.833 724.208 936.129 725.24 935.073 726.04C934.017 726.824 932.705 727.216 931.137 727.216C929.889 727.216 928.769 726.936 927.777 726.376C926.801 725.816 926.033 725.024 925.473 724C924.913 722.96 924.633 721.76 924.633 720.4C924.633 719.04 924.905 717.848 925.449 716.824C925.993 715.8 926.753 715.016 927.729 714.472C928.721 713.912 929.857 713.632 931.137 713.632C932.385 713.632 933.489 713.904 934.449 714.448C935.409 714.992 936.145 715.744 936.657 716.704C937.185 717.648 937.449 718.72 937.449 719.92ZM935.193 719.464C935.193 718.632 935.009 717.92 934.641 717.328C934.273 716.72 933.769 716.264 933.129 715.96C932.505 715.64 931.809 715.48 931.041 715.48C929.937 715.48 928.993 715.832 928.209 716.536C927.441 717.24 927.001 718.216 926.889 719.464H935.193ZM948.866 715.648V723.4C948.866 724.04 949.002 724.496 949.274 724.768C949.546 725.024 950.018 725.152 950.69 725.152H952.298V727H950.33C949.114 727 948.202 726.72 947.594 726.16C946.986 725.6 946.682 724.68 946.682 723.4V715.648H944.978V713.848H946.682V710.536H948.866V713.848H952.298V715.648H948.866ZM961.208 713.608C962.2 713.608 963.096 713.824 963.896 714.256C964.696 714.672 965.32 715.304 965.768 716.152C966.232 717 966.464 718.032 966.464 719.248V727H964.304V719.56C964.304 718.248 963.976 717.248 963.32 716.56C962.664 715.856 961.768 715.504 960.632 715.504C959.48 715.504 958.56 715.864 957.872 716.584C957.2 717.304 956.864 718.352 956.864 719.728V727H954.68V709.24H956.864V715.72C957.296 715.048 957.888 714.528 958.64 714.16C959.408 713.792 960.264 713.608 961.208 713.608ZM981.768 719.92C981.768 720.336 981.744 720.776 981.696 721.24H971.184C971.264 722.536 971.704 723.552 972.504 724.288C973.32 725.008 974.304 725.368 975.456 725.368C976.4 725.368 977.184 725.152 977.808 724.72C978.448 724.272 978.896 723.68 979.152 722.944H981.504C981.152 724.208 980.448 725.24 979.392 726.04C978.336 726.824 977.024 727.216 975.456 727.216C974.208 727.216 973.088 726.936 972.096 726.376C971.12 725.816 970.352 725.024 969.792 724C969.232 722.96 968.952 721.76 968.952 720.4C968.952 719.04 969.224 717.848 969.768 716.824C970.312 715.8 971.072 715.016 972.048 714.472C973.04 713.912 974.176 713.632 975.456 713.632C976.704 713.632 977.808 713.904 978.768 714.448C979.728 714.992 980.464 715.744 980.976 716.704C981.504 717.648 981.768 718.72 981.768 719.92ZM979.512 719.464C979.512 718.632 979.328 717.92 978.96 717.328C978.592 716.72 978.088 716.264 977.448 715.96C976.824 715.64 976.128 715.48 975.36 715.48C974.256 715.48 973.312 715.832 972.528 716.536C971.76 717.24 971.32 718.216 971.208 719.464H979.512ZM1000.2 713.608C1001.23 713.608 1002.14 713.824 1002.94 714.256C1003.74 714.672 1004.37 715.304 1004.83 716.152C1005.3 717 1005.53 718.032 1005.53 719.248V727H1003.37V719.56C1003.37 718.248 1003.04 717.248 1002.39 716.56C1001.75 715.856 1000.87 715.504 999.771 715.504C998.635 715.504 997.731 715.872 997.059 716.608C996.387 717.328 996.051 718.376 996.051 719.752V727H993.891V719.56C993.891 718.248 993.563 717.248 992.907 716.56C992.267 715.856 991.395 715.504 990.291 715.504C989.155 715.504 988.251 715.872 987.579 716.608C986.907 717.328 986.571 718.376 986.571 719.752V727H984.387V713.848H986.571V715.744C987.003 715.056 987.579 714.528 988.299 714.16C989.035 713.792 989.843 713.608 990.723 713.608C991.827 713.608 992.803 713.856 993.651 714.352C994.499 714.848 995.131 715.576 995.547 716.536C995.915 715.608 996.523 714.888 997.371 714.376C998.219 713.864 999.163 713.608 1000.2 713.608ZM1013.12 710.056C1014.71 710.056 1015.99 710.504 1016.96 711.4C1017.94 712.296 1018.43 713.496 1018.43 715C1018.43 716.68 1017.91 717.928 1016.87 718.744C1015.83 719.544 1014.42 719.944 1012.64 719.944L1012.57 722.224H1010.67L1010.58 718.432H1011.27C1012.86 718.432 1014.1 718.192 1014.99 717.712C1015.89 717.232 1016.34 716.328 1016.34 715C1016.34 714.04 1016.05 713.28 1015.47 712.72C1014.9 712.16 1014.12 711.88 1013.15 711.88C1012.15 711.88 1011.37 712.152 1010.79 712.696C1010.23 713.224 1009.95 713.952 1009.95 714.88H1007.89C1007.89 713.92 1008.11 713.08 1008.54 712.36C1008.97 711.624 1009.58 711.056 1010.36 710.656C1011.16 710.256 1012.08 710.056 1013.12 710.056ZM1011.61 727.144C1011.19 727.144 1010.84 727 1010.55 726.712C1010.27 726.424 1010.12 726.072 1010.12 725.656C1010.12 725.24 1010.27 724.888 1010.55 724.6C1010.84 724.312 1011.19 724.168 1011.61 724.168C1012.01 724.168 1012.35 724.312 1012.62 724.6C1012.91 724.888 1013.05 725.24 1013.05 725.656C1013.05 726.072 1012.91 726.424 1012.62 726.712C1012.35 727 1012.01 727.144 1011.61 727.144Z" fill="#FAFAFA"/>
<circle cx="326.041" cy="290.082" r="42.9796" fill="#FEC7C3" fill-opacity="0.5"/>
<path d="M324.704 336.677C326.035 334.885 328.724 334.901 330.034 336.709L399.068 431.958C400.652 434.143 399.09 437.204 396.391 437.204H256.576C253.858 437.204 252.301 434.107 253.922 431.926L324.704 336.677Z" fill="#FEC7C3" fill-opacity="0.5"/>
<circle cx="952.911" cy="286.775" r="42.9796" fill="#78ABCD" fill-opacity="0.5"/>
<path d="M951.574 433.588C952.905 435.38 955.594 435.364 956.904 433.557L1025.94 338.308C1027.52 336.122 1025.96 333.061 1023.26 333.061H883.446C880.728 333.061 879.171 336.158 880.792 338.339L951.574 433.588Z" fill="#78ABCD" fill-opacity="0.5"/>
<circle cx="474" cy="124" r="18" fill="#D4BEC6"/>
<circle cx="474" cy="175" r="18" fill="#D4BEC6"/>
<circle cx="474" cy="226" r="18" fill="#D4BEC6"/>
<circle cx="474" cy="277" r="18" fill="#D4BEC6"/>
<circle cx="474" cy="379" r="18" fill="#D4BEC6"/>
<circle cx="474" cy="430" r="18" fill="#D4BEC6"/>
<circle cx="474" cy="481" r="18" fill="#D4BEC6"/>
<circle cx="474" cy="532" r="18" fill="#D4BEC6"/>
<circle cx="539" cy="124" r="18" fill="#C9BCC6"/>
<circle cx="539" cy="175" r="18" fill="#C9BCC6"/>
<circle cx="539" cy="226" r="18" fill="#C9BCC6"/>
<circle cx="539" cy="277" r="18" fill="#C9BCC6"/>
<circle cx="539" cy="379" r="18" fill="#C9BCC6"/>
<circle cx="539" cy="430" r="18" fill="#C9BCC6"/>
<circle cx="539" cy="481" r="18" fill="#C9BCC6"/>
<circle cx="539" cy="532" r="18" fill="#C9BCC6"/>
<circle cx="604" cy="124" r="18" fill="#BFBAC8"/>
<circle cx="604" cy="175" r="18" fill="#BFBAC8"/>
<circle cx="604" cy="226" r="18" fill="#BFBAC8"/>
<circle cx="604" cy="277" r="18" fill="#BFBAC8"/>
<circle cx="604" cy="379" r="18" fill="#BFBAC8"/>
<circle cx="604" cy="430" r="18" fill="#BFBAC8"/>
<circle cx="604" cy="481" r="18" fill="#BFBAC8"/>
<circle cx="604" cy="532" r="18" fill="#BFBAC8"/>
<circle cx="669" cy="124" r="18" fill="#B5B7C8"/>
<circle cx="669" cy="175" r="18" fill="#B5B7C8"/>
<circle cx="669" cy="226" r="18" fill="#B5B7C8"/>
<circle cx="669" cy="277" r="18" fill="#B5B7C8"/>
<circle cx="669" cy="379" r="18" fill="#B5B7C8"/>
<circle cx="669" cy="430" r="18" fill="#B5B7C8"/>
<circle cx="669" cy="481" r="18" fill="#B5B7C8"/>
<circle cx="669" cy="532" r="18" fill="#B5B7C8"/>
<circle cx="734" cy="124" r="18" fill="#ACB6C9"/>
<circle cx="734" cy="175" r="18" fill="#ACB6C9"/>
<circle cx="734" cy="226" r="18" fill="#ACB6C9"/>
<circle cx="734" cy="277" r="18" fill="#ACB6C9"/>
<circle cx="734" cy="379" r="18" fill="#ACB6C9"/>
<circle cx="734" cy="430" r="18" fill="#ACB6C9"/>
<circle cx="734" cy="481" r="18" fill="#ACB6C9"/>
<circle cx="734" cy="532" r="18" fill="#ACB6C9"/>
<circle cx="799" cy="124" r="18" fill="#A1B3CA"/>
<circle cx="799" cy="175" r="18" fill="#A1B3CA"/>
<circle cx="799" cy="226" r="18" fill="#A1B3CA"/>
<circle cx="799" cy="277" r="18" fill="#A1B3CA"/>
<circle cx="799" cy="379" r="18" fill="#A1B3CA"/>
<circle cx="799" cy="430" r="18" fill="#A1B3CA"/>
<circle cx="799" cy="481" r="18" fill="#A1B3CA"/>
<circle cx="799" cy="532" r="18" fill="#A1B3CA"/>
<circle cx="474" cy="328" r="18" fill="#D4BEC6"/>
<circle cx="539" cy="328" r="18" fill="#C9BCC6"/>
<circle cx="604" cy="328" r="18" fill="#BFBAC8"/>
<circle cx="669" cy="328" r="18" fill="#B5B7C8"/>
<circle cx="734" cy="328" r="18" fill="#ACB6C9"/>
<circle cx="799" cy="328" r="18" fill="#A1B3CA"/>
</svg>
