<svg width="1280" height="832" viewBox="0 0 1280 832" fill="none" xmlns="http://www.w3.org/2000/svg">
<rect width="1280" height="832" fill="#0A0A0A"/>
<rect x="332" y="630" width="617" height="120" rx="24" fill="#141414"/>
<path d="M382.491 671.384C383.099 671.48 383.651 671.728 384.147 672.128C384.659 672.528 385.059 673.024 385.347 673.616C385.651 674.208 385.803 674.84 385.803 675.512C385.803 676.36 385.587 677.128 385.155 677.816C384.723 678.488 384.091 679.024 383.259 679.424C382.443 679.808 381.475 680 380.355 680H374.115V663.272H380.115C381.251 663.272 382.219 663.464 383.019 663.848C383.819 664.216 384.419 664.72 384.819 665.36C385.219 666 385.419 666.72 385.419 667.52C385.419 668.512 385.147 669.336 384.603 669.992C384.075 670.632 383.371 671.096 382.491 671.384ZM376.299 670.496H379.971C380.995 670.496 381.787 670.256 382.347 669.776C382.907 669.296 383.187 668.632 383.187 667.784C383.187 666.936 382.907 666.272 382.347 665.792C381.787 665.312 380.979 665.072 379.923 665.072H376.299V670.496ZM380.163 678.2C381.251 678.2 382.099 677.944 382.707 677.432C383.315 676.92 383.619 676.208 383.619 675.296C383.619 674.368 383.299 673.64 382.659 673.112C382.019 672.568 381.163 672.296 380.091 672.296H376.299V678.2H380.163ZM400.234 666.848V680H398.05V678.056C397.634 678.728 397.05 679.256 396.298 679.64C395.562 680.008 394.746 680.192 393.85 680.192C392.826 680.192 391.906 679.984 391.09 679.568C390.274 679.136 389.626 678.496 389.146 677.648C388.682 676.8 388.45 675.768 388.45 674.552V666.848H390.61V674.264C390.61 675.56 390.938 676.56 391.594 677.264C392.25 677.952 393.146 678.296 394.282 678.296C395.45 678.296 396.37 677.936 397.042 677.216C397.714 676.496 398.05 675.448 398.05 674.072V666.848H400.234ZM406.322 668.648V676.4C406.322 677.04 406.458 677.496 406.73 677.768C407.002 678.024 407.474 678.152 408.146 678.152H409.754V680H407.786C406.57 680 405.658 679.72 405.05 679.16C404.442 678.6 404.138 677.68 404.138 676.4V668.648H402.434V666.848H404.138V663.536H406.322V666.848H409.754V668.648H406.322ZM423.694 666.632C424.83 666.632 425.822 666.88 426.67 667.376C427.534 667.872 428.174 668.496 428.59 669.248V666.848H430.798V680.288C430.798 681.488 430.542 682.552 430.03 683.48C429.518 684.424 428.782 685.16 427.822 685.688C426.878 686.216 425.774 686.48 424.51 686.48C422.782 686.48 421.342 686.072 420.19 685.256C419.038 684.44 418.358 683.328 418.15 681.92H420.31C420.55 682.72 421.046 683.36 421.798 683.84C422.55 684.336 423.454 684.584 424.51 684.584C425.71 684.584 426.686 684.208 427.438 683.456C428.206 682.704 428.59 681.648 428.59 680.288V677.528C428.158 678.296 427.518 678.936 426.67 679.448C425.822 679.96 424.83 680.216 423.694 680.216C422.526 680.216 421.462 679.928 420.502 679.352C419.558 678.776 418.814 677.968 418.27 676.928C417.726 675.888 417.454 674.704 417.454 673.376C417.454 672.032 417.726 670.856 418.27 669.848C418.814 668.824 419.558 668.032 420.502 667.472C421.462 666.912 422.526 666.632 423.694 666.632ZM428.59 673.4C428.59 672.408 428.39 671.544 427.99 670.808C427.59 670.072 427.046 669.512 426.358 669.128C425.686 668.728 424.942 668.528 424.126 668.528C423.31 668.528 422.566 668.72 421.894 669.104C421.222 669.488 420.686 670.048 420.286 670.784C419.886 671.52 419.686 672.384 419.686 673.376C419.686 674.384 419.886 675.264 420.286 676.016C420.686 676.752 421.222 677.32 421.894 677.72C422.566 678.104 423.31 678.296 424.126 678.296C424.942 678.296 425.686 678.104 426.358 677.72C427.046 677.32 427.59 676.752 427.99 676.016C428.39 675.264 428.59 674.392 428.59 673.4ZM446.225 672.92C446.225 673.336 446.201 673.776 446.153 674.24H435.641C435.721 675.536 436.161 676.552 436.961 677.288C437.777 678.008 438.761 678.368 439.913 678.368C440.857 678.368 441.641 678.152 442.265 677.72C442.905 677.272 443.353 676.68 443.609 675.944H445.961C445.609 677.208 444.905 678.24 443.849 679.04C442.793 679.824 441.481 680.216 439.913 680.216C438.665 680.216 437.545 679.936 436.553 679.376C435.577 678.816 434.809 678.024 434.249 677C433.689 675.96 433.409 674.76 433.409 673.4C433.409 672.04 433.681 670.848 434.225 669.824C434.769 668.8 435.529 668.016 436.505 667.472C437.497 666.912 438.633 666.632 439.913 666.632C441.161 666.632 442.265 666.904 443.225 667.448C444.185 667.992 444.921 668.744 445.433 669.704C445.961 670.648 446.225 671.72 446.225 672.92ZM443.969 672.464C443.969 671.632 443.785 670.92 443.417 670.328C443.049 669.72 442.545 669.264 441.905 668.96C441.281 668.64 440.585 668.48 439.817 668.48C438.713 668.48 437.769 668.832 436.985 669.536C436.217 670.24 435.777 671.216 435.665 672.464H443.969ZM455.252 666.608C456.852 666.608 458.148 667.096 459.14 668.072C460.132 669.032 460.628 670.424 460.628 672.248V680H458.468V672.56C458.468 671.248 458.14 670.248 457.484 669.56C456.828 668.856 455.932 668.504 454.796 668.504C453.644 668.504 452.724 668.864 452.036 669.584C451.364 670.304 451.028 671.352 451.028 672.728V680H448.844V666.848H451.028V668.72C451.46 668.048 452.044 667.528 452.78 667.16C453.532 666.792 454.356 666.608 455.252 666.608ZM463.116 673.376C463.116 672.032 463.388 670.856 463.932 669.848C464.476 668.824 465.22 668.032 466.164 667.472C467.124 666.912 468.196 666.632 469.38 666.632C470.404 666.632 471.356 666.872 472.236 667.352C473.116 667.816 473.788 668.432 474.252 669.2V662.24H476.46V680H474.252V677.528C473.82 678.312 473.18 678.96 472.332 679.472C471.484 679.968 470.492 680.216 469.356 680.216C468.188 680.216 467.124 679.928 466.164 679.352C465.22 678.776 464.476 677.968 463.932 676.928C463.388 675.888 463.116 674.704 463.116 673.376ZM474.252 673.4C474.252 672.408 474.052 671.544 473.652 670.808C473.252 670.072 472.708 669.512 472.02 669.128C471.348 668.728 470.604 668.528 469.788 668.528C468.972 668.528 468.228 668.72 467.556 669.104C466.884 669.488 466.348 670.048 465.948 670.784C465.548 671.52 465.348 672.384 465.348 673.376C465.348 674.384 465.548 675.264 465.948 676.016C466.348 676.752 466.884 677.32 467.556 677.72C468.228 678.104 468.972 678.296 469.788 678.296C470.604 678.296 471.348 678.104 472.02 677.72C472.708 677.32 473.252 676.752 473.652 676.016C474.052 675.264 474.252 674.392 474.252 673.4ZM491.886 672.92C491.886 673.336 491.862 673.776 491.814 674.24H481.302C481.382 675.536 481.822 676.552 482.622 677.288C483.438 678.008 484.422 678.368 485.574 678.368C486.518 678.368 487.302 678.152 487.926 677.72C488.566 677.272 489.014 676.68 489.27 675.944H491.622C491.27 677.208 490.566 678.24 489.51 679.04C488.454 679.824 487.142 680.216 485.574 680.216C484.326 680.216 483.206 679.936 482.214 679.376C481.238 678.816 480.47 678.024 479.91 677C479.35 675.96 479.07 674.76 479.07 673.4C479.07 672.04 479.342 670.848 479.886 669.824C480.43 668.8 481.19 668.016 482.166 667.472C483.158 666.912 484.294 666.632 485.574 666.632C486.822 666.632 487.926 666.904 488.886 667.448C489.846 667.992 490.582 668.744 491.094 669.704C491.622 670.648 491.886 671.72 491.886 672.92ZM489.63 672.464C489.63 671.632 489.446 670.92 489.078 670.328C488.71 669.72 488.206 669.264 487.566 668.96C486.942 668.64 486.246 668.48 485.478 668.48C484.374 668.48 483.43 668.832 482.646 669.536C481.878 670.24 481.438 671.216 481.326 672.464H489.63ZM496.689 668.984C497.073 668.232 497.617 667.648 498.321 667.232C499.041 666.816 499.913 666.608 500.937 666.608V668.864H500.361C497.913 668.864 496.689 670.192 496.689 672.848V680H494.505V666.848H496.689V668.984ZM508.513 673.4C508.513 672.04 508.785 670.856 509.329 669.848C509.873 668.824 510.625 668.032 511.585 667.472C512.561 666.912 513.673 666.632 514.921 666.632C516.537 666.632 517.865 667.024 518.905 667.808C519.961 668.592 520.657 669.68 520.993 671.072H518.641C518.417 670.272 517.977 669.64 517.321 669.176C516.681 668.712 515.881 668.48 514.921 668.48C513.673 668.48 512.665 668.912 511.897 669.776C511.129 670.624 510.745 671.832 510.745 673.4C510.745 674.984 511.129 676.208 511.897 677.072C512.665 677.936 513.673 678.368 514.921 678.368C515.881 678.368 516.681 678.144 517.321 677.696C517.961 677.248 518.401 676.608 518.641 675.776H520.993C520.641 677.12 519.937 678.2 518.881 679.016C517.825 679.816 516.505 680.216 514.921 680.216C513.673 680.216 512.561 679.936 511.585 679.376C510.625 678.816 509.873 678.024 509.329 677C508.785 675.976 508.513 674.776 508.513 673.4ZM522.827 673.376C522.827 672.032 523.099 670.856 523.643 669.848C524.187 668.824 524.931 668.032 525.875 667.472C526.835 666.912 527.899 666.632 529.067 666.632C530.219 666.632 531.219 666.88 532.067 667.376C532.915 667.872 533.547 668.496 533.963 669.248V666.848H536.171V680H533.963V677.552C533.531 678.32 532.883 678.96 532.019 679.472C531.171 679.968 530.179 680.216 529.043 680.216C527.875 680.216 526.819 679.928 525.875 679.352C524.931 678.776 524.187 677.968 523.643 676.928C523.099 675.888 522.827 674.704 522.827 673.376ZM533.963 673.4C533.963 672.408 533.763 671.544 533.363 670.808C532.963 670.072 532.419 669.512 531.731 669.128C531.059 668.728 530.315 668.528 529.499 668.528C528.683 668.528 527.939 668.72 527.267 669.104C526.595 669.488 526.059 670.048 525.659 670.784C525.259 671.52 525.059 672.384 525.059 673.376C525.059 674.384 525.259 675.264 525.659 676.016C526.059 676.752 526.595 677.32 527.267 677.72C527.939 678.104 528.683 678.296 529.499 678.296C530.315 678.296 531.059 678.104 531.731 677.72C532.419 677.32 532.963 676.752 533.363 676.016C533.763 675.264 533.963 674.392 533.963 673.4ZM546.006 666.608C547.606 666.608 548.902 667.096 549.894 668.072C550.886 669.032 551.382 670.424 551.382 672.248V680H549.222V672.56C549.222 671.248 548.894 670.248 548.238 669.56C547.582 668.856 546.686 668.504 545.55 668.504C544.398 668.504 543.478 668.864 542.79 669.584C542.118 670.304 541.782 671.352 541.782 672.728V680H539.598V666.848H541.782V668.72C542.214 668.048 542.798 667.528 543.534 667.16C544.286 666.792 545.11 666.608 546.006 666.608ZM563.004 669.296C563.452 668.512 564.108 667.872 564.972 667.376C565.836 666.88 566.82 666.632 567.924 666.632C569.108 666.632 570.172 666.912 571.116 667.472C572.06 668.032 572.804 668.824 573.348 669.848C573.892 670.856 574.164 672.032 574.164 673.376C574.164 674.704 573.892 675.888 573.348 676.928C572.804 677.968 572.052 678.776 571.092 679.352C570.148 679.928 569.092 680.216 567.924 680.216C566.788 680.216 565.788 679.968 564.924 679.472C564.076 678.976 563.436 678.344 563.004 677.576V680H560.82V662.24H563.004V669.296ZM571.932 673.376C571.932 672.384 571.732 671.52 571.332 670.784C570.932 670.048 570.388 669.488 569.7 669.104C569.028 668.72 568.284 668.528 567.468 668.528C566.668 668.528 565.924 668.728 565.236 669.128C564.564 669.512 564.02 670.08 563.604 670.832C563.204 671.568 563.004 672.424 563.004 673.4C563.004 674.392 563.204 675.264 563.604 676.016C564.02 676.752 564.564 677.32 565.236 677.72C565.924 678.104 566.668 678.296 567.468 678.296C568.284 678.296 569.028 678.104 569.7 677.72C570.388 677.32 570.932 676.752 571.332 676.016C571.732 675.264 571.932 674.384 571.932 673.376ZM588.774 672.92C588.774 673.336 588.75 673.776 588.702 674.24H578.19C578.27 675.536 578.71 676.552 579.51 677.288C580.326 678.008 581.31 678.368 582.462 678.368C583.406 678.368 584.19 678.152 584.814 677.72C585.454 677.272 585.902 676.68 586.158 675.944H588.51C588.158 677.208 587.454 678.24 586.398 679.04C585.342 679.824 584.03 680.216 582.462 680.216C581.214 680.216 580.094 679.936 579.102 679.376C578.126 678.816 577.358 678.024 576.798 677C576.238 675.96 575.958 674.76 575.958 673.4C575.958 672.04 576.23 670.848 576.774 669.824C577.318 668.8 578.078 668.016 579.054 667.472C580.046 666.912 581.182 666.632 582.462 666.632C583.71 666.632 584.814 666.904 585.774 667.448C586.734 667.992 587.47 668.744 587.982 669.704C588.51 670.648 588.774 671.72 588.774 672.92ZM586.518 672.464C586.518 671.632 586.334 670.92 585.966 670.328C585.598 669.72 585.094 669.264 584.454 668.96C583.83 668.64 583.134 668.48 582.366 668.48C581.262 668.48 580.318 668.832 579.534 669.536C578.766 670.24 578.326 671.216 578.214 672.464H586.518ZM609.192 666.848V680H607.008V678.056C606.592 678.728 606.008 679.256 605.256 679.64C604.52 680.008 603.704 680.192 602.808 680.192C601.784 680.192 600.864 679.984 600.048 679.568C599.232 679.136 598.584 678.496 598.104 677.648C597.64 676.8 597.408 675.768 597.408 674.552V666.848H599.568V674.264C599.568 675.56 599.896 676.56 600.552 677.264C601.208 677.952 602.104 678.296 603.24 678.296C604.408 678.296 605.328 677.936 606 677.216C606.672 676.496 607.008 675.448 607.008 674.072V666.848H609.192ZM619.023 666.608C620.623 666.608 621.919 667.096 622.911 668.072C623.903 669.032 624.399 670.424 624.399 672.248V680H622.239V672.56C622.239 671.248 621.911 670.248 621.255 669.56C620.599 668.856 619.703 668.504 618.567 668.504C617.415 668.504 616.495 668.864 615.807 669.584C615.135 670.304 614.799 671.352 614.799 672.728V680H612.615V666.848H614.799V668.72C615.231 668.048 615.815 667.528 616.551 667.16C617.303 666.792 618.127 666.608 619.023 666.608ZM626.887 673.376C626.887 672.032 627.159 670.856 627.703 669.848C628.247 668.824 628.991 668.032 629.935 667.472C630.895 666.912 631.967 666.632 633.151 666.632C634.175 666.632 635.127 666.872 636.007 667.352C636.887 667.816 637.559 668.432 638.023 669.2V662.24H640.231V680H638.023V677.528C637.591 678.312 636.951 678.96 636.103 679.472C635.255 679.968 634.263 680.216 633.127 680.216C631.959 680.216 630.895 679.928 629.935 679.352C628.991 678.776 628.247 677.968 627.703 676.928C627.159 675.888 626.887 674.704 626.887 673.376ZM638.023 673.4C638.023 672.408 637.823 671.544 637.423 670.808C637.023 670.072 636.479 669.512 635.791 669.128C635.119 668.728 634.375 668.528 633.559 668.528C632.743 668.528 631.999 668.72 631.327 669.104C630.655 669.488 630.119 670.048 629.719 670.784C629.319 671.52 629.119 672.384 629.119 673.376C629.119 674.384 629.319 675.264 629.719 676.016C630.119 676.752 630.655 677.32 631.327 677.72C631.999 678.104 632.743 678.296 633.559 678.296C634.375 678.296 635.119 678.104 635.791 677.72C636.479 677.32 637.023 676.752 637.423 676.016C637.823 675.264 638.023 674.392 638.023 673.4ZM655.657 672.92C655.657 673.336 655.633 673.776 655.585 674.24H645.073C645.153 675.536 645.593 676.552 646.393 677.288C647.209 678.008 648.193 678.368 649.345 678.368C650.289 678.368 651.073 678.152 651.697 677.72C652.337 677.272 652.785 676.68 653.041 675.944H655.393C655.041 677.208 654.337 678.24 653.281 679.04C652.225 679.824 650.913 680.216 649.345 680.216C648.097 680.216 646.977 679.936 645.985 679.376C645.009 678.816 644.241 678.024 643.681 677C643.121 675.96 642.841 674.76 642.841 673.4C642.841 672.04 643.113 670.848 643.657 669.824C644.201 668.8 644.961 668.016 645.937 667.472C646.929 666.912 648.065 666.632 649.345 666.632C650.593 666.632 651.697 666.904 652.657 667.448C653.617 667.992 654.353 668.744 654.865 669.704C655.393 670.648 655.657 671.72 655.657 672.92ZM653.401 672.464C653.401 671.632 653.217 670.92 652.849 670.328C652.481 669.72 651.977 669.264 651.337 668.96C650.713 668.64 650.017 668.48 649.249 668.48C648.145 668.48 647.201 668.832 646.417 669.536C645.649 670.24 645.209 671.216 645.097 672.464H653.401ZM660.46 668.984C660.844 668.232 661.388 667.648 662.092 667.232C662.812 666.816 663.684 666.608 664.708 666.608V668.864H664.132C661.684 668.864 660.46 670.192 660.46 672.848V680H658.276V666.848H660.46V668.984ZM671.621 680.216C670.613 680.216 669.709 680.048 668.909 679.712C668.109 679.36 667.477 678.88 667.013 678.272C666.549 677.648 666.293 676.936 666.245 676.136H668.501C668.565 676.792 668.869 677.328 669.413 677.744C669.973 678.16 670.701 678.368 671.597 678.368C672.429 678.368 673.085 678.184 673.565 677.816C674.045 677.448 674.285 676.984 674.285 676.424C674.285 675.848 674.029 675.424 673.517 675.152C673.005 674.864 672.213 674.584 671.141 674.312C670.165 674.056 669.365 673.8 668.741 673.544C668.133 673.272 667.605 672.88 667.157 672.368C666.725 671.84 666.509 671.152 666.509 670.304C666.509 669.632 666.709 669.016 667.109 668.456C667.509 667.896 668.077 667.456 668.813 667.136C669.549 666.8 670.389 666.632 671.333 666.632C672.789 666.632 673.965 667 674.861 667.736C675.757 668.472 676.237 669.48 676.301 670.76H674.117C674.069 670.072 673.789 669.52 673.277 669.104C672.781 668.688 672.109 668.48 671.261 668.48C670.477 668.48 669.853 668.648 669.389 668.984C668.925 669.32 668.693 669.76 668.693 670.304C668.693 670.736 668.829 671.096 669.101 671.384C669.389 671.656 669.741 671.88 670.157 672.056C670.589 672.216 671.181 672.4 671.933 672.608C672.877 672.864 673.645 673.12 674.237 673.376C674.829 673.616 675.333 673.984 675.749 674.48C676.181 674.976 676.405 675.624 676.421 676.424C676.421 677.144 676.221 677.792 675.821 678.368C675.421 678.944 674.853 679.4 674.117 679.736C673.397 680.056 672.565 680.216 671.621 680.216ZM681.904 668.648V676.4C681.904 677.04 682.04 677.496 682.312 677.768C682.584 678.024 683.056 678.152 683.728 678.152H685.336V680H683.368C682.152 680 681.24 679.72 680.632 679.16C680.024 678.6 679.72 677.68 679.72 676.4V668.648H678.016V666.848H679.72V663.536H681.904V666.848H685.336V668.648H681.904ZM693.455 680.216C692.223 680.216 691.103 679.936 690.095 679.376C689.103 678.816 688.319 678.024 687.743 677C687.183 675.96 686.903 674.76 686.903 673.4C686.903 672.056 687.191 670.872 687.767 669.848C688.359 668.808 689.159 668.016 690.167 667.472C691.175 666.912 692.303 666.632 693.551 666.632C694.799 666.632 695.927 666.912 696.935 667.472C697.943 668.016 698.735 668.8 699.311 669.824C699.903 670.848 700.199 672.04 700.199 673.4C700.199 674.76 699.895 675.96 699.287 677C698.695 678.024 697.887 678.816 696.863 679.376C695.839 679.936 694.703 680.216 693.455 680.216ZM693.455 678.296C694.239 678.296 694.975 678.112 695.663 677.744C696.351 677.376 696.903 676.824 697.319 676.088C697.751 675.352 697.967 674.456 697.967 673.4C697.967 672.344 697.759 671.448 697.343 670.712C696.927 669.976 696.383 669.432 695.711 669.08C695.039 668.712 694.311 668.528 693.527 668.528C692.727 668.528 691.991 668.712 691.319 669.08C690.663 669.432 690.135 669.976 689.735 670.712C689.335 671.448 689.135 672.344 689.135 673.4C689.135 674.472 689.327 675.376 689.711 676.112C690.111 676.848 690.639 677.4 691.295 677.768C691.951 678.12 692.671 678.296 693.455 678.296ZM708.542 680.216C707.31 680.216 706.19 679.936 705.182 679.376C704.19 678.816 703.406 678.024 702.83 677C702.27 675.96 701.99 674.76 701.99 673.4C701.99 672.056 702.278 670.872 702.854 669.848C703.446 668.808 704.246 668.016 705.254 667.472C706.262 666.912 707.39 666.632 708.638 666.632C709.886 666.632 711.014 666.912 712.022 667.472C713.03 668.016 713.822 668.8 714.398 669.824C714.99 670.848 715.286 672.04 715.286 673.4C715.286 674.76 714.982 675.96 714.374 677C713.782 678.024 712.974 678.816 711.95 679.376C710.926 679.936 709.79 680.216 708.542 680.216ZM708.542 678.296C709.326 678.296 710.062 678.112 710.75 677.744C711.438 677.376 711.99 676.824 712.406 676.088C712.838 675.352 713.054 674.456 713.054 673.4C713.054 672.344 712.846 671.448 712.43 670.712C712.014 669.976 711.47 669.432 710.798 669.08C710.126 668.712 709.398 668.528 708.614 668.528C707.814 668.528 707.078 668.712 706.406 669.08C705.75 669.432 705.222 669.976 704.822 670.712C704.422 671.448 704.222 672.344 704.222 673.4C704.222 674.472 704.414 675.376 704.798 676.112C705.198 676.848 705.726 677.4 706.382 677.768C707.038 678.12 707.758 678.296 708.542 678.296ZM717.078 673.376C717.078 672.032 717.35 670.856 717.894 669.848C718.438 668.824 719.182 668.032 720.126 667.472C721.086 666.912 722.158 666.632 723.342 666.632C724.366 666.632 725.318 666.872 726.198 667.352C727.078 667.816 727.75 668.432 728.214 669.2V662.24H730.422V680H728.214V677.528C727.782 678.312 727.142 678.96 726.294 679.472C725.446 679.968 724.454 680.216 723.318 680.216C722.15 680.216 721.086 679.928 720.126 679.352C719.182 678.776 718.438 677.968 717.894 676.928C717.35 675.888 717.078 674.704 717.078 673.376ZM728.214 673.4C728.214 672.408 728.014 671.544 727.614 670.808C727.214 670.072 726.67 669.512 725.982 669.128C725.31 668.728 724.566 668.528 723.75 668.528C722.934 668.528 722.19 668.72 721.518 669.104C720.846 669.488 720.31 670.048 719.91 670.784C719.51 671.52 719.31 672.384 719.31 673.376C719.31 674.384 719.51 675.264 719.91 676.016C720.31 676.752 720.846 677.32 721.518 677.72C722.19 678.104 722.934 678.296 723.75 678.296C724.566 678.296 725.31 678.104 725.982 677.72C726.67 677.32 727.214 676.752 727.614 676.016C728.014 675.264 728.214 674.392 728.214 673.4ZM739.167 673.376C739.167 672.032 739.439 670.856 739.983 669.848C740.527 668.824 741.271 668.032 742.215 667.472C743.175 666.912 744.239 666.632 745.407 666.632C746.559 666.632 747.559 666.88 748.407 667.376C749.255 667.872 749.887 668.496 750.303 669.248V666.848H752.511V680H750.303V677.552C749.871 678.32 749.223 678.96 748.359 679.472C747.511 679.968 746.519 680.216 745.383 680.216C744.215 680.216 743.159 679.928 742.215 679.352C741.271 678.776 740.527 677.968 739.983 676.928C739.439 675.888 739.167 674.704 739.167 673.376ZM750.303 673.4C750.303 672.408 750.103 671.544 749.703 670.808C749.303 670.072 748.759 669.512 748.071 669.128C747.399 668.728 746.655 668.528 745.839 668.528C745.023 668.528 744.279 668.72 743.607 669.104C742.935 669.488 742.399 670.048 741.999 670.784C741.599 671.52 741.399 672.384 741.399 673.376C741.399 674.384 741.599 675.264 741.999 676.016C742.399 676.752 742.935 677.32 743.607 677.72C744.279 678.104 745.023 678.296 745.839 678.296C746.655 678.296 747.399 678.104 748.071 677.72C748.759 677.32 749.303 676.752 749.703 676.016C750.103 675.264 750.303 674.392 750.303 673.4ZM760.594 680.216C759.586 680.216 758.682 680.048 757.882 679.712C757.082 679.36 756.45 678.88 755.986 678.272C755.522 677.648 755.266 676.936 755.218 676.136H757.474C757.538 676.792 757.842 677.328 758.386 677.744C758.946 678.16 759.674 678.368 760.57 678.368C761.402 678.368 762.058 678.184 762.538 677.816C763.018 677.448 763.258 676.984 763.258 676.424C763.258 675.848 763.002 675.424 762.49 675.152C761.978 674.864 761.186 674.584 760.114 674.312C759.138 674.056 758.338 673.8 757.714 673.544C757.106 673.272 756.578 672.88 756.13 672.368C755.698 671.84 755.482 671.152 755.482 670.304C755.482 669.632 755.682 669.016 756.082 668.456C756.482 667.896 757.05 667.456 757.786 667.136C758.522 666.8 759.362 666.632 760.306 666.632C761.762 666.632 762.938 667 763.834 667.736C764.73 668.472 765.21 669.48 765.274 670.76H763.09C763.042 670.072 762.762 669.52 762.25 669.104C761.754 668.688 761.082 668.48 760.234 668.48C759.45 668.48 758.826 668.648 758.362 668.984C757.898 669.32 757.666 669.76 757.666 670.304C757.666 670.736 757.802 671.096 758.074 671.384C758.362 671.656 758.714 671.88 759.13 672.056C759.562 672.216 760.154 672.4 760.906 672.608C761.85 672.864 762.618 673.12 763.21 673.376C763.802 673.616 764.306 673.984 764.722 674.48C765.154 674.976 765.378 675.624 765.394 676.424C765.394 677.144 765.194 677.792 764.794 678.368C764.394 678.944 763.826 679.4 763.09 679.736C762.37 680.056 761.538 680.216 760.594 680.216ZM773.531 673.376C773.531 672.032 773.803 670.856 774.347 669.848C774.891 668.824 775.635 668.032 776.579 667.472C777.539 666.912 778.603 666.632 779.771 666.632C780.923 666.632 781.923 666.88 782.771 667.376C783.619 667.872 784.251 668.496 784.667 669.248V666.848H786.875V680H784.667V677.552C784.235 678.32 783.587 678.96 782.723 679.472C781.875 679.968 780.883 680.216 779.747 680.216C778.579 680.216 777.523 679.928 776.579 679.352C775.635 678.776 774.891 677.968 774.347 676.928C773.803 675.888 773.531 674.704 773.531 673.376ZM784.667 673.4C784.667 672.408 784.467 671.544 784.067 670.808C783.667 670.072 783.123 669.512 782.435 669.128C781.763 668.728 781.019 668.528 780.203 668.528C779.387 668.528 778.643 668.72 777.971 669.104C777.299 669.488 776.763 670.048 776.363 670.784C775.963 671.52 775.763 672.384 775.763 673.376C775.763 674.384 775.963 675.264 776.363 676.016C776.763 676.752 777.299 677.32 777.971 677.72C778.643 678.104 779.387 678.296 780.203 678.296C781.019 678.296 781.763 678.104 782.435 677.72C783.123 677.32 783.667 676.752 784.067 676.016C784.467 675.264 784.667 674.392 784.667 673.4ZM801.092 680.216C800.084 680.216 799.18 680.048 798.38 679.712C797.58 679.36 796.948 678.88 796.484 678.272C796.02 677.648 795.764 676.936 795.716 676.136H797.972C798.036 676.792 798.34 677.328 798.884 677.744C799.444 678.16 800.172 678.368 801.068 678.368C801.9 678.368 802.556 678.184 803.036 677.816C803.516 677.448 803.756 676.984 803.756 676.424C803.756 675.848 803.5 675.424 802.988 675.152C802.476 674.864 801.684 674.584 800.612 674.312C799.636 674.056 798.836 673.8 798.212 673.544C797.604 673.272 797.076 672.88 796.628 672.368C796.196 671.84 795.98 671.152 795.98 670.304C795.98 669.632 796.18 669.016 796.58 668.456C796.98 667.896 797.548 667.456 798.284 667.136C799.02 666.8 799.86 666.632 800.804 666.632C802.26 666.632 803.436 667 804.332 667.736C805.228 668.472 805.708 669.48 805.772 670.76H803.588C803.54 670.072 803.26 669.52 802.748 669.104C802.252 668.688 801.58 668.48 800.732 668.48C799.948 668.48 799.324 668.648 798.86 668.984C798.396 669.32 798.164 669.76 798.164 670.304C798.164 670.736 798.3 671.096 798.572 671.384C798.86 671.656 799.212 671.88 799.628 672.056C800.06 672.216 800.652 672.4 801.404 672.608C802.348 672.864 803.116 673.12 803.708 673.376C804.3 673.616 804.804 673.984 805.22 674.48C805.652 674.976 805.876 675.624 805.892 676.424C805.892 677.144 805.692 677.792 805.292 678.368C804.892 678.944 804.324 679.4 803.588 679.736C802.868 680.056 802.036 680.216 801.092 680.216ZM810.895 669.272C811.327 668.52 811.967 667.896 812.815 667.4C813.679 666.888 814.679 666.632 815.815 666.632C816.983 666.632 818.039 666.912 818.983 667.472C819.943 668.032 820.695 668.824 821.239 669.848C821.783 670.856 822.055 672.032 822.055 673.376C822.055 674.704 821.783 675.888 821.239 676.928C820.695 677.968 819.943 678.776 818.983 679.352C818.039 679.928 816.983 680.216 815.815 680.216C814.695 680.216 813.703 679.968 812.839 679.472C811.991 678.96 811.343 678.328 810.895 677.576V686.24H808.711V666.848H810.895V669.272ZM819.823 673.376C819.823 672.384 819.623 671.52 819.223 670.784C818.823 670.048 818.279 669.488 817.591 669.104C816.919 668.72 816.175 668.528 815.359 668.528C814.559 668.528 813.815 668.728 813.127 669.128C812.455 669.512 811.911 670.08 811.495 670.832C811.095 671.568 810.895 672.424 810.895 673.4C810.895 674.392 811.095 675.264 811.495 676.016C811.911 676.752 812.455 677.32 813.127 677.72C813.815 678.104 814.559 678.296 815.359 678.296C816.175 678.296 816.919 678.104 817.591 677.72C818.279 677.32 818.823 676.752 819.223 676.016C819.623 675.264 819.823 674.384 819.823 673.376ZM836.666 672.92C836.666 673.336 836.642 673.776 836.594 674.24H826.082C826.162 675.536 826.602 676.552 827.402 677.288C828.218 678.008 829.202 678.368 830.354 678.368C831.298 678.368 832.082 678.152 832.706 677.72C833.346 677.272 833.794 676.68 834.05 675.944H836.402C836.05 677.208 835.346 678.24 834.29 679.04C833.234 679.824 831.922 680.216 830.354 680.216C829.106 680.216 827.986 679.936 826.994 679.376C826.018 678.816 825.25 678.024 824.69 677C824.13 675.96 823.85 674.76 823.85 673.4C823.85 672.04 824.122 670.848 824.666 669.824C825.21 668.8 825.97 668.016 826.946 667.472C827.938 666.912 829.074 666.632 830.354 666.632C831.602 666.632 832.706 666.904 833.666 667.448C834.626 667.992 835.362 668.744 835.874 669.704C836.402 670.648 836.666 671.72 836.666 672.92ZM834.41 672.464C834.41 671.632 834.226 670.92 833.858 670.328C833.49 669.72 832.986 669.264 832.346 668.96C831.722 668.64 831.026 668.48 830.258 668.48C829.154 668.48 828.21 668.832 827.426 669.536C826.658 670.24 826.218 671.216 826.106 672.464H834.41ZM838.469 673.4C838.469 672.04 838.741 670.856 839.285 669.848C839.829 668.824 840.581 668.032 841.541 667.472C842.517 666.912 843.629 666.632 844.877 666.632C846.493 666.632 847.821 667.024 848.861 667.808C849.917 668.592 850.613 669.68 850.949 671.072H848.597C848.373 670.272 847.933 669.64 847.277 669.176C846.637 668.712 845.837 668.48 844.877 668.48C843.629 668.48 842.621 668.912 841.853 669.776C841.085 670.624 840.701 671.832 840.701 673.4C840.701 674.984 841.085 676.208 841.853 677.072C842.621 677.936 843.629 678.368 844.877 678.368C845.837 678.368 846.637 678.144 847.277 677.696C847.917 677.248 848.357 676.608 848.597 675.776H850.949C850.597 677.12 849.893 678.2 848.837 679.016C847.781 679.816 846.461 680.216 844.877 680.216C843.629 680.216 842.517 679.936 841.541 679.376C840.581 678.816 839.829 678.024 839.285 677C838.741 675.976 838.469 674.776 838.469 673.4ZM856.263 668.648V676.4C856.263 677.04 856.399 677.496 856.671 677.768C856.943 678.024 857.415 678.152 858.087 678.152H859.695V680H857.727C856.511 680 855.599 679.72 854.991 679.16C854.383 678.6 854.079 677.68 854.079 676.4V668.648H852.375V666.848H854.079V663.536H856.263V666.848H859.695V668.648H856.263ZM864.261 668.984C864.645 668.232 865.189 667.648 865.893 667.232C866.613 666.816 867.485 666.608 868.509 666.608V668.864H867.933C865.485 668.864 864.261 670.192 864.261 672.848V680H862.077V666.848H864.261V668.984ZM882.43 666.848V680H880.246V678.056C879.83 678.728 879.246 679.256 878.494 679.64C877.758 680.008 876.942 680.192 876.046 680.192C875.022 680.192 874.102 679.984 873.286 679.568C872.47 679.136 871.822 678.496 871.342 677.648C870.878 676.8 870.646 675.768 870.646 674.552V666.848H872.806V674.264C872.806 675.56 873.134 676.56 873.79 677.264C874.446 677.952 875.342 678.296 876.478 678.296C877.646 678.296 878.566 677.936 879.238 677.216C879.91 676.496 880.246 675.448 880.246 674.072V666.848H882.43ZM901.67 666.608C902.694 666.608 903.606 666.824 904.406 667.256C905.206 667.672 905.838 668.304 906.302 669.152C906.766 670 906.998 671.032 906.998 672.248V680H904.838V672.56C904.838 671.248 904.51 670.248 903.854 669.56C903.214 668.856 902.342 668.504 901.238 668.504C900.102 668.504 899.198 668.872 898.526 669.608C897.854 670.328 897.518 671.376 897.518 672.752V680H895.358V672.56C895.358 671.248 895.03 670.248 894.374 669.56C893.734 668.856 892.862 668.504 891.758 668.504C890.622 668.504 889.718 668.872 889.046 669.608C888.374 670.328 888.038 671.376 888.038 672.752V680H885.854V666.848H888.038V668.744C888.47 668.056 889.046 667.528 889.766 667.16C890.502 666.792 891.31 666.608 892.19 666.608C893.294 666.608 894.27 666.856 895.118 667.352C895.966 667.848 896.598 668.576 897.014 669.536C897.382 668.608 897.99 667.888 898.838 667.376C899.686 666.864 900.63 666.608 901.67 666.608ZM444.994 709.376C444.994 708.032 445.266 706.856 445.81 705.848C446.354 704.824 447.098 704.032 448.042 703.472C449.002 702.912 450.066 702.632 451.234 702.632C452.386 702.632 453.386 702.88 454.234 703.376C455.082 703.872 455.714 704.496 456.13 705.248V702.848H458.338V716H456.13V713.552C455.698 714.32 455.05 714.96 454.186 715.472C453.338 715.968 452.346 716.216 451.21 716.216C450.042 716.216 448.986 715.928 448.042 715.352C447.098 714.776 446.354 713.968 445.81 712.928C445.266 711.888 444.994 710.704 444.994 709.376ZM456.13 709.4C456.13 708.408 455.93 707.544 455.53 706.808C455.13 706.072 454.586 705.512 453.898 705.128C453.226 704.728 452.482 704.528 451.666 704.528C450.85 704.528 450.106 704.72 449.434 705.104C448.762 705.488 448.226 706.048 447.826 706.784C447.426 707.52 447.226 708.384 447.226 709.376C447.226 710.384 447.426 711.264 447.826 712.016C448.226 712.752 448.762 713.32 449.434 713.72C450.106 714.104 450.85 714.296 451.666 714.296C452.482 714.296 453.226 714.104 453.898 713.72C454.586 713.32 455.13 712.752 455.53 712.016C455.93 711.264 456.13 710.392 456.13 709.4ZM468.173 702.608C469.773 702.608 471.069 703.096 472.061 704.072C473.053 705.032 473.549 706.424 473.549 708.248V716H471.389V708.56C471.389 707.248 471.061 706.248 470.405 705.56C469.749 704.856 468.853 704.504 467.717 704.504C466.565 704.504 465.645 704.864 464.957 705.584C464.285 706.304 463.949 707.352 463.949 708.728V716H461.765V702.848H463.949V704.72C464.381 704.048 464.965 703.528 465.701 703.16C466.453 702.792 467.277 702.608 468.173 702.608ZM476.036 709.376C476.036 708.032 476.308 706.856 476.852 705.848C477.396 704.824 478.14 704.032 479.084 703.472C480.044 702.912 481.116 702.632 482.3 702.632C483.324 702.632 484.276 702.872 485.156 703.352C486.036 703.816 486.708 704.432 487.172 705.2V698.24H489.38V716H487.172V713.528C486.74 714.312 486.1 714.96 485.252 715.472C484.404 715.968 483.412 716.216 482.276 716.216C481.108 716.216 480.044 715.928 479.084 715.352C478.14 714.776 477.396 713.968 476.852 712.928C476.308 711.888 476.036 710.704 476.036 709.376ZM487.172 709.4C487.172 708.408 486.972 707.544 486.572 706.808C486.172 706.072 485.628 705.512 484.94 705.128C484.268 704.728 483.524 704.528 482.708 704.528C481.892 704.528 481.148 704.72 480.476 705.104C479.804 705.488 479.268 706.048 478.868 706.784C478.468 707.52 478.268 708.384 478.268 709.376C478.268 710.384 478.468 711.264 478.868 712.016C479.268 712.752 479.804 713.32 480.476 713.72C481.148 714.104 481.892 714.296 482.708 714.296C483.524 714.296 484.268 714.104 484.94 713.72C485.628 713.32 486.172 712.752 486.572 712.016C486.972 711.264 487.172 710.392 487.172 709.4ZM501.126 705.272C501.558 704.52 502.198 703.896 503.046 703.4C503.91 702.888 504.91 702.632 506.046 702.632C507.214 702.632 508.27 702.912 509.214 703.472C510.174 704.032 510.926 704.824 511.47 705.848C512.014 706.856 512.286 708.032 512.286 709.376C512.286 710.704 512.014 711.888 511.47 712.928C510.926 713.968 510.174 714.776 509.214 715.352C508.27 715.928 507.214 716.216 506.046 716.216C504.926 716.216 503.934 715.968 503.07 715.472C502.222 714.96 501.574 714.328 501.126 713.576V722.24H498.942V702.848H501.126V705.272ZM510.054 709.376C510.054 708.384 509.854 707.52 509.454 706.784C509.054 706.048 508.51 705.488 507.822 705.104C507.15 704.72 506.406 704.528 505.59 704.528C504.79 704.528 504.046 704.728 503.358 705.128C502.686 705.512 502.142 706.08 501.726 706.832C501.326 707.568 501.126 708.424 501.126 709.4C501.126 710.392 501.326 711.264 501.726 712.016C502.142 712.752 502.686 713.32 503.358 713.72C504.046 714.104 504.79 714.296 505.59 714.296C506.406 714.296 507.15 714.104 507.822 713.72C508.51 713.32 509.054 712.752 509.454 712.016C509.854 711.264 510.054 710.384 510.054 709.376ZM526.896 708.92C526.896 709.336 526.872 709.776 526.824 710.24H516.312C516.392 711.536 516.832 712.552 517.632 713.288C518.448 714.008 519.432 714.368 520.584 714.368C521.528 714.368 522.312 714.152 522.936 713.72C523.576 713.272 524.024 712.68 524.28 711.944H526.632C526.28 713.208 525.576 714.24 524.52 715.04C523.464 715.824 522.152 716.216 520.584 716.216C519.336 716.216 518.216 715.936 517.224 715.376C516.248 714.816 515.48 714.024 514.92 713C514.36 711.96 514.08 710.76 514.08 709.4C514.08 708.04 514.352 706.848 514.896 705.824C515.44 704.8 516.2 704.016 517.176 703.472C518.168 702.912 519.304 702.632 520.584 702.632C521.832 702.632 522.936 702.904 523.896 703.448C524.856 703.992 525.592 704.744 526.104 705.704C526.632 706.648 526.896 707.72 526.896 708.92ZM524.64 708.464C524.64 707.632 524.456 706.92 524.088 706.328C523.72 705.72 523.216 705.264 522.576 704.96C521.952 704.64 521.256 704.48 520.488 704.48C519.384 704.48 518.44 704.832 517.656 705.536C516.888 706.24 516.448 707.216 516.336 708.464H524.64ZM535.251 716.216C534.019 716.216 532.899 715.936 531.891 715.376C530.899 714.816 530.115 714.024 529.539 713C528.979 711.96 528.699 710.76 528.699 709.4C528.699 708.056 528.987 706.872 529.563 705.848C530.155 704.808 530.955 704.016 531.963 703.472C532.971 702.912 534.099 702.632 535.347 702.632C536.595 702.632 537.723 702.912 538.731 703.472C539.739 704.016 540.531 704.8 541.107 705.824C541.699 706.848 541.995 708.04 541.995 709.4C541.995 710.76 541.691 711.96 541.083 713C540.491 714.024 539.683 714.816 538.659 715.376C537.635 715.936 536.499 716.216 535.251 716.216ZM535.251 714.296C536.035 714.296 536.771 714.112 537.459 713.744C538.147 713.376 538.699 712.824 539.115 712.088C539.547 711.352 539.763 710.456 539.763 709.4C539.763 708.344 539.555 707.448 539.139 706.712C538.723 705.976 538.179 705.432 537.507 705.08C536.835 704.712 536.107 704.528 535.323 704.528C534.523 704.528 533.787 704.712 533.115 705.08C532.459 705.432 531.931 705.976 531.531 706.712C531.131 707.448 530.931 708.344 530.931 709.4C530.931 710.472 531.123 711.376 531.507 712.112C531.907 712.848 532.435 713.4 533.091 713.768C533.747 714.12 534.467 714.296 535.251 714.296ZM546.787 705.272C547.219 704.52 547.859 703.896 548.707 703.4C549.571 702.888 550.571 702.632 551.707 702.632C552.875 702.632 553.931 702.912 554.875 703.472C555.835 704.032 556.587 704.824 557.131 705.848C557.675 706.856 557.947 708.032 557.947 709.376C557.947 710.704 557.675 711.888 557.131 712.928C556.587 713.968 555.835 714.776 554.875 715.352C553.931 715.928 552.875 716.216 551.707 716.216C550.587 716.216 549.595 715.968 548.731 715.472C547.883 714.96 547.235 714.328 546.787 713.576V722.24H544.603V702.848H546.787V705.272ZM555.715 709.376C555.715 708.384 555.515 707.52 555.115 706.784C554.715 706.048 554.171 705.488 553.483 705.104C552.811 704.72 552.067 704.528 551.251 704.528C550.451 704.528 549.707 704.728 549.019 705.128C548.347 705.512 547.803 706.08 547.387 706.832C546.987 707.568 546.787 708.424 546.787 709.4C546.787 710.392 546.987 711.264 547.387 712.016C547.803 712.752 548.347 713.32 549.019 713.72C549.707 714.104 550.451 714.296 551.251 714.296C552.067 714.296 552.811 714.104 553.483 713.72C554.171 713.32 554.715 712.752 555.115 712.016C555.515 711.264 555.715 710.384 555.715 709.376ZM562.742 698.24V716H560.558V698.24H562.742ZM578.2 708.92C578.2 709.336 578.176 709.776 578.128 710.24H567.616C567.696 711.536 568.136 712.552 568.936 713.288C569.752 714.008 570.736 714.368 571.888 714.368C572.832 714.368 573.616 714.152 574.24 713.72C574.88 713.272 575.328 712.68 575.584 711.944H577.936C577.584 713.208 576.88 714.24 575.824 715.04C574.768 715.824 573.456 716.216 571.888 716.216C570.64 716.216 569.52 715.936 568.528 715.376C567.552 714.816 566.784 714.024 566.224 713C565.664 711.96 565.384 710.76 565.384 709.4C565.384 708.04 565.656 706.848 566.2 705.824C566.744 704.8 567.504 704.016 568.48 703.472C569.472 702.912 570.608 702.632 571.888 702.632C573.136 702.632 574.24 702.904 575.2 703.448C576.16 703.992 576.896 704.744 577.408 705.704C577.936 706.648 578.2 707.72 578.2 708.92ZM575.944 708.464C575.944 707.632 575.76 706.92 575.392 706.328C575.024 705.72 574.52 705.264 573.88 704.96C573.256 704.64 572.56 704.48 571.792 704.48C570.688 704.48 569.744 704.832 568.96 705.536C568.192 706.24 567.752 707.216 567.64 708.464H575.944ZM592.305 704.648H589.545V716H587.361V704.648H585.657V702.848H587.361V701.912C587.361 700.44 587.737 699.368 588.489 698.696C589.257 698.008 590.481 697.664 592.161 697.664V699.488C591.201 699.488 590.521 699.68 590.121 700.064C589.737 700.432 589.545 701.048 589.545 701.912V702.848H592.305V704.648ZM593.771 709.376C593.771 708.032 594.043 706.856 594.587 705.848C595.131 704.824 595.875 704.032 596.819 703.472C597.779 702.912 598.843 702.632 600.011 702.632C601.163 702.632 602.163 702.88 603.011 703.376C603.859 703.872 604.491 704.496 604.907 705.248V702.848H607.115V716H604.907V713.552C604.475 714.32 603.827 714.96 602.963 715.472C602.115 715.968 601.123 716.216 599.987 716.216C598.819 716.216 597.763 715.928 596.819 715.352C595.875 714.776 595.131 713.968 594.587 712.928C594.043 711.888 593.771 710.704 593.771 709.376ZM604.907 709.4C604.907 708.408 604.707 707.544 604.307 706.808C603.907 706.072 603.363 705.512 602.675 705.128C602.003 704.728 601.259 704.528 600.443 704.528C599.627 704.528 598.883 704.72 598.211 705.104C597.539 705.488 597.003 706.048 596.603 706.784C596.203 707.52 596.003 708.384 596.003 709.376C596.003 710.384 596.203 711.264 596.603 712.016C597.003 712.752 597.539 713.32 598.211 713.72C598.883 714.104 599.627 714.296 600.443 714.296C601.259 714.296 602.003 714.104 602.675 713.72C603.363 713.32 603.907 712.752 604.307 712.016C604.707 711.264 604.907 710.392 604.907 709.4ZM612.726 698.24V716H610.542V698.24H612.726ZM618.368 698.24V716H616.184V698.24H618.368ZM633.697 716.216C632.465 716.216 631.345 715.936 630.337 715.376C629.345 714.816 628.561 714.024 627.985 713C627.425 711.96 627.145 710.76 627.145 709.4C627.145 708.056 627.433 706.872 628.009 705.848C628.601 704.808 629.401 704.016 630.409 703.472C631.417 702.912 632.545 702.632 633.793 702.632C635.041 702.632 636.169 702.912 637.177 703.472C638.185 704.016 638.977 704.8 639.553 705.824C640.145 706.848 640.441 708.04 640.441 709.4C640.441 710.76 640.137 711.96 639.529 713C638.937 714.024 638.129 714.816 637.105 715.376C636.081 715.936 634.945 716.216 633.697 716.216ZM633.697 714.296C634.481 714.296 635.217 714.112 635.905 713.744C636.593 713.376 637.145 712.824 637.561 712.088C637.993 711.352 638.209 710.456 638.209 709.4C638.209 708.344 638.001 707.448 637.585 706.712C637.169 705.976 636.625 705.432 635.953 705.08C635.281 704.712 634.553 704.528 633.769 704.528C632.969 704.528 632.233 704.712 631.561 705.08C630.905 705.432 630.377 705.976 629.977 706.712C629.577 707.448 629.377 708.344 629.377 709.4C629.377 710.472 629.569 711.376 629.953 712.112C630.353 712.848 630.881 713.4 631.537 713.768C632.193 714.12 632.913 714.296 633.697 714.296ZM649.457 702.608C651.057 702.608 652.353 703.096 653.345 704.072C654.337 705.032 654.833 706.424 654.833 708.248V716H652.673V708.56C652.673 707.248 652.345 706.248 651.689 705.56C651.033 704.856 650.137 704.504 649.001 704.504C647.849 704.504 646.929 704.864 646.241 705.584C645.569 706.304 645.233 707.352 645.233 708.728V716H643.049V702.848H645.233V704.72C645.665 704.048 646.249 703.528 646.985 703.16C647.737 702.792 648.561 702.608 649.457 702.608ZM663.455 709.376C663.455 708.032 663.727 706.856 664.271 705.848C664.815 704.824 665.559 704.032 666.503 703.472C667.463 702.912 668.527 702.632 669.695 702.632C670.847 702.632 671.847 702.88 672.695 703.376C673.543 703.872 674.175 704.496 674.591 705.248V702.848H676.799V716H674.591V713.552C674.159 714.32 673.511 714.96 672.647 715.472C671.799 715.968 670.807 716.216 669.671 716.216C668.503 716.216 667.447 715.928 666.503 715.352C665.559 714.776 664.815 713.968 664.271 712.928C663.727 711.888 663.455 710.704 663.455 709.376ZM674.591 709.4C674.591 708.408 674.391 707.544 673.991 706.808C673.591 706.072 673.047 705.512 672.359 705.128C671.687 704.728 670.943 704.528 670.127 704.528C669.311 704.528 668.567 704.72 667.895 705.104C667.223 705.488 666.687 706.048 666.287 706.784C665.887 707.52 665.687 708.384 665.687 709.376C665.687 710.384 665.887 711.264 666.287 712.016C666.687 712.752 667.223 713.32 667.895 713.72C668.567 714.104 669.311 714.296 670.127 714.296C670.943 714.296 671.687 714.104 672.359 713.72C673.047 713.32 673.591 712.752 673.991 712.016C674.391 711.264 674.591 710.392 674.591 709.4ZM682.409 698.24V716H680.225V698.24H682.409ZM688.052 698.24V716H685.868V698.24H688.052ZM699.828 704.984C700.212 704.232 700.756 703.648 701.46 703.232C702.18 702.816 703.052 702.608 704.076 702.608V704.864H703.5C701.052 704.864 699.828 706.192 699.828 708.848V716H697.644V702.848H699.828V704.984ZM718.334 708.92C718.334 709.336 718.31 709.776 718.262 710.24H707.75C707.83 711.536 708.27 712.552 709.07 713.288C709.886 714.008 710.87 714.368 712.022 714.368C712.966 714.368 713.75 714.152 714.374 713.72C715.014 713.272 715.462 712.68 715.718 711.944H718.07C717.718 713.208 717.014 714.24 715.958 715.04C714.902 715.824 713.59 716.216 712.022 716.216C710.774 716.216 709.654 715.936 708.662 715.376C707.686 714.816 706.918 714.024 706.358 713C705.798 711.96 705.518 710.76 705.518 709.4C705.518 708.04 705.79 706.848 706.334 705.824C706.878 704.8 707.638 704.016 708.614 703.472C709.606 702.912 710.742 702.632 712.022 702.632C713.27 702.632 714.374 702.904 715.334 703.448C716.294 703.992 717.03 704.744 717.542 705.704C718.07 706.648 718.334 707.72 718.334 708.92ZM716.078 708.464C716.078 707.632 715.894 706.92 715.526 706.328C715.158 705.72 714.654 705.264 714.014 704.96C713.39 704.64 712.694 704.48 711.926 704.48C710.822 704.48 709.878 704.832 709.094 705.536C708.326 706.24 707.886 707.216 707.774 708.464H716.078ZM726.376 702.632C727.512 702.632 728.504 702.88 729.352 703.376C730.216 703.872 730.856 704.496 731.272 705.248V702.848H733.48V716.288C733.48 717.488 733.224 718.552 732.712 719.48C732.2 720.424 731.464 721.16 730.504 721.688C729.56 722.216 728.456 722.48 727.192 722.48C725.464 722.48 724.024 722.072 722.872 721.256C721.72 720.44 721.04 719.328 720.832 717.92H722.992C723.232 718.72 723.728 719.36 724.48 719.84C725.232 720.336 726.136 720.584 727.192 720.584C728.392 720.584 729.368 720.208 730.12 719.456C730.888 718.704 731.272 717.648 731.272 716.288V713.528C730.84 714.296 730.2 714.936 729.352 715.448C728.504 715.96 727.512 716.216 726.376 716.216C725.208 716.216 724.144 715.928 723.184 715.352C722.24 714.776 721.496 713.968 720.952 712.928C720.408 711.888 720.136 710.704 720.136 709.376C720.136 708.032 720.408 706.856 720.952 705.848C721.496 704.824 722.24 704.032 723.184 703.472C724.144 702.912 725.208 702.632 726.376 702.632ZM731.272 709.4C731.272 708.408 731.072 707.544 730.672 706.808C730.272 706.072 729.728 705.512 729.04 705.128C728.368 704.728 727.624 704.528 726.808 704.528C725.992 704.528 725.248 704.72 724.576 705.104C723.904 705.488 723.368 706.048 722.968 706.784C722.568 707.52 722.368 708.384 722.368 709.376C722.368 710.384 722.568 711.264 722.968 712.016C723.368 712.752 723.904 713.32 724.576 713.72C725.248 714.104 725.992 714.296 726.808 714.296C727.624 714.296 728.368 714.104 729.04 713.72C729.728 713.32 730.272 712.752 730.672 712.016C731.072 711.264 731.272 710.392 731.272 709.4ZM738.035 700.712C737.619 700.712 737.267 700.568 736.979 700.28C736.691 699.992 736.547 699.64 736.547 699.224C736.547 698.808 736.691 698.456 736.979 698.168C737.267 697.88 737.619 697.736 738.035 697.736C738.435 697.736 738.771 697.88 739.043 698.168C739.331 698.456 739.475 698.808 739.475 699.224C739.475 699.64 739.331 699.992 739.043 700.28C738.771 700.568 738.435 700.712 738.035 700.712ZM739.091 702.848V716H736.907V702.848H739.091ZM748.285 716.216C747.053 716.216 745.933 715.936 744.925 715.376C743.933 714.816 743.149 714.024 742.573 713C742.013 711.96 741.733 710.76 741.733 709.4C741.733 708.056 742.021 706.872 742.597 705.848C743.189 704.808 743.989 704.016 744.997 703.472C746.005 702.912 747.133 702.632 748.381 702.632C749.629 702.632 750.757 702.912 751.765 703.472C752.773 704.016 753.565 704.8 754.141 705.824C754.733 706.848 755.029 708.04 755.029 709.4C755.029 710.76 754.725 711.96 754.117 713C753.525 714.024 752.717 714.816 751.693 715.376C750.669 715.936 749.533 716.216 748.285 716.216ZM748.285 714.296C749.069 714.296 749.805 714.112 750.493 713.744C751.181 713.376 751.733 712.824 752.149 712.088C752.581 711.352 752.797 710.456 752.797 709.4C752.797 708.344 752.589 707.448 752.173 706.712C751.757 705.976 751.213 705.432 750.541 705.08C749.869 704.712 749.141 704.528 748.357 704.528C747.557 704.528 746.821 704.712 746.149 705.08C745.493 705.432 744.965 705.976 744.565 706.712C744.165 707.448 743.965 708.344 743.965 709.4C743.965 710.472 744.157 711.376 744.541 712.112C744.941 712.848 745.469 713.4 746.125 713.768C746.781 714.12 747.501 714.296 748.285 714.296ZM764.045 702.608C765.645 702.608 766.941 703.096 767.933 704.072C768.925 705.032 769.421 706.424 769.421 708.248V716H767.261V708.56C767.261 707.248 766.933 706.248 766.277 705.56C765.621 704.856 764.725 704.504 763.589 704.504C762.437 704.504 761.517 704.864 760.829 705.584C760.157 706.304 759.821 707.352 759.821 708.728V716H757.637V702.848H759.821V704.72C760.253 704.048 760.837 703.528 761.573 703.16C762.325 702.792 763.149 702.608 764.045 702.608ZM777.38 716.216C776.372 716.216 775.468 716.048 774.668 715.712C773.868 715.36 773.236 714.88 772.772 714.272C772.308 713.648 772.052 712.936 772.004 712.136H774.26C774.324 712.792 774.628 713.328 775.172 713.744C775.732 714.16 776.46 714.368 777.356 714.368C778.188 714.368 778.844 714.184 779.324 713.816C779.804 713.448 780.044 712.984 780.044 712.424C780.044 711.848 779.788 711.424 779.276 711.152C778.764 710.864 777.972 710.584 776.9 710.312C775.924 710.056 775.124 709.8 774.5 709.544C773.892 709.272 773.364 708.88 772.916 708.368C772.484 707.84 772.268 707.152 772.268 706.304C772.268 705.632 772.468 705.016 772.868 704.456C773.268 703.896 773.836 703.456 774.572 703.136C775.308 702.8 776.148 702.632 777.092 702.632C778.548 702.632 779.724 703 780.62 703.736C781.516 704.472 781.996 705.48 782.06 706.76H779.876C779.828 706.072 779.548 705.52 779.036 705.104C778.54 704.688 777.868 704.48 777.02 704.48C776.236 704.48 775.612 704.648 775.148 704.984C774.684 705.32 774.452 705.76 774.452 706.304C774.452 706.736 774.588 707.096 774.86 707.384C775.148 707.656 775.5 707.88 775.916 708.056C776.348 708.216 776.94 708.4 777.692 708.608C778.636 708.864 779.404 709.12 779.996 709.376C780.588 709.616 781.092 709.984 781.508 710.48C781.94 710.976 782.164 711.624 782.18 712.424C782.18 713.144 781.98 713.792 781.58 714.368C781.18 714.944 780.612 715.4 779.876 715.736C779.156 716.056 778.324 716.216 777.38 716.216ZM796.87 716.216C795.638 716.216 794.518 715.936 793.51 715.376C792.518 714.816 791.734 714.024 791.158 713C790.598 711.96 790.318 710.76 790.318 709.4C790.318 708.056 790.606 706.872 791.182 705.848C791.774 704.808 792.574 704.016 793.582 703.472C794.59 702.912 795.718 702.632 796.966 702.632C798.214 702.632 799.342 702.912 800.35 703.472C801.358 704.016 802.15 704.8 802.726 705.824C803.318 706.848 803.614 708.04 803.614 709.4C803.614 710.76 803.31 711.96 802.702 713C802.11 714.024 801.302 714.816 800.278 715.376C799.254 715.936 798.118 716.216 796.87 716.216ZM796.87 714.296C797.654 714.296 798.39 714.112 799.078 713.744C799.766 713.376 800.318 712.824 800.734 712.088C801.166 711.352 801.382 710.456 801.382 709.4C801.382 708.344 801.174 707.448 800.758 706.712C800.342 705.976 799.798 705.432 799.126 705.08C798.454 704.712 797.726 704.528 796.942 704.528C796.142 704.528 795.406 704.712 794.734 705.08C794.078 705.432 793.55 705.976 793.15 706.712C792.75 707.448 792.55 708.344 792.55 709.4C792.55 710.472 792.742 711.376 793.126 712.112C793.526 712.848 794.054 713.4 794.71 713.768C795.366 714.12 796.086 714.296 796.87 714.296ZM811.574 704.648H808.814V716H806.63V704.648H804.926V702.848H806.63V701.912C806.63 700.44 807.006 699.368 807.758 698.696C808.526 698.008 809.75 697.664 811.43 697.664V699.488C810.47 699.488 809.79 699.68 809.39 700.064C809.006 700.432 808.814 701.048 808.814 701.912V702.848H811.574V704.648ZM821.118 700.712C820.702 700.712 820.35 700.568 820.062 700.28C819.774 699.992 819.63 699.64 819.63 699.224C819.63 698.808 819.774 698.456 820.062 698.168C820.35 697.88 820.702 697.736 821.118 697.736C821.518 697.736 821.854 697.88 822.126 698.168C822.414 698.456 822.558 698.808 822.558 699.224C822.558 699.64 822.414 699.992 822.126 700.28C821.854 700.568 821.518 700.712 821.118 700.712ZM822.174 702.848V716H819.99V702.848H822.174ZM828.297 704.648V712.4C828.297 713.04 828.433 713.496 828.705 713.768C828.977 714.024 829.449 714.152 830.121 714.152H831.729V716H829.761C828.545 716 827.633 715.72 827.025 715.16C826.417 714.6 826.113 713.68 826.113 712.4V704.648H824.409V702.848H826.113V699.536H828.297V702.848H831.729V704.648H828.297ZM834.807 716.144C834.391 716.144 834.039 716 833.751 715.712C833.463 715.424 833.319 715.072 833.319 714.656C833.319 714.24 833.463 713.888 833.751 713.6C834.039 713.312 834.391 713.168 834.807 713.168C835.207 713.168 835.543 713.312 835.815 713.6C836.103 713.888 836.247 714.24 836.247 714.656C836.247 715.072 836.103 715.424 835.815 715.712C835.543 716 835.207 716.144 834.807 716.144Z" fill="#FAFAFA"/>
<path d="M211.389 322.848L208.157 334H206.525L203.933 325.024L201.245 334L199.629 334.016L196.509 322.848H198.061L200.493 332.304L203.181 322.848H204.813L207.373 332.272L209.821 322.848H211.389ZM217.862 334.112C216.828 334.112 215.884 333.872 215.03 333.392C214.177 332.901 213.5 332.224 212.998 331.36C212.508 330.485 212.262 329.504 212.262 328.416C212.262 327.328 212.508 326.352 212.998 325.488C213.5 324.613 214.177 323.936 215.03 323.456C215.884 322.965 216.828 322.72 217.862 322.72C218.908 322.72 219.857 322.965 220.71 323.456C221.564 323.936 222.236 324.608 222.726 325.472C223.217 326.336 223.462 327.317 223.462 328.416C223.462 329.515 223.217 330.496 222.726 331.36C222.236 332.224 221.564 332.901 220.71 333.392C219.857 333.872 218.908 334.112 217.862 334.112ZM217.862 332.848C218.641 332.848 219.34 332.667 219.958 332.304C220.588 331.941 221.078 331.424 221.43 330.752C221.793 330.08 221.974 329.301 221.974 328.416C221.974 327.52 221.793 326.741 221.43 326.08C221.078 325.408 220.593 324.891 219.974 324.528C219.356 324.165 218.652 323.984 217.862 323.984C217.073 323.984 216.369 324.165 215.75 324.528C215.132 324.891 214.641 325.408 214.278 326.08C213.926 326.741 213.75 327.52 213.75 328.416C213.75 329.301 213.926 330.08 214.278 330.752C214.641 331.424 215.132 331.941 215.75 332.304C216.38 332.667 217.084 332.848 217.862 332.848ZM236.521 322.928V334H235.065V325.744L231.385 334H230.361L226.665 325.728V334H225.209V322.928H226.777L230.873 332.08L234.969 322.928H236.521ZM240.27 324.032V327.76H244.334V328.96H240.27V332.8H244.814V334H238.814V322.832H244.814V324.032H240.27ZM255.609 334H254.153L248.297 325.12V334H246.841V322.832H248.297L254.153 331.696V322.832H255.609V334Z" fill="#FAFAFA"/>
<path d="M494.266 322.848V324.032H491.226V334H489.77V324.032H486.714V322.848H494.266ZM501.754 334L499.098 329.44H497.338V334H495.882V322.848H499.482C500.325 322.848 501.034 322.992 501.61 323.28C502.197 323.568 502.634 323.957 502.922 324.448C503.21 324.939 503.354 325.499 503.354 326.128C503.354 326.896 503.13 327.573 502.682 328.16C502.245 328.747 501.583 329.136 500.698 329.328L503.498 334H501.754ZM497.338 328.272H499.482C500.271 328.272 500.863 328.08 501.258 327.696C501.653 327.301 501.85 326.779 501.85 326.128C501.85 325.467 501.653 324.955 501.258 324.592C500.874 324.229 500.282 324.048 499.482 324.048H497.338V328.272ZM512.032 331.52H507.168L506.272 334H504.736L508.768 322.912H510.448L514.464 334H512.928L512.032 331.52ZM511.616 330.336L509.6 324.704L507.584 330.336H511.616ZM524.814 334H523.358L517.502 325.12V334H516.046V322.832H517.502L523.358 331.696V322.832H524.814V334ZM530.656 334.112C529.92 334.112 529.258 333.984 528.672 333.728C528.096 333.461 527.642 333.099 527.312 332.64C526.981 332.171 526.81 331.632 526.8 331.024H528.352C528.405 331.547 528.618 331.989 528.992 332.352C529.376 332.704 529.93 332.88 530.656 332.88C531.349 332.88 531.893 332.709 532.288 332.368C532.693 332.016 532.896 331.568 532.896 331.024C532.896 330.597 532.778 330.251 532.544 329.984C532.309 329.717 532.016 329.515 531.664 329.376C531.312 329.237 530.837 329.088 530.24 328.928C529.504 328.736 528.912 328.544 528.464 328.352C528.026 328.16 527.648 327.861 527.328 327.456C527.018 327.04 526.864 326.485 526.864 325.792C526.864 325.184 527.018 324.645 527.328 324.176C527.637 323.707 528.069 323.344 528.624 323.088C529.189 322.832 529.834 322.704 530.56 322.704C531.605 322.704 532.458 322.965 533.12 323.488C533.792 324.011 534.17 324.704 534.256 325.568H532.656C532.602 325.141 532.378 324.768 531.984 324.448C531.589 324.117 531.066 323.952 530.416 323.952C529.808 323.952 529.312 324.112 528.928 324.432C528.544 324.741 528.352 325.179 528.352 325.744C528.352 326.149 528.464 326.48 528.688 326.736C528.922 326.992 529.205 327.189 529.536 327.328C529.877 327.456 530.352 327.605 530.96 327.776C531.696 327.979 532.288 328.181 532.736 328.384C533.184 328.576 533.568 328.88 533.888 329.296C534.208 329.701 534.368 330.256 534.368 330.96C534.368 331.504 534.224 332.016 533.936 332.496C533.648 332.976 533.221 333.365 532.656 333.664C532.09 333.963 531.424 334.112 530.656 334.112ZM554.44 322.848L551.208 334H549.576L546.984 325.024L544.296 334L542.68 334.016L539.56 322.848H541.112L543.544 332.304L546.232 322.848H547.864L550.424 332.272L552.872 322.848H554.44ZM560.913 334.112C559.878 334.112 558.934 333.872 558.081 333.392C557.228 332.901 556.55 332.224 556.049 331.36C555.558 330.485 555.313 329.504 555.313 328.416C555.313 327.328 555.558 326.352 556.049 325.488C556.55 324.613 557.228 323.936 558.081 323.456C558.934 322.965 559.878 322.72 560.913 322.72C561.958 322.72 562.908 322.965 563.761 323.456C564.614 323.936 565.286 324.608 565.777 325.472C566.268 326.336 566.513 327.317 566.513 328.416C566.513 329.515 566.268 330.496 565.777 331.36C565.286 332.224 564.614 332.901 563.761 333.392C562.908 333.872 561.958 334.112 560.913 334.112ZM560.913 332.848C561.692 332.848 562.39 332.667 563.009 332.304C563.638 331.941 564.129 331.424 564.481 330.752C564.844 330.08 565.025 329.301 565.025 328.416C565.025 327.52 564.844 326.741 564.481 326.08C564.129 325.408 563.644 324.891 563.025 324.528C562.406 324.165 561.702 323.984 560.913 323.984C560.124 323.984 559.42 324.165 558.801 324.528C558.182 324.891 557.692 325.408 557.329 326.08C556.977 326.741 556.801 327.52 556.801 328.416C556.801 329.301 556.977 330.08 557.329 330.752C557.692 331.424 558.182 331.941 558.801 332.304C559.43 332.667 560.134 332.848 560.913 332.848ZM579.571 322.928V334H578.115V325.744L574.435 334H573.411L569.715 325.728V334H568.259V322.928H569.827L573.923 332.08L578.019 322.928H579.571ZM583.321 324.032V327.76H587.385V328.96H583.321V332.8H587.865V334H581.865V322.832H587.865V324.032H583.321ZM598.66 334H597.204L591.348 325.12V334H589.892V322.832H591.348L597.204 331.696V322.832H598.66V334ZM602.47 331.984L600.678 336.288H599.702L600.87 331.984H602.47ZM616.819 334H615.363L609.507 325.12V334H608.051V322.832H609.507L615.363 331.696V322.832H616.819V334ZM624.181 334.112C623.146 334.112 622.202 333.872 621.349 333.392C620.496 332.901 619.818 332.224 619.317 331.36C618.826 330.485 618.581 329.504 618.581 328.416C618.581 327.328 618.826 326.352 619.317 325.488C619.818 324.613 620.496 323.936 621.349 323.456C622.202 322.965 623.146 322.72 624.181 322.72C625.226 322.72 626.176 322.965 627.029 323.456C627.882 323.936 628.554 324.608 629.045 325.472C629.536 326.336 629.781 327.317 629.781 328.416C629.781 329.515 629.536 330.496 629.045 331.36C628.554 332.224 627.882 332.901 627.029 333.392C626.176 333.872 625.226 334.112 624.181 334.112ZM624.181 332.848C624.96 332.848 625.658 332.667 626.277 332.304C626.906 331.941 627.397 331.424 627.749 330.752C628.112 330.08 628.293 329.301 628.293 328.416C628.293 327.52 628.112 326.741 627.749 326.08C627.397 325.408 626.912 324.891 626.293 324.528C625.674 324.165 624.97 323.984 624.181 323.984C623.392 323.984 622.688 324.165 622.069 324.528C621.45 324.891 620.96 325.408 620.597 326.08C620.245 326.741 620.069 327.52 620.069 328.416C620.069 329.301 620.245 330.08 620.597 330.752C620.96 331.424 621.45 331.941 622.069 332.304C622.698 332.667 623.402 332.848 624.181 332.848ZM640.295 334H638.839L632.983 325.12V334H631.527V322.832H632.983L638.839 331.696V322.832H640.295V334ZM652.275 328.256C652.68 328.32 653.048 328.485 653.379 328.752C653.72 329.019 653.987 329.349 654.179 329.744C654.382 330.139 654.483 330.56 654.483 331.008C654.483 331.573 654.339 332.085 654.051 332.544C653.763 332.992 653.342 333.349 652.787 333.616C652.243 333.872 651.598 334 650.851 334H646.691V322.848H650.691C651.448 322.848 652.094 322.976 652.627 323.232C653.16 323.477 653.56 323.813 653.827 324.24C654.094 324.667 654.227 325.147 654.227 325.68C654.227 326.341 654.046 326.891 653.683 327.328C653.331 327.755 652.862 328.064 652.275 328.256ZM648.147 327.664H650.595C651.278 327.664 651.806 327.504 652.179 327.184C652.552 326.864 652.739 326.421 652.739 325.856C652.739 325.291 652.552 324.848 652.179 324.528C651.806 324.208 651.267 324.048 650.563 324.048H648.147V327.664ZM650.723 332.8C651.448 332.8 652.014 332.629 652.419 332.288C652.824 331.947 653.027 331.472 653.027 330.864C653.027 330.245 652.814 329.76 652.387 329.408C651.96 329.045 651.39 328.864 650.675 328.864H648.147V332.8H650.723ZM657.783 322.848V334H656.327V322.848H657.783ZM668.857 334H667.401L661.545 325.12V334H660.089V322.832H661.545L667.401 331.696V322.832H668.857V334ZM677.755 331.52H672.891L671.995 334H670.459L674.491 322.912H676.171L680.187 334H678.651L677.755 331.52ZM677.339 330.336L675.323 324.704L673.307 330.336H677.339ZM687.64 334L684.984 329.44H683.224V334H681.768V322.848H685.368C686.211 322.848 686.92 322.992 687.496 323.28C688.083 323.568 688.52 323.957 688.808 324.448C689.096 324.939 689.24 325.499 689.24 326.128C689.24 326.896 689.016 327.573 688.568 328.16C688.131 328.747 687.469 329.136 686.584 329.328L689.384 334H687.64ZM683.224 328.272H685.368C686.157 328.272 686.749 328.08 687.144 327.696C687.539 327.301 687.736 326.779 687.736 326.128C687.736 325.467 687.539 324.955 687.144 324.592C686.76 324.229 686.168 324.048 685.368 324.048H683.224V328.272ZM699.135 322.848L695.503 329.792V334H694.047V329.792L690.399 322.848H692.015L694.767 328.496L697.519 322.848H699.135ZM701.998 331.984L700.206 336.288H699.23L700.398 331.984H701.998ZM714.444 322.848V324.032H711.404V334H709.948V324.032H706.892V322.848H714.444ZM721.932 334L719.276 329.44H717.516V334H716.06V322.848H719.66C720.503 322.848 721.212 322.992 721.788 323.28C722.375 323.568 722.812 323.957 723.1 324.448C723.388 324.939 723.532 325.499 723.532 326.128C723.532 326.896 723.308 327.573 722.86 328.16C722.423 328.747 721.761 329.136 720.876 329.328L723.676 334H721.932ZM717.516 328.272H719.66C720.449 328.272 721.041 328.08 721.436 327.696C721.831 327.301 722.028 326.779 722.028 326.128C722.028 325.467 721.831 324.955 721.436 324.592C721.052 324.229 720.46 324.048 719.66 324.048H717.516V328.272ZM732.21 331.52H727.346L726.45 334H724.914L728.946 322.912H730.626L734.642 334H733.106L732.21 331.52ZM731.794 330.336L729.778 324.704L727.762 330.336H731.794ZM744.992 334H743.536L737.68 325.12V334H736.224V322.832H737.68L743.536 331.696V322.832H744.992V334ZM750.834 334.112C750.098 334.112 749.436 333.984 748.85 333.728C748.274 333.461 747.82 333.099 747.49 332.64C747.159 332.171 746.988 331.632 746.978 331.024H748.53C748.583 331.547 748.796 331.989 749.17 332.352C749.554 332.704 750.108 332.88 750.834 332.88C751.527 332.88 752.071 332.709 752.466 332.368C752.871 332.016 753.074 331.568 753.074 331.024C753.074 330.597 752.956 330.251 752.722 329.984C752.487 329.717 752.194 329.515 751.842 329.376C751.49 329.237 751.015 329.088 750.418 328.928C749.682 328.736 749.09 328.544 748.642 328.352C748.204 328.16 747.826 327.861 747.506 327.456C747.196 327.04 747.042 326.485 747.042 325.792C747.042 325.184 747.196 324.645 747.506 324.176C747.815 323.707 748.247 323.344 748.802 323.088C749.367 322.832 750.012 322.704 750.738 322.704C751.783 322.704 752.636 322.965 753.298 323.488C753.97 324.011 754.348 324.704 754.434 325.568H752.834C752.78 325.141 752.556 324.768 752.162 324.448C751.767 324.117 751.244 323.952 750.594 323.952C749.986 323.952 749.49 324.112 749.106 324.432C748.722 324.741 748.53 325.179 748.53 325.744C748.53 326.149 748.642 326.48 748.866 326.736C749.1 326.992 749.383 327.189 749.714 327.328C750.055 327.456 750.53 327.605 751.138 327.776C751.874 327.979 752.466 328.181 752.914 328.384C753.362 328.576 753.746 328.88 754.066 329.296C754.386 329.701 754.546 330.256 754.546 330.96C754.546 331.504 754.402 332.016 754.114 332.496C753.826 332.976 753.399 333.365 752.834 333.664C752.268 333.963 751.602 334.112 750.834 334.112ZM771.914 322.928V334H770.458V325.744L766.778 334H765.754L762.058 325.728V334H760.602V322.928H762.17L766.266 332.08L770.362 322.928H771.914ZM780.799 331.52H775.935L775.039 334H773.503L777.535 322.912H779.215L783.231 334H781.695L780.799 331.52ZM780.383 330.336L778.367 324.704L776.351 330.336H780.383ZM793.58 334H792.124L786.268 325.12V334H784.812V322.832H786.268L792.124 331.696V322.832H793.58V334Z" fill="#FAFAFA"/>
<path d="M1056.6 322.928V334H1055.15V325.744L1051.47 334H1050.44L1046.75 325.728V334H1045.29V322.928H1046.86L1050.95 332.08L1055.05 322.928H1056.6ZM1060.35 324.032V327.76H1064.42V328.96H1060.35V332.8H1064.9V334H1058.9V322.832H1064.9V324.032H1060.35ZM1075.69 334H1074.24L1068.38 325.12V334H1066.92V322.832H1068.38L1074.24 331.696V322.832H1075.69V334Z" fill="#FAFAFA"/>
<circle cx="214" cy="124" r="18" fill="#FEC7C3"/>
<circle cx="214" cy="175" r="18" fill="#FEC7C3"/>
<circle cx="214" cy="226" r="18" fill="#FEC7C3"/>
<circle cx="214" cy="277" r="18" fill="#FEC7C3"/>
<circle cx="214" cy="379" r="18" fill="#FEC7C3"/>
<circle cx="214" cy="430" r="18" fill="#FEC7C3"/>
<circle cx="214" cy="481" r="18" fill="#FEC7C3"/>
<circle cx="214" cy="532" r="18" fill="#FEC7C3"/>
<circle cx="279" cy="124" r="18" fill="#F2C5C4"/>
<circle cx="279" cy="175" r="18" fill="#F2C5C4"/>
<circle cx="279" cy="226" r="18" fill="#F2C5C4"/>
<circle cx="279" cy="277" r="18" fill="#F2C5C4"/>
<circle cx="279" cy="379" r="18" fill="#F2C5C4"/>
<circle cx="279" cy="430" r="18" fill="#F2C5C4"/>
<circle cx="279" cy="481" r="18" fill="#F2C5C4"/>
<circle cx="279" cy="532" r="18" fill="#F2C5C4"/>
<circle cx="344" cy="124" r="18" fill="#E7C2C4"/>
<circle cx="344" cy="175" r="18" fill="#E7C2C4"/>
<circle cx="344" cy="226" r="18" fill="#E7C2C4"/>
<circle cx="344" cy="277" r="18" fill="#E7C2C4"/>
<circle cx="344" cy="379" r="18" fill="#E7C2C4"/>
<circle cx="344" cy="430" r="18" fill="#E7C2C4"/>
<circle cx="344" cy="481" r="18" fill="#E7C2C4"/>
<circle cx="344" cy="532" r="18" fill="#E7C2C4"/>
<circle cx="409" cy="124" r="18" fill="#DEC0C5"/>
<circle cx="409" cy="175" r="18" fill="#DEC0C5"/>
<circle cx="409" cy="226" r="18" fill="#DEC0C5"/>
<circle cx="409" cy="277" r="18" fill="#DEC0C5"/>
<circle cx="409" cy="379" r="18" fill="#DEC0C5"/>
<circle cx="409" cy="430" r="18" fill="#DEC0C5"/>
<circle cx="409" cy="481" r="18" fill="#DEC0C5"/>
<circle cx="409" cy="532" r="18" fill="#DEC0C5"/>
<circle cx="474" cy="124" r="18" fill="#D4BEC6"/>
<circle cx="474" cy="175" r="18" fill="#D4BEC6"/>
<circle cx="474" cy="226" r="18" fill="#D4BEC6"/>
<circle cx="474" cy="277" r="18" fill="#D4BEC6"/>
<circle cx="474" cy="379" r="18" fill="#D4BEC6"/>
<circle cx="474" cy="430" r="18" fill="#D4BEC6"/>
<circle cx="474" cy="481" r="18" fill="#D4BEC6"/>
<circle cx="474" cy="532" r="18" fill="#D4BEC6"/>
<circle cx="539" cy="124" r="18" fill="#C9BCC6"/>
<circle cx="539" cy="175" r="18" fill="#C9BCC6"/>
<circle cx="539" cy="226" r="18" fill="#C9BCC6"/>
<circle cx="539" cy="277" r="18" fill="#C9BCC6"/>
<circle cx="539" cy="379" r="18" fill="#C9BCC6"/>
<circle cx="539" cy="430" r="18" fill="#C9BCC6"/>
<circle cx="539" cy="481" r="18" fill="#C9BCC6"/>
<circle cx="539" cy="532" r="18" fill="#C9BCC6"/>
<circle cx="604" cy="124" r="18" fill="#BFBAC8"/>
<circle cx="604" cy="175" r="18" fill="#BFBAC8"/>
<circle cx="604" cy="226" r="18" fill="#BFBAC8"/>
<circle cx="604" cy="277" r="18" fill="#BFBAC8"/>
<circle cx="604" cy="379" r="18" fill="#BFBAC8"/>
<circle cx="604" cy="430" r="18" fill="#BFBAC8"/>
<circle cx="604" cy="481" r="18" fill="#BFBAC8"/>
<circle cx="604" cy="532" r="18" fill="#BFBAC8"/>
<circle cx="669" cy="124" r="18" fill="#B5B7C8"/>
<circle cx="669" cy="175" r="18" fill="#B5B7C8"/>
<circle cx="669" cy="226" r="18" fill="#B5B7C8"/>
<circle cx="669" cy="277" r="18" fill="#B5B7C8"/>
<circle cx="669" cy="379" r="18" fill="#B5B7C8"/>
<circle cx="669" cy="430" r="18" fill="#B5B7C8"/>
<circle cx="669" cy="481" r="18" fill="#B5B7C8"/>
<circle cx="669" cy="532" r="18" fill="#B5B7C8"/>
<circle cx="734" cy="124" r="18" fill="#ACB6C9"/>
<circle cx="734" cy="175" r="18" fill="#ACB6C9"/>
<circle cx="734" cy="226" r="18" fill="#ACB6C9"/>
<circle cx="734" cy="277" r="18" fill="#ACB6C9"/>
<circle cx="734" cy="379" r="18" fill="#ACB6C9"/>
<circle cx="734" cy="430" r="18" fill="#ACB6C9"/>
<circle cx="734" cy="481" r="18" fill="#ACB6C9"/>
<circle cx="734" cy="532" r="18" fill="#ACB6C9"/>
<circle cx="799" cy="124" r="18" fill="#A1B3CA"/>
<circle cx="799" cy="175" r="18" fill="#A1B3CA"/>
<circle cx="799" cy="226" r="18" fill="#A1B3CA"/>
<circle cx="799" cy="277" r="18" fill="#A1B3CA"/>
<circle cx="799" cy="379" r="18" fill="#A1B3CA"/>
<circle cx="799" cy="430" r="18" fill="#A1B3CA"/>
<circle cx="799" cy="481" r="18" fill="#A1B3CA"/>
<circle cx="799" cy="532" r="18" fill="#A1B3CA"/>
<circle cx="864" cy="124" r="18" fill="#97B2CB"/>
<circle cx="864" cy="175" r="18" fill="#97B2CB"/>
<circle cx="864" cy="226" r="18" fill="#97B2CB"/>
<circle cx="864" cy="277" r="18" fill="#97B2CB"/>
<circle cx="864" cy="379" r="18" fill="#97B2CB"/>
<circle cx="864" cy="430" r="18" fill="#97B2CB"/>
<circle cx="864" cy="481" r="18" fill="#97B2CB"/>
<circle cx="864" cy="532" r="18" fill="#97B2CB"/>
<circle cx="929" cy="124" r="18" fill="#8DB0CC"/>
<circle cx="929" cy="175" r="18" fill="#8DB0CC"/>
<circle cx="929" cy="226" r="18" fill="#8DB0CC"/>
<circle cx="929" cy="277" r="18" fill="#8DB0CC"/>
<circle cx="929" cy="379" r="18" fill="#8DB0CC"/>
<circle cx="929" cy="430" r="18" fill="#8DB0CC"/>
<circle cx="929" cy="481" r="18" fill="#8DB0CC"/>
<circle cx="929" cy="532" r="18" fill="#8DB0CC"/>
<circle cx="994" cy="124" r="18" fill="#83ADCD"/>
<circle cx="994" cy="175" r="18" fill="#83ADCD"/>
<circle cx="994" cy="226" r="18" fill="#83ADCD"/>
<circle cx="994" cy="277" r="18" fill="#83ADCD"/>
<circle cx="994" cy="379" r="18" fill="#83ADCD"/>
<circle cx="994" cy="430" r="18" fill="#83ADCD"/>
<circle cx="994" cy="481" r="18" fill="#83ADCD"/>
<circle cx="994" cy="532" r="18" fill="#83ADCD"/>
<circle cx="1059" cy="124" r="18" fill="#78ABCD"/>
<circle cx="1059" cy="175" r="18" fill="#78ABCD"/>
<circle cx="1059" cy="226" r="18" fill="#78ABCD"/>
<circle cx="1059" cy="277" r="18" fill="#78ABCD"/>
<circle cx="1059" cy="379" r="18" fill="#78ABCD"/>
<circle cx="1059" cy="430" r="18" fill="#78ABCD"/>
<circle cx="1059" cy="481" r="18" fill="#78ABCD"/>
<circle cx="1059" cy="532" r="18" fill="#78ABCD"/>
</svg>
