<svg width="1280" height="832" viewBox="0 0 1280 832" fill="none" xmlns="http://www.w3.org/2000/svg">
<rect width="1280" height="832" fill="#0A0A0A"/>
<rect x="357" y="630" width="566" height="120" rx="24" fill="#141414"/>
<path d="M423.719 663.272L418.871 680H416.423L412.535 666.536L408.503 680L406.079 680.024L401.399 663.272H403.727L407.375 677.456L411.407 663.272H413.855L417.695 677.408L421.367 663.272H423.719ZM437.845 672.92C437.845 673.336 437.821 673.776 437.773 674.24H427.261C427.341 675.536 427.781 676.552 428.581 677.288C429.397 678.008 430.381 678.368 431.533 678.368C432.477 678.368 433.261 678.152 433.885 677.72C434.525 677.272 434.973 676.68 435.229 675.944H437.581C437.229 677.208 436.525 678.24 435.469 679.04C434.413 679.824 433.101 680.216 431.533 680.216C430.285 680.216 429.165 679.936 428.173 679.376C427.197 678.816 426.429 678.024 425.869 677C425.309 675.96 425.029 674.76 425.029 673.4C425.029 672.04 425.301 670.848 425.845 669.824C426.389 668.8 427.149 668.016 428.125 667.472C429.117 666.912 430.253 666.632 431.533 666.632C432.781 666.632 433.885 666.904 434.845 667.448C435.805 667.992 436.541 668.744 437.053 669.704C437.581 670.648 437.845 671.72 437.845 672.92ZM435.589 672.464C435.589 671.632 435.405 670.92 435.037 670.328C434.669 669.72 434.165 669.264 433.525 668.96C432.901 668.64 432.205 668.48 431.437 668.48C430.333 668.48 429.389 668.832 428.605 669.536C427.837 670.24 427.397 671.216 427.285 672.464H435.589ZM445.783 673.376C445.783 672.032 446.055 670.856 446.599 669.848C447.143 668.824 447.887 668.032 448.831 667.472C449.791 666.912 450.855 666.632 452.023 666.632C453.175 666.632 454.175 666.88 455.023 667.376C455.871 667.872 456.503 668.496 456.919 669.248V666.848H459.127V680H456.919V677.552C456.487 678.32 455.839 678.96 454.975 679.472C454.127 679.968 453.135 680.216 451.999 680.216C450.831 680.216 449.775 679.928 448.831 679.352C447.887 678.776 447.143 677.968 446.599 676.928C446.055 675.888 445.783 674.704 445.783 673.376ZM456.919 673.4C456.919 672.408 456.719 671.544 456.319 670.808C455.919 670.072 455.375 669.512 454.687 669.128C454.015 668.728 453.271 668.528 452.455 668.528C451.639 668.528 450.895 668.72 450.223 669.104C449.551 669.488 449.015 670.048 448.615 670.784C448.215 671.52 448.015 672.384 448.015 673.376C448.015 674.384 448.215 675.264 448.615 676.016C449.015 676.752 449.551 677.32 450.223 677.72C450.895 678.104 451.639 678.296 452.455 678.296C453.271 678.296 454.015 678.104 454.687 677.72C455.375 677.32 455.919 676.752 456.319 676.016C456.719 675.264 456.919 674.392 456.919 673.4ZM464.737 662.24V680H462.553V662.24H464.737ZM470.38 662.24V680H468.196V662.24H470.38ZM485.396 666.632C486.532 666.632 487.524 666.88 488.372 667.376C489.236 667.872 489.876 668.496 490.292 669.248V666.848H492.5V680.288C492.5 681.488 492.244 682.552 491.732 683.48C491.22 684.424 490.484 685.16 489.524 685.688C488.58 686.216 487.476 686.48 486.212 686.48C484.484 686.48 483.044 686.072 481.892 685.256C480.74 684.44 480.06 683.328 479.852 681.92H482.012C482.252 682.72 482.748 683.36 483.5 683.84C484.252 684.336 485.156 684.584 486.212 684.584C487.412 684.584 488.388 684.208 489.14 683.456C489.908 682.704 490.292 681.648 490.292 680.288V677.528C489.86 678.296 489.22 678.936 488.372 679.448C487.524 679.96 486.532 680.216 485.396 680.216C484.228 680.216 483.164 679.928 482.204 679.352C481.26 678.776 480.516 677.968 479.972 676.928C479.428 675.888 479.156 674.704 479.156 673.376C479.156 672.032 479.428 670.856 479.972 669.848C480.516 668.824 481.26 668.032 482.204 667.472C483.164 666.912 484.228 666.632 485.396 666.632ZM490.292 673.4C490.292 672.408 490.092 671.544 489.692 670.808C489.292 670.072 488.748 669.512 488.06 669.128C487.388 668.728 486.644 668.528 485.828 668.528C485.012 668.528 484.268 668.72 483.596 669.104C482.924 669.488 482.388 670.048 481.988 670.784C481.588 671.52 481.388 672.384 481.388 673.376C481.388 674.384 481.588 675.264 481.988 676.016C482.388 676.752 482.924 677.32 483.596 677.72C484.268 678.104 485.012 678.296 485.828 678.296C486.644 678.296 487.388 678.104 488.06 677.72C488.748 677.32 489.292 676.752 489.692 676.016C490.092 675.264 490.292 674.392 490.292 673.4ZM498.111 668.984C498.495 668.232 499.039 667.648 499.743 667.232C500.463 666.816 501.335 666.608 502.359 666.608V668.864H501.783C499.335 668.864 498.111 670.192 498.111 672.848V680H495.927V666.848H498.111V668.984ZM510.352 680.216C509.12 680.216 508 679.936 506.992 679.376C506 678.816 505.216 678.024 504.64 677C504.08 675.96 503.8 674.76 503.8 673.4C503.8 672.056 504.088 670.872 504.664 669.848C505.256 668.808 506.056 668.016 507.064 667.472C508.072 666.912 509.2 666.632 510.448 666.632C511.696 666.632 512.824 666.912 513.832 667.472C514.84 668.016 515.632 668.8 516.208 669.824C516.8 670.848 517.096 672.04 517.096 673.4C517.096 674.76 516.792 675.96 516.184 677C515.592 678.024 514.784 678.816 513.76 679.376C512.736 679.936 511.6 680.216 510.352 680.216ZM510.352 678.296C511.136 678.296 511.872 678.112 512.56 677.744C513.248 677.376 513.8 676.824 514.216 676.088C514.648 675.352 514.864 674.456 514.864 673.4C514.864 672.344 514.656 671.448 514.24 670.712C513.824 669.976 513.28 669.432 512.608 669.08C511.936 668.712 511.208 668.528 510.424 668.528C509.624 668.528 508.888 668.712 508.216 669.08C507.56 669.432 507.032 669.976 506.632 670.712C506.232 671.448 506.032 672.344 506.032 673.4C506.032 674.472 506.224 675.376 506.608 676.112C507.008 676.848 507.536 677.4 508.192 677.768C508.848 678.12 509.568 678.296 510.352 678.296ZM537.224 666.848L533.12 680H530.864L527.696 669.56L524.528 680H522.272L518.144 666.848H520.376L523.4 677.888L526.664 666.848H528.896L532.088 677.912L535.064 666.848H537.224ZM556.926 666.848V680H554.742V678.056C554.326 678.728 553.742 679.256 552.99 679.64C552.254 680.008 551.438 680.192 550.542 680.192C549.518 680.192 548.598 679.984 547.782 679.568C546.966 679.136 546.318 678.496 545.838 677.648C545.374 676.8 545.142 675.768 545.142 674.552V666.848H547.302V674.264C547.302 675.56 547.63 676.56 548.286 677.264C548.942 677.952 549.838 678.296 550.974 678.296C552.142 678.296 553.062 677.936 553.734 677.216C554.406 676.496 554.742 675.448 554.742 674.072V666.848H556.926ZM562.533 669.272C562.965 668.52 563.605 667.896 564.453 667.4C565.317 666.888 566.317 666.632 567.453 666.632C568.621 666.632 569.677 666.912 570.621 667.472C571.581 668.032 572.333 668.824 572.877 669.848C573.421 670.856 573.693 672.032 573.693 673.376C573.693 674.704 573.421 675.888 572.877 676.928C572.333 677.968 571.581 678.776 570.621 679.352C569.677 679.928 568.621 680.216 567.453 680.216C566.333 680.216 565.341 679.968 564.477 679.472C563.629 678.96 562.981 678.328 562.533 677.576V686.24H560.349V666.848H562.533V669.272ZM571.461 673.376C571.461 672.384 571.261 671.52 570.861 670.784C570.461 670.048 569.917 669.488 569.229 669.104C568.557 668.72 567.813 668.528 566.997 668.528C566.197 668.528 565.453 668.728 564.765 669.128C564.093 669.512 563.549 670.08 563.133 670.832C562.733 671.568 562.533 672.424 562.533 673.4C562.533 674.392 562.733 675.264 563.133 676.016C563.549 676.752 564.093 677.32 564.765 677.72C565.453 678.104 566.197 678.296 566.997 678.296C567.813 678.296 568.557 678.104 569.229 677.72C569.917 677.32 570.461 676.752 570.861 676.016C571.261 675.264 571.461 674.384 571.461 673.376ZM584.622 669.296C585.07 668.512 585.726 667.872 586.59 667.376C587.454 666.88 588.438 666.632 589.542 666.632C590.726 666.632 591.79 666.912 592.734 667.472C593.678 668.032 594.422 668.824 594.966 669.848C595.51 670.856 595.782 672.032 595.782 673.376C595.782 674.704 595.51 675.888 594.966 676.928C594.422 677.968 593.67 678.776 592.71 679.352C591.766 679.928 590.71 680.216 589.542 680.216C588.406 680.216 587.406 679.968 586.542 679.472C585.694 678.976 585.054 678.344 584.622 677.576V680H582.438V662.24H584.622V669.296ZM593.55 673.376C593.55 672.384 593.35 671.52 592.95 670.784C592.55 670.048 592.006 669.488 591.318 669.104C590.646 668.72 589.902 668.528 589.086 668.528C588.286 668.528 587.542 668.728 586.854 669.128C586.182 669.512 585.638 670.08 585.222 670.832C584.822 671.568 584.622 672.424 584.622 673.4C584.622 674.392 584.822 675.264 585.222 676.016C585.638 676.752 586.182 677.32 586.854 677.72C587.542 678.104 588.286 678.296 589.086 678.296C589.902 678.296 590.646 678.104 591.318 677.72C592.006 677.32 592.55 676.752 592.95 676.016C593.35 675.264 593.55 674.384 593.55 673.376ZM610.393 672.92C610.393 673.336 610.369 673.776 610.321 674.24H599.809C599.889 675.536 600.329 676.552 601.129 677.288C601.945 678.008 602.929 678.368 604.081 678.368C605.025 678.368 605.809 678.152 606.433 677.72C607.073 677.272 607.521 676.68 607.777 675.944H610.129C609.777 677.208 609.073 678.24 608.017 679.04C606.961 679.824 605.649 680.216 604.081 680.216C602.833 680.216 601.713 679.936 600.721 679.376C599.745 678.816 598.977 678.024 598.417 677C597.857 675.96 597.577 674.76 597.577 673.4C597.577 672.04 597.849 670.848 598.393 669.824C598.937 668.8 599.697 668.016 600.673 667.472C601.665 666.912 602.801 666.632 604.081 666.632C605.329 666.632 606.433 666.904 607.393 667.448C608.353 667.992 609.089 668.744 609.601 669.704C610.129 670.648 610.393 671.72 610.393 672.92ZM608.137 672.464C608.137 671.632 607.953 670.92 607.585 670.328C607.217 669.72 606.713 669.264 606.073 668.96C605.449 668.64 604.753 668.48 603.985 668.48C602.881 668.48 601.937 668.832 601.153 669.536C600.385 670.24 599.945 671.216 599.833 672.464H608.137ZM614.14 664.712C613.724 664.712 613.372 664.568 613.084 664.28C612.796 663.992 612.652 663.64 612.652 663.224C612.652 662.808 612.796 662.456 613.084 662.168C613.372 661.88 613.724 661.736 614.14 661.736C614.54 661.736 614.876 661.88 615.148 662.168C615.436 662.456 615.58 662.808 615.58 663.224C615.58 663.64 615.436 663.992 615.148 664.28C614.876 664.568 614.54 664.712 614.14 664.712ZM615.196 666.848V680H613.012V666.848H615.196ZM625.062 666.608C626.662 666.608 627.958 667.096 628.95 668.072C629.942 669.032 630.438 670.424 630.438 672.248V680H628.278V672.56C628.278 671.248 627.95 670.248 627.294 669.56C626.638 668.856 625.742 668.504 624.606 668.504C623.454 668.504 622.534 668.864 621.846 669.584C621.174 670.304 620.838 671.352 620.838 672.728V680H618.654V666.848H620.838V668.72C621.27 668.048 621.854 667.528 622.59 667.16C623.342 666.792 624.166 666.608 625.062 666.608ZM639.166 666.632C640.302 666.632 641.294 666.88 642.142 667.376C643.006 667.872 643.646 668.496 644.062 669.248V666.848H646.27V680.288C646.27 681.488 646.014 682.552 645.502 683.48C644.99 684.424 644.254 685.16 643.294 685.688C642.35 686.216 641.246 686.48 639.982 686.48C638.254 686.48 636.814 686.072 635.662 685.256C634.51 684.44 633.83 683.328 633.622 681.92H635.782C636.022 682.72 636.518 683.36 637.27 683.84C638.022 684.336 638.926 684.584 639.982 684.584C641.182 684.584 642.158 684.208 642.91 683.456C643.678 682.704 644.062 681.648 644.062 680.288V677.528C643.63 678.296 642.99 678.936 642.142 679.448C641.294 679.96 640.302 680.216 639.166 680.216C637.998 680.216 636.934 679.928 635.974 679.352C635.03 678.776 634.286 677.968 633.742 676.928C633.198 675.888 632.926 674.704 632.926 673.376C632.926 672.032 633.198 670.856 633.742 669.848C634.286 668.824 635.03 668.032 635.974 667.472C636.934 666.912 637.998 666.632 639.166 666.632ZM644.062 673.4C644.062 672.408 643.862 671.544 643.462 670.808C643.062 670.072 642.518 669.512 641.83 669.128C641.158 668.728 640.414 668.528 639.598 668.528C638.782 668.528 638.038 668.72 637.366 669.104C636.694 669.488 636.158 670.048 635.758 670.784C635.358 671.52 635.158 672.384 635.158 673.376C635.158 674.384 635.358 675.264 635.758 676.016C636.158 676.752 636.694 677.32 637.366 677.72C638.038 678.104 638.782 678.296 639.598 678.296C640.414 678.296 641.158 678.104 641.83 677.72C642.518 677.32 643.062 676.752 643.462 676.016C643.862 675.264 644.062 674.392 644.062 673.4ZM658.495 668.648V676.4C658.495 677.04 658.631 677.496 658.903 677.768C659.175 678.024 659.647 678.152 660.319 678.152H661.927V680H659.959C658.743 680 657.831 679.72 657.223 679.16C656.615 678.6 656.311 677.68 656.311 676.4V668.648H654.607V666.848H656.311V663.536H658.495V666.848H661.927V668.648H658.495ZM670.045 680.216C668.813 680.216 667.693 679.936 666.685 679.376C665.693 678.816 664.909 678.024 664.333 677C663.773 675.96 663.493 674.76 663.493 673.4C663.493 672.056 663.781 670.872 664.357 669.848C664.949 668.808 665.749 668.016 666.757 667.472C667.765 666.912 668.893 666.632 670.141 666.632C671.389 666.632 672.517 666.912 673.525 667.472C674.533 668.016 675.325 668.8 675.901 669.824C676.493 670.848 676.789 672.04 676.789 673.4C676.789 674.76 676.485 675.96 675.877 677C675.285 678.024 674.477 678.816 673.453 679.376C672.429 679.936 671.293 680.216 670.045 680.216ZM670.045 678.296C670.829 678.296 671.565 678.112 672.253 677.744C672.941 677.376 673.493 676.824 673.909 676.088C674.341 675.352 674.557 674.456 674.557 673.4C674.557 672.344 674.349 671.448 673.933 670.712C673.517 669.976 672.973 669.432 672.301 669.08C671.629 668.712 670.901 668.528 670.117 668.528C669.317 668.528 668.581 668.712 667.909 669.08C667.253 669.432 666.725 669.976 666.325 670.712C665.925 671.448 665.725 672.344 665.725 673.4C665.725 674.472 665.917 675.376 666.301 676.112C666.701 676.848 667.229 677.4 667.885 677.768C668.541 678.12 669.261 678.296 670.045 678.296ZM681.581 662.24V680H679.397V662.24H681.581ZM684.223 673.376C684.223 672.032 684.495 670.856 685.039 669.848C685.583 668.824 686.327 668.032 687.271 667.472C688.231 666.912 689.303 666.632 690.487 666.632C691.511 666.632 692.463 666.872 693.343 667.352C694.223 667.816 694.895 668.432 695.359 669.2V662.24H697.567V680H695.359V677.528C694.927 678.312 694.287 678.96 693.439 679.472C692.591 679.968 691.599 680.216 690.463 680.216C689.295 680.216 688.231 679.928 687.271 679.352C686.327 678.776 685.583 677.968 685.039 676.928C684.495 675.888 684.223 674.704 684.223 673.376ZM695.359 673.4C695.359 672.408 695.159 671.544 694.759 670.808C694.359 670.072 693.815 669.512 693.127 669.128C692.455 668.728 691.711 668.528 690.895 668.528C690.079 668.528 689.335 668.72 688.663 669.104C687.991 669.488 687.455 670.048 687.055 670.784C686.655 671.52 686.455 672.384 686.455 673.376C686.455 674.384 686.655 675.264 687.055 676.016C687.455 676.752 687.991 677.32 688.663 677.72C689.335 678.104 690.079 678.296 690.895 678.296C691.711 678.296 692.455 678.104 693.127 677.72C693.815 677.32 694.359 676.752 694.759 676.016C695.159 675.264 695.359 674.392 695.359 673.4ZM728.152 663.272L723.304 680H720.856L716.968 666.536L712.936 680L710.512 680.024L705.832 663.272H708.16L711.808 677.456L715.84 663.272H718.288L722.128 677.408L725.8 663.272H728.152ZM742.278 672.92C742.278 673.336 742.254 673.776 742.206 674.24H731.694C731.774 675.536 732.214 676.552 733.014 677.288C733.83 678.008 734.814 678.368 735.966 678.368C736.91 678.368 737.694 678.152 738.318 677.72C738.958 677.272 739.406 676.68 739.662 675.944H742.014C741.662 677.208 740.958 678.24 739.902 679.04C738.846 679.824 737.534 680.216 735.966 680.216C734.718 680.216 733.598 679.936 732.606 679.376C731.63 678.816 730.862 678.024 730.302 677C729.742 675.96 729.462 674.76 729.462 673.4C729.462 672.04 729.734 670.848 730.278 669.824C730.822 668.8 731.582 668.016 732.558 667.472C733.55 666.912 734.686 666.632 735.966 666.632C737.214 666.632 738.318 666.904 739.278 667.448C740.238 667.992 740.974 668.744 741.486 669.704C742.014 670.648 742.278 671.72 742.278 672.92ZM740.022 672.464C740.022 671.632 739.838 670.92 739.47 670.328C739.102 669.72 738.598 669.264 737.958 668.96C737.334 668.64 736.638 668.48 735.87 668.48C734.766 668.48 733.822 668.832 733.038 669.536C732.27 670.24 731.83 671.216 731.718 672.464H740.022ZM750.215 673.376C750.215 672.032 750.487 670.856 751.031 669.848C751.575 668.824 752.319 668.032 753.263 667.472C754.223 666.912 755.287 666.632 756.455 666.632C757.607 666.632 758.607 666.88 759.455 667.376C760.303 667.872 760.935 668.496 761.351 669.248V666.848H763.559V680H761.351V677.552C760.919 678.32 760.271 678.96 759.407 679.472C758.559 679.968 757.567 680.216 756.431 680.216C755.263 680.216 754.207 679.928 753.263 679.352C752.319 678.776 751.575 677.968 751.031 676.928C750.487 675.888 750.215 674.704 750.215 673.376ZM761.351 673.4C761.351 672.408 761.151 671.544 760.751 670.808C760.351 670.072 759.807 669.512 759.119 669.128C758.447 668.728 757.703 668.528 756.887 668.528C756.071 668.528 755.327 668.72 754.655 669.104C753.983 669.488 753.447 670.048 753.047 670.784C752.647 671.52 752.447 672.384 752.447 673.376C752.447 674.384 752.647 675.264 753.047 676.016C753.447 676.752 753.983 677.32 754.655 677.72C755.327 678.104 756.071 678.296 756.887 678.296C757.703 678.296 758.447 678.104 759.119 677.72C759.807 677.32 760.351 676.752 760.751 676.016C761.151 675.264 761.351 674.392 761.351 673.4ZM769.17 662.24V680H766.986V662.24H769.17ZM774.812 662.24V680H772.628V662.24H774.812ZM789.829 666.632C790.965 666.632 791.957 666.88 792.805 667.376C793.669 667.872 794.309 668.496 794.725 669.248V666.848H796.933V680.288C796.933 681.488 796.677 682.552 796.165 683.48C795.653 684.424 794.917 685.16 793.957 685.688C793.013 686.216 791.909 686.48 790.645 686.48C788.917 686.48 787.477 686.072 786.325 685.256C785.173 684.44 784.493 683.328 784.285 681.92H786.445C786.685 682.72 787.181 683.36 787.933 683.84C788.685 684.336 789.589 684.584 790.645 684.584C791.845 684.584 792.821 684.208 793.573 683.456C794.341 682.704 794.725 681.648 794.725 680.288V677.528C794.293 678.296 793.653 678.936 792.805 679.448C791.957 679.96 790.965 680.216 789.829 680.216C788.661 680.216 787.597 679.928 786.637 679.352C785.693 678.776 784.949 677.968 784.405 676.928C783.861 675.888 783.589 674.704 783.589 673.376C783.589 672.032 783.861 670.856 784.405 669.848C784.949 668.824 785.693 668.032 786.637 667.472C787.597 666.912 788.661 666.632 789.829 666.632ZM794.725 673.4C794.725 672.408 794.525 671.544 794.125 670.808C793.725 670.072 793.181 669.512 792.493 669.128C791.821 668.728 791.077 668.528 790.261 668.528C789.445 668.528 788.701 668.72 788.029 669.104C787.357 669.488 786.821 670.048 786.421 670.784C786.021 671.52 785.821 672.384 785.821 673.376C785.821 674.384 786.021 675.264 786.421 676.016C786.821 676.752 787.357 677.32 788.029 677.72C788.701 678.104 789.445 678.296 790.261 678.296C791.077 678.296 791.821 678.104 792.493 677.72C793.181 677.32 793.725 676.752 794.125 676.016C794.525 675.264 794.725 674.392 794.725 673.4ZM802.544 668.984C802.928 668.232 803.472 667.648 804.176 667.232C804.896 666.816 805.768 666.608 806.792 666.608V668.864H806.216C803.768 668.864 802.544 670.192 802.544 672.848V680H800.36V666.848H802.544V668.984ZM814.785 680.216C813.553 680.216 812.433 679.936 811.425 679.376C810.433 678.816 809.649 678.024 809.073 677C808.513 675.96 808.233 674.76 808.233 673.4C808.233 672.056 808.521 670.872 809.097 669.848C809.689 668.808 810.489 668.016 811.497 667.472C812.505 666.912 813.633 666.632 814.881 666.632C816.129 666.632 817.257 666.912 818.265 667.472C819.273 668.016 820.065 668.8 820.641 669.824C821.233 670.848 821.529 672.04 821.529 673.4C821.529 674.76 821.225 675.96 820.617 677C820.025 678.024 819.217 678.816 818.193 679.376C817.169 679.936 816.033 680.216 814.785 680.216ZM814.785 678.296C815.569 678.296 816.305 678.112 816.993 677.744C817.681 677.376 818.233 676.824 818.649 676.088C819.081 675.352 819.297 674.456 819.297 673.4C819.297 672.344 819.089 671.448 818.673 670.712C818.257 669.976 817.713 669.432 817.041 669.08C816.369 668.712 815.641 668.528 814.857 668.528C814.057 668.528 813.321 668.712 812.649 669.08C811.993 669.432 811.465 669.976 811.065 670.712C810.665 671.448 810.465 672.344 810.465 673.4C810.465 674.472 810.657 675.376 811.041 676.112C811.441 676.848 811.969 677.4 812.625 677.768C813.281 678.12 814.001 678.296 814.785 678.296ZM841.657 666.848L837.553 680H835.297L832.129 669.56L828.961 680H826.705L822.577 666.848H824.809L827.833 677.888L831.097 666.848H833.329L836.521 677.912L839.497 666.848H841.657ZM861.358 666.848V680H859.174V678.056C858.758 678.728 858.174 679.256 857.422 679.64C856.686 680.008 855.87 680.192 854.974 680.192C853.95 680.192 853.03 679.984 852.214 679.568C851.398 679.136 850.75 678.496 850.27 677.648C849.806 676.8 849.574 675.768 849.574 674.552V666.848H851.734V674.264C851.734 675.56 852.062 676.56 852.718 677.264C853.374 677.952 854.27 678.296 855.406 678.296C856.574 678.296 857.494 677.936 858.166 677.216C858.838 676.496 859.174 675.448 859.174 674.072V666.848H861.358ZM866.966 669.272C867.398 668.52 868.038 667.896 868.886 667.4C869.75 666.888 870.75 666.632 871.886 666.632C873.054 666.632 874.11 666.912 875.054 667.472C876.014 668.032 876.766 668.824 877.31 669.848C877.854 670.856 878.126 672.032 878.126 673.376C878.126 674.704 877.854 675.888 877.31 676.928C876.766 677.968 876.014 678.776 875.054 679.352C874.11 679.928 873.054 680.216 871.886 680.216C870.766 680.216 869.774 679.968 868.91 679.472C868.062 678.96 867.414 678.328 866.966 677.576V686.24H864.782V666.848H866.966V669.272ZM875.894 673.376C875.894 672.384 875.694 671.52 875.294 670.784C874.894 670.048 874.35 669.488 873.662 669.104C872.99 668.72 872.246 668.528 871.43 668.528C870.63 668.528 869.886 668.728 869.198 669.128C868.526 669.512 867.982 670.08 867.566 670.832C867.166 671.568 866.966 672.424 866.966 673.4C866.966 674.392 867.166 675.264 867.566 676.016C867.982 676.752 868.526 677.32 869.198 677.72C869.886 678.104 870.63 678.296 871.43 678.296C872.246 678.296 872.99 678.104 873.662 677.72C874.35 677.32 874.894 676.752 875.294 676.016C875.694 675.264 875.894 674.384 875.894 673.376ZM401.873 704.648V712.4C401.873 713.04 402.009 713.496 402.281 713.768C402.553 714.024 403.025 714.152 403.697 714.152H405.305V716H403.337C402.121 716 401.209 715.72 400.601 715.16C399.993 714.6 399.689 713.68 399.689 712.4V704.648H397.985V702.848H399.689V699.536H401.873V702.848H405.305V704.648H401.873ZM414.215 702.608C415.207 702.608 416.103 702.824 416.903 703.256C417.703 703.672 418.327 704.304 418.775 705.152C419.239 706 419.471 707.032 419.471 708.248V716H417.311V708.56C417.311 707.248 416.983 706.248 416.327 705.56C415.671 704.856 414.775 704.504 413.639 704.504C412.487 704.504 411.567 704.864 410.879 705.584C410.207 706.304 409.871 707.352 409.871 708.728V716H407.687V698.24H409.871V704.72C410.303 704.048 410.895 703.528 411.647 703.16C412.415 702.792 413.271 702.608 414.215 702.608ZM423.903 700.712C423.487 700.712 423.135 700.568 422.847 700.28C422.559 699.992 422.415 699.64 422.415 699.224C422.415 698.808 422.559 698.456 422.847 698.168C423.135 697.88 423.487 697.736 423.903 697.736C424.303 697.736 424.639 697.88 424.911 698.168C425.199 698.456 425.343 698.808 425.343 699.224C425.343 699.64 425.199 699.992 424.911 700.28C424.639 700.568 424.303 700.712 423.903 700.712ZM424.959 702.848V716H422.775V702.848H424.959ZM434.825 702.608C436.425 702.608 437.721 703.096 438.713 704.072C439.705 705.032 440.201 706.424 440.201 708.248V716H438.041V708.56C438.041 707.248 437.713 706.248 437.057 705.56C436.401 704.856 435.505 704.504 434.369 704.504C433.217 704.504 432.297 704.864 431.609 705.584C430.937 706.304 430.601 707.352 430.601 708.728V716H428.417V702.848H430.601V704.72C431.033 704.048 431.617 703.528 432.353 703.16C433.105 702.792 433.929 702.608 434.825 702.608ZM450.849 716L445.689 710.192V716H443.505V698.24H445.689V708.68L450.753 702.848H453.801L447.609 709.4L453.825 716H450.849ZM456.72 700.712C456.304 700.712 455.952 700.568 455.664 700.28C455.376 699.992 455.232 699.64 455.232 699.224C455.232 698.808 455.376 698.456 455.664 698.168C455.952 697.88 456.304 697.736 456.72 697.736C457.12 697.736 457.456 697.88 457.728 698.168C458.016 698.456 458.16 698.808 458.16 699.224C458.16 699.64 458.016 699.992 457.728 700.28C457.456 700.568 457.12 700.712 456.72 700.712ZM457.776 702.848V716H455.592V702.848H457.776ZM467.643 702.608C469.243 702.608 470.539 703.096 471.531 704.072C472.523 705.032 473.019 706.424 473.019 708.248V716H470.859V708.56C470.859 707.248 470.531 706.248 469.875 705.56C469.219 704.856 468.323 704.504 467.187 704.504C466.035 704.504 465.115 704.864 464.427 705.584C463.755 706.304 463.419 707.352 463.419 708.728V716H461.235V702.848H463.419V704.72C463.851 704.048 464.435 703.528 465.171 703.16C465.923 702.792 466.747 702.608 467.643 702.608ZM481.746 702.632C482.882 702.632 483.874 702.88 484.722 703.376C485.586 703.872 486.226 704.496 486.642 705.248V702.848H488.85V716.288C488.85 717.488 488.594 718.552 488.082 719.48C487.57 720.424 486.834 721.16 485.874 721.688C484.93 722.216 483.826 722.48 482.562 722.48C480.834 722.48 479.394 722.072 478.242 721.256C477.09 720.44 476.41 719.328 476.202 717.92H478.362C478.602 718.72 479.098 719.36 479.85 719.84C480.602 720.336 481.506 720.584 482.562 720.584C483.762 720.584 484.738 720.208 485.49 719.456C486.258 718.704 486.642 717.648 486.642 716.288V713.528C486.21 714.296 485.57 714.936 484.722 715.448C483.874 715.96 482.882 716.216 481.746 716.216C480.578 716.216 479.514 715.928 478.554 715.352C477.61 714.776 476.866 713.968 476.322 712.928C475.778 711.888 475.506 710.704 475.506 709.376C475.506 708.032 475.778 706.856 476.322 705.848C476.866 704.824 477.61 704.032 478.554 703.472C479.514 702.912 480.578 702.632 481.746 702.632ZM486.642 709.4C486.642 708.408 486.442 707.544 486.042 706.808C485.642 706.072 485.098 705.512 484.41 705.128C483.738 704.728 482.994 704.528 482.178 704.528C481.362 704.528 480.618 704.72 479.946 705.104C479.274 705.488 478.738 706.048 478.338 706.784C477.938 707.52 477.738 708.384 477.738 709.376C477.738 710.384 477.938 711.264 478.338 712.016C478.738 712.752 479.274 713.32 479.946 713.72C480.618 714.104 481.362 714.296 482.178 714.296C482.994 714.296 483.738 714.104 484.41 713.72C485.098 713.32 485.642 712.752 486.042 712.016C486.442 711.264 486.642 710.392 486.642 709.4ZM515.931 702.848L511.827 716H509.571L506.403 705.56L503.235 716H500.979L496.851 702.848H499.083L502.107 713.888L505.371 702.848H507.603L510.795 713.912L513.771 702.848H515.931ZM529.835 708.92C529.835 709.336 529.811 709.776 529.763 710.24H519.251C519.331 711.536 519.771 712.552 520.571 713.288C521.387 714.008 522.371 714.368 523.523 714.368C524.467 714.368 525.251 714.152 525.875 713.72C526.515 713.272 526.963 712.68 527.219 711.944H529.571C529.219 713.208 528.515 714.24 527.459 715.04C526.403 715.824 525.091 716.216 523.523 716.216C522.275 716.216 521.155 715.936 520.163 715.376C519.187 714.816 518.419 714.024 517.859 713C517.299 711.96 517.019 710.76 517.019 709.4C517.019 708.04 517.291 706.848 517.835 705.824C518.379 704.8 519.139 704.016 520.115 703.472C521.107 702.912 522.243 702.632 523.523 702.632C524.771 702.632 525.875 702.904 526.835 703.448C527.795 703.992 528.531 704.744 529.043 705.704C529.571 706.648 529.835 707.72 529.835 708.92ZM527.579 708.464C527.579 707.632 527.395 706.92 527.027 706.328C526.659 705.72 526.155 705.264 525.515 704.96C524.891 704.64 524.195 704.48 523.427 704.48C522.323 704.48 521.379 704.832 520.595 705.536C519.827 706.24 519.387 707.216 519.275 708.464H527.579ZM537.772 709.4C537.772 708.04 538.044 706.856 538.588 705.848C539.132 704.824 539.884 704.032 540.844 703.472C541.82 702.912 542.932 702.632 544.18 702.632C545.796 702.632 547.124 703.024 548.164 703.808C549.22 704.592 549.916 705.68 550.252 707.072H547.9C547.676 706.272 547.236 705.64 546.58 705.176C545.94 704.712 545.14 704.48 544.18 704.48C542.932 704.48 541.924 704.912 541.156 705.776C540.388 706.624 540.004 707.832 540.004 709.4C540.004 710.984 540.388 712.208 541.156 713.072C541.924 713.936 542.932 714.368 544.18 714.368C545.14 714.368 545.94 714.144 546.58 713.696C547.22 713.248 547.66 712.608 547.9 711.776H550.252C549.9 713.12 549.196 714.2 548.14 715.016C547.084 715.816 545.764 716.216 544.18 716.216C542.932 716.216 541.82 715.936 540.844 715.376C539.884 714.816 539.132 714.024 538.588 713C538.044 711.976 537.772 710.776 537.772 709.4ZM552.086 709.376C552.086 708.032 552.358 706.856 552.902 705.848C553.446 704.824 554.19 704.032 555.134 703.472C556.094 702.912 557.158 702.632 558.326 702.632C559.478 702.632 560.478 702.88 561.326 703.376C562.174 703.872 562.806 704.496 563.222 705.248V702.848H565.43V716H563.222V713.552C562.79 714.32 562.142 714.96 561.278 715.472C560.43 715.968 559.438 716.216 558.302 716.216C557.134 716.216 556.078 715.928 555.134 715.352C554.19 714.776 553.446 713.968 552.902 712.928C552.358 711.888 552.086 710.704 552.086 709.376ZM563.222 709.4C563.222 708.408 563.022 707.544 562.622 706.808C562.222 706.072 561.678 705.512 560.99 705.128C560.318 704.728 559.574 704.528 558.758 704.528C557.942 704.528 557.198 704.72 556.526 705.104C555.854 705.488 555.318 706.048 554.918 706.784C554.518 707.52 554.318 708.384 554.318 709.376C554.318 710.384 554.518 711.264 554.918 712.016C555.318 712.752 555.854 713.32 556.526 713.72C557.198 714.104 557.942 714.296 558.758 714.296C559.574 714.296 560.318 714.104 560.99 713.72C561.678 713.32 562.222 712.752 562.622 712.016C563.022 711.264 563.222 710.392 563.222 709.4ZM575.265 702.608C576.865 702.608 578.161 703.096 579.153 704.072C580.145 705.032 580.641 706.424 580.641 708.248V716H578.481V708.56C578.481 707.248 578.153 706.248 577.497 705.56C576.841 704.856 575.945 704.504 574.809 704.504C573.657 704.504 572.737 704.864 572.049 705.584C571.377 706.304 571.041 707.352 571.041 708.728V716H568.857V702.848H571.041V704.72C571.473 704.048 572.057 703.528 572.793 703.16C573.545 702.792 574.369 702.608 575.265 702.608ZM602.079 708.92C602.079 709.336 602.055 709.776 602.007 710.24H591.495C591.575 711.536 592.015 712.552 592.815 713.288C593.631 714.008 594.615 714.368 595.767 714.368C596.711 714.368 597.495 714.152 598.119 713.72C598.759 713.272 599.207 712.68 599.463 711.944H601.815C601.463 713.208 600.759 714.24 599.703 715.04C598.647 715.824 597.335 716.216 595.767 716.216C594.519 716.216 593.399 715.936 592.407 715.376C591.431 714.816 590.663 714.024 590.103 713C589.543 711.96 589.263 710.76 589.263 709.4C589.263 708.04 589.535 706.848 590.079 705.824C590.623 704.8 591.383 704.016 592.359 703.472C593.351 702.912 594.487 702.632 595.767 702.632C597.015 702.632 598.119 702.904 599.079 703.448C600.039 703.992 600.775 704.744 601.287 705.704C601.815 706.648 602.079 707.72 602.079 708.92ZM599.823 708.464C599.823 707.632 599.639 706.92 599.271 706.328C598.903 705.72 598.399 705.264 597.759 704.96C597.135 704.64 596.439 704.48 595.671 704.48C594.567 704.48 593.623 704.832 592.839 705.536C592.071 706.24 591.631 707.216 591.519 708.464H599.823ZM605.826 700.712C605.41 700.712 605.058 700.568 604.77 700.28C604.482 699.992 604.338 699.64 604.338 699.224C604.338 698.808 604.482 698.456 604.77 698.168C605.058 697.88 605.41 697.736 605.826 697.736C606.226 697.736 606.562 697.88 606.834 698.168C607.122 698.456 607.266 698.808 607.266 699.224C607.266 699.64 607.122 699.992 606.834 700.28C606.562 700.568 606.226 700.712 605.826 700.712ZM606.882 702.848V716H604.698V702.848H606.882ZM613.004 704.648V712.4C613.004 713.04 613.14 713.496 613.412 713.768C613.684 714.024 614.156 714.152 614.828 714.152H616.436V716H614.468C613.252 716 612.34 715.72 611.732 715.16C611.124 714.6 610.82 713.68 610.82 712.4V704.648H609.116V702.848H610.82V699.536H613.004V702.848H616.436V704.648H613.004ZM625.346 702.608C626.338 702.608 627.234 702.824 628.034 703.256C628.834 703.672 629.458 704.304 629.906 705.152C630.37 706 630.602 707.032 630.602 708.248V716H628.442V708.56C628.442 707.248 628.114 706.248 627.458 705.56C626.802 704.856 625.906 704.504 624.77 704.504C623.618 704.504 622.698 704.864 622.01 705.584C621.338 706.304 621.002 707.352 621.002 708.728V716H618.818V698.24H621.002V704.72C621.434 704.048 622.026 703.528 622.778 703.16C623.546 702.792 624.402 702.608 625.346 702.608ZM645.906 708.92C645.906 709.336 645.882 709.776 645.834 710.24H635.322C635.402 711.536 635.842 712.552 636.642 713.288C637.458 714.008 638.442 714.368 639.594 714.368C640.538 714.368 641.322 714.152 641.946 713.72C642.586 713.272 643.034 712.68 643.29 711.944H645.642C645.29 713.208 644.586 714.24 643.53 715.04C642.474 715.824 641.162 716.216 639.594 716.216C638.346 716.216 637.226 715.936 636.234 715.376C635.258 714.816 634.49 714.024 633.93 713C633.37 711.96 633.09 710.76 633.09 709.4C633.09 708.04 633.362 706.848 633.906 705.824C634.45 704.8 635.21 704.016 636.186 703.472C637.178 702.912 638.314 702.632 639.594 702.632C640.842 702.632 641.946 702.904 642.906 703.448C643.866 703.992 644.602 704.744 645.114 705.704C645.642 706.648 645.906 707.72 645.906 708.92ZM643.65 708.464C643.65 707.632 643.466 706.92 643.098 706.328C642.73 705.72 642.226 705.264 641.586 704.96C640.962 704.64 640.266 704.48 639.498 704.48C638.394 704.48 637.45 704.832 636.666 705.536C635.898 706.24 635.458 707.216 635.346 708.464H643.65ZM650.709 704.984C651.093 704.232 651.637 703.648 652.341 703.232C653.061 702.816 653.933 702.608 654.957 702.608V704.864H654.381C651.933 704.864 650.709 706.192 650.709 708.848V716H648.525V702.848H650.709V704.984ZM665.532 705.296C665.98 704.512 666.636 703.872 667.5 703.376C668.364 702.88 669.348 702.632 670.452 702.632C671.636 702.632 672.7 702.912 673.644 703.472C674.588 704.032 675.332 704.824 675.876 705.848C676.42 706.856 676.692 708.032 676.692 709.376C676.692 710.704 676.42 711.888 675.876 712.928C675.332 713.968 674.58 714.776 673.62 715.352C672.676 715.928 671.62 716.216 670.452 716.216C669.316 716.216 668.316 715.968 667.452 715.472C666.604 714.976 665.964 714.344 665.532 713.576V716H663.348V698.24H665.532V705.296ZM674.46 709.376C674.46 708.384 674.26 707.52 673.86 706.784C673.46 706.048 672.916 705.488 672.228 705.104C671.556 704.72 670.812 704.528 669.996 704.528C669.196 704.528 668.452 704.728 667.764 705.128C667.092 705.512 666.548 706.08 666.132 706.832C665.732 707.568 665.532 708.424 665.532 709.4C665.532 710.392 665.732 711.264 666.132 712.016C666.548 712.752 667.092 713.32 667.764 713.72C668.452 714.104 669.196 714.296 669.996 714.296C670.812 714.296 671.556 714.104 672.228 713.72C672.916 713.32 673.46 712.752 673.86 712.016C674.26 711.264 674.46 710.384 674.46 709.376ZM691.303 708.92C691.303 709.336 691.279 709.776 691.231 710.24H680.719C680.799 711.536 681.239 712.552 682.039 713.288C682.855 714.008 683.839 714.368 684.991 714.368C685.935 714.368 686.719 714.152 687.343 713.72C687.983 713.272 688.431 712.68 688.687 711.944H691.039C690.687 713.208 689.983 714.24 688.927 715.04C687.871 715.824 686.559 716.216 684.991 716.216C683.743 716.216 682.623 715.936 681.631 715.376C680.655 714.816 679.887 714.024 679.327 713C678.767 711.96 678.487 710.76 678.487 709.4C678.487 708.04 678.759 706.848 679.303 705.824C679.847 704.8 680.607 704.016 681.583 703.472C682.575 702.912 683.711 702.632 684.991 702.632C686.239 702.632 687.343 702.904 688.303 703.448C689.263 703.992 689.999 704.744 690.511 705.704C691.039 706.648 691.303 707.72 691.303 708.92ZM689.047 708.464C689.047 707.632 688.863 706.92 688.495 706.328C688.127 705.72 687.623 705.264 686.983 704.96C686.359 704.64 685.663 704.48 684.895 704.48C683.791 704.48 682.847 704.832 682.063 705.536C681.295 706.24 680.855 707.216 680.743 708.464H689.047ZM715.872 702.608C716.896 702.608 717.808 702.824 718.608 703.256C719.408 703.672 720.04 704.304 720.504 705.152C720.968 706 721.2 707.032 721.2 708.248V716H719.04V708.56C719.04 707.248 718.712 706.248 718.056 705.56C717.416 704.856 716.544 704.504 715.44 704.504C714.304 704.504 713.4 704.872 712.728 705.608C712.056 706.328 711.72 707.376 711.72 708.752V716H709.56V708.56C709.56 707.248 709.232 706.248 708.576 705.56C707.936 704.856 707.064 704.504 705.96 704.504C704.824 704.504 703.92 704.872 703.248 705.608C702.576 706.328 702.24 707.376 702.24 708.752V716H700.056V702.848H702.24V704.744C702.672 704.056 703.248 703.528 703.968 703.16C704.704 702.792 705.512 702.608 706.392 702.608C707.496 702.608 708.472 702.856 709.32 703.352C710.168 703.848 710.8 704.576 711.216 705.536C711.584 704.608 712.192 703.888 713.04 703.376C713.888 702.864 714.832 702.608 715.872 702.608ZM723.703 709.376C723.703 708.032 723.975 706.856 724.519 705.848C725.063 704.824 725.807 704.032 726.751 703.472C727.711 702.912 728.775 702.632 729.943 702.632C731.095 702.632 732.095 702.88 732.943 703.376C733.791 703.872 734.423 704.496 734.839 705.248V702.848H737.047V716H734.839V713.552C734.407 714.32 733.759 714.96 732.895 715.472C732.047 715.968 731.055 716.216 729.919 716.216C728.751 716.216 727.695 715.928 726.751 715.352C725.807 714.776 725.063 713.968 724.519 712.928C723.975 711.888 723.703 710.704 723.703 709.376ZM734.839 709.4C734.839 708.408 734.639 707.544 734.239 706.808C733.839 706.072 733.295 705.512 732.607 705.128C731.935 704.728 731.191 704.528 730.375 704.528C729.559 704.528 728.815 704.72 728.143 705.104C727.471 705.488 726.935 706.048 726.535 706.784C726.135 707.52 725.935 708.384 725.935 709.376C725.935 710.384 726.135 711.264 726.535 712.016C726.935 712.752 727.471 713.32 728.143 713.72C728.815 714.104 729.559 714.296 730.375 714.296C731.191 714.296 731.935 714.104 732.607 713.72C733.295 713.32 733.839 712.752 734.239 712.016C734.639 711.264 734.839 710.392 734.839 709.4ZM742.657 698.24V716H740.473V698.24H742.657ZM758.116 708.92C758.116 709.336 758.092 709.776 758.044 710.24H747.532C747.612 711.536 748.052 712.552 748.852 713.288C749.668 714.008 750.652 714.368 751.804 714.368C752.748 714.368 753.532 714.152 754.156 713.72C754.796 713.272 755.244 712.68 755.5 711.944H757.852C757.5 713.208 756.796 714.24 755.74 715.04C754.684 715.824 753.372 716.216 751.804 716.216C750.556 716.216 749.436 715.936 748.444 715.376C747.468 714.816 746.7 714.024 746.14 713C745.58 711.96 745.3 710.76 745.3 709.4C745.3 708.04 745.572 706.848 746.116 705.824C746.66 704.8 747.42 704.016 748.396 703.472C749.388 702.912 750.524 702.632 751.804 702.632C753.052 702.632 754.156 702.904 755.116 703.448C756.076 703.992 756.812 704.744 757.324 705.704C757.852 706.648 758.116 707.72 758.116 708.92ZM755.86 708.464C755.86 707.632 755.676 706.92 755.308 706.328C754.94 705.72 754.436 705.264 753.796 704.96C753.172 704.64 752.476 704.48 751.708 704.48C750.604 704.48 749.66 704.832 748.876 705.536C748.108 706.24 747.668 707.216 747.556 708.464H755.86ZM772.605 716.216C771.373 716.216 770.253 715.936 769.245 715.376C768.253 714.816 767.469 714.024 766.893 713C766.333 711.96 766.053 710.76 766.053 709.4C766.053 708.056 766.341 706.872 766.917 705.848C767.509 704.808 768.309 704.016 769.317 703.472C770.325 702.912 771.453 702.632 772.701 702.632C773.949 702.632 775.077 702.912 776.085 703.472C777.093 704.016 777.885 704.8 778.461 705.824C779.053 706.848 779.349 708.04 779.349 709.4C779.349 710.76 779.045 711.96 778.437 713C777.845 714.024 777.037 714.816 776.013 715.376C774.989 715.936 773.853 716.216 772.605 716.216ZM772.605 714.296C773.389 714.296 774.125 714.112 774.813 713.744C775.501 713.376 776.053 712.824 776.469 712.088C776.901 711.352 777.117 710.456 777.117 709.4C777.117 708.344 776.909 707.448 776.493 706.712C776.077 705.976 775.533 705.432 774.861 705.08C774.189 704.712 773.461 704.528 772.677 704.528C771.877 704.528 771.141 704.712 770.469 705.08C769.813 705.432 769.285 705.976 768.885 706.712C768.485 707.448 768.285 708.344 768.285 709.4C768.285 710.472 768.477 711.376 768.861 712.112C769.261 712.848 769.789 713.4 770.445 713.768C771.101 714.12 771.821 714.296 772.605 714.296ZM784.141 704.984C784.525 704.232 785.069 703.648 785.773 703.232C786.493 702.816 787.365 702.608 788.389 702.608V704.864H787.813C785.365 704.864 784.141 706.192 784.141 708.848V716H781.957V702.848H784.141V704.984ZM802.132 704.648H799.372V716H797.188V704.648H795.484V702.848H797.188V701.912C797.188 700.44 797.564 699.368 798.316 698.696C799.084 698.008 800.308 697.664 801.988 697.664V699.488C801.028 699.488 800.348 699.68 799.948 700.064C799.564 700.432 799.372 701.048 799.372 701.912V702.848H802.132V704.648ZM816.415 708.92C816.415 709.336 816.391 709.776 816.343 710.24H805.831C805.911 711.536 806.351 712.552 807.151 713.288C807.967 714.008 808.951 714.368 810.103 714.368C811.047 714.368 811.831 714.152 812.455 713.72C813.095 713.272 813.543 712.68 813.799 711.944H816.151C815.799 713.208 815.095 714.24 814.039 715.04C812.983 715.824 811.671 716.216 810.103 716.216C808.855 716.216 807.735 715.936 806.743 715.376C805.767 714.816 804.999 714.024 804.439 713C803.879 711.96 803.599 710.76 803.599 709.4C803.599 708.04 803.871 706.848 804.415 705.824C804.959 704.8 805.719 704.016 806.695 703.472C807.687 702.912 808.823 702.632 810.103 702.632C811.351 702.632 812.455 702.904 813.415 703.448C814.375 703.992 815.111 704.744 815.623 705.704C816.151 706.648 816.415 707.72 816.415 708.92ZM814.159 708.464C814.159 707.632 813.975 706.92 813.607 706.328C813.239 705.72 812.735 705.264 812.095 704.96C811.471 704.64 810.775 704.48 810.007 704.48C808.903 704.48 807.959 704.832 807.175 705.536C806.407 706.24 805.967 707.216 805.855 708.464H814.159ZM834.849 702.608C835.873 702.608 836.785 702.824 837.585 703.256C838.385 703.672 839.017 704.304 839.481 705.152C839.945 706 840.177 707.032 840.177 708.248V716H838.017V708.56C838.017 707.248 837.689 706.248 837.033 705.56C836.393 704.856 835.521 704.504 834.417 704.504C833.281 704.504 832.377 704.872 831.705 705.608C831.033 706.328 830.697 707.376 830.697 708.752V716H828.537V708.56C828.537 707.248 828.209 706.248 827.553 705.56C826.913 704.856 826.041 704.504 824.937 704.504C823.801 704.504 822.897 704.872 822.225 705.608C821.553 706.328 821.217 707.376 821.217 708.752V716H819.033V702.848H821.217V704.744C821.649 704.056 822.225 703.528 822.945 703.16C823.681 702.792 824.489 702.608 825.369 702.608C826.473 702.608 827.449 702.856 828.297 703.352C829.145 703.848 829.777 704.576 830.193 705.536C830.561 704.608 831.169 703.888 832.017 703.376C832.865 702.864 833.809 702.608 834.849 702.608ZM842.68 709.376C842.68 708.032 842.952 706.856 843.496 705.848C844.04 704.824 844.784 704.032 845.728 703.472C846.688 702.912 847.752 702.632 848.92 702.632C850.072 702.632 851.072 702.88 851.92 703.376C852.768 703.872 853.4 704.496 853.816 705.248V702.848H856.024V716H853.816V713.552C853.384 714.32 852.736 714.96 851.872 715.472C851.024 715.968 850.032 716.216 848.896 716.216C847.728 716.216 846.672 715.928 845.728 715.352C844.784 714.776 844.04 713.968 843.496 712.928C842.952 711.888 842.68 710.704 842.68 709.376ZM853.816 709.4C853.816 708.408 853.616 707.544 853.216 706.808C852.816 706.072 852.272 705.512 851.584 705.128C850.912 704.728 850.168 704.528 849.352 704.528C848.536 704.528 847.792 704.72 847.12 705.104C846.448 705.488 845.912 706.048 845.512 706.784C845.112 707.52 844.912 708.384 844.912 709.376C844.912 710.384 845.112 711.264 845.512 712.016C845.912 712.752 846.448 713.32 847.12 713.72C847.792 714.104 848.536 714.296 849.352 714.296C850.168 714.296 850.912 714.104 851.584 713.72C852.272 713.32 852.816 712.752 853.216 712.016C853.616 711.264 853.816 710.392 853.816 709.4ZM861.635 698.24V716H859.451V698.24H861.635ZM877.093 708.92C877.093 709.336 877.069 709.776 877.021 710.24H866.509C866.589 711.536 867.029 712.552 867.829 713.288C868.645 714.008 869.629 714.368 870.781 714.368C871.725 714.368 872.509 714.152 873.133 713.72C873.773 713.272 874.221 712.68 874.477 711.944H876.829C876.477 713.208 875.773 714.24 874.717 715.04C873.661 715.824 872.349 716.216 870.781 716.216C869.533 716.216 868.413 715.936 867.421 715.376C866.445 714.816 865.677 714.024 865.117 713C864.557 711.96 864.277 710.76 864.277 709.4C864.277 708.04 864.549 706.848 865.093 705.824C865.637 704.8 866.397 704.016 867.373 703.472C868.365 702.912 869.501 702.632 870.781 702.632C872.029 702.632 873.133 702.904 874.093 703.448C875.053 703.992 875.789 704.744 876.301 705.704C876.829 706.648 877.093 707.72 877.093 708.92ZM874.837 708.464C874.837 707.632 874.653 706.92 874.285 706.328C873.917 705.72 873.413 705.264 872.773 704.96C872.149 704.64 871.453 704.48 870.685 704.48C869.581 704.48 868.637 704.832 867.853 705.536C867.085 706.24 866.645 707.216 866.533 708.464H874.837ZM880.408 716.144C879.992 716.144 879.64 716 879.352 715.712C879.064 715.424 878.92 715.072 878.92 714.656C878.92 714.24 879.064 713.888 879.352 713.6C879.64 713.312 879.992 713.168 880.408 713.168C880.808 713.168 881.144 713.312 881.416 713.6C881.704 713.888 881.848 714.24 881.848 714.656C881.848 715.072 881.704 715.424 881.416 715.712C881.144 716 880.808 716.144 880.408 716.144Z" fill="#FAFAFA"/>
<circle cx="214" cy="124" r="18" fill="#FEC7C3"/>
<circle cx="214" cy="175" r="18" fill="#FEC7C3"/>
<circle cx="214" cy="226" r="18" fill="#FEC7C3"/>
<circle cx="214" cy="277" r="18" fill="#FEC7C3"/>
<circle cx="214" cy="328" r="18" fill="#FEC7C3"/>
<circle cx="214" cy="379" r="18" fill="#FEC7C3"/>
<circle cx="214" cy="430" r="18" fill="#FEC7C3"/>
<circle cx="214" cy="481" r="18" fill="#FEC7C3"/>
<circle cx="214" cy="532" r="18" fill="#FEC7C3"/>
<circle cx="279" cy="124" r="18" fill="#FEC7C3"/>
<circle cx="279" cy="175" r="18" fill="#FEC7C3"/>
<circle cx="279" cy="226" r="18" fill="#FEC7C3"/>
<circle cx="279" cy="277" r="18" fill="#FEC7C3"/>
<circle cx="279" cy="328" r="18" fill="#FEC7C3"/>
<circle cx="279" cy="379" r="18" fill="#FEC7C3"/>
<circle cx="279" cy="430" r="18" fill="#FEC7C3"/>
<circle cx="279" cy="481" r="18" fill="#FEC7C3"/>
<circle cx="279" cy="532" r="18" fill="#FEC7C3"/>
<circle cx="344" cy="124" r="18" fill="#FEC7C3"/>
<circle cx="344" cy="175" r="18" fill="#FEC7C3"/>
<circle cx="344" cy="226" r="18" fill="#FEC7C3"/>
<circle cx="344" cy="277" r="18" fill="#FEC7C3"/>
<circle cx="344" cy="328" r="18" fill="#FEC7C3"/>
<circle cx="344" cy="379" r="18" fill="#FEC7C3"/>
<circle cx="344" cy="430" r="18" fill="#FEC7C3"/>
<circle cx="344" cy="481" r="18" fill="#FEC7C3"/>
<circle cx="344" cy="532" r="18" fill="#FEC7C3"/>
<circle cx="409" cy="124" r="18" fill="#FEC7C3"/>
<circle cx="409" cy="175" r="18" fill="#FEC7C3"/>
<circle cx="409" cy="226" r="18" fill="#FEC7C3"/>
<circle cx="409" cy="277" r="18" fill="#FEC7C3"/>
<circle cx="409" cy="328" r="18" fill="#FEC7C3"/>
<circle cx="409" cy="379" r="18" fill="#FEC7C3"/>
<circle cx="409" cy="430" r="18" fill="#FEC7C3"/>
<circle cx="409" cy="481" r="18" fill="#FEC7C3"/>
<circle cx="409" cy="532" r="18" fill="#FEC7C3"/>
<circle cx="474" cy="124" r="18" fill="#FEC7C3"/>
<circle cx="474" cy="175" r="18" fill="#FEC7C3"/>
<circle cx="474" cy="226" r="18" fill="#FEC7C3"/>
<circle cx="474" cy="277" r="18" fill="#FEC7C3"/>
<circle cx="474" cy="328" r="18" fill="#FEC7C3"/>
<circle cx="474" cy="379" r="18" fill="#FEC7C3"/>
<circle cx="474" cy="430" r="18" fill="#FEC7C3"/>
<circle cx="474" cy="481" r="18" fill="#FEC7C3"/>
<circle cx="474" cy="532" r="18" fill="#FEC7C3"/>
<circle cx="539" cy="124" r="18" fill="#FEC7C3"/>
<circle cx="539" cy="175" r="18" fill="#FEC7C3"/>
<circle cx="539" cy="226" r="18" fill="#FEC7C3"/>
<circle cx="539" cy="277" r="18" fill="#FEC7C3"/>
<circle cx="539" cy="328" r="18" fill="#FEC7C3"/>
<circle cx="539" cy="379" r="18" fill="#FEC7C3"/>
<circle cx="539" cy="430" r="18" fill="#FEC7C3"/>
<circle cx="539" cy="481" r="18" fill="#FEC7C3"/>
<circle cx="539" cy="532" r="18" fill="#FEC7C3"/>
<circle cx="604" cy="124" r="18" fill="#FEC7C3"/>
<circle cx="604" cy="175" r="18" fill="#FEC7C3"/>
<circle cx="604" cy="226" r="18" fill="#FEC7C3"/>
<circle cx="604" cy="277" r="18" fill="#FEC7C3"/>
<circle cx="604" cy="328" r="18" fill="#FEC7C3"/>
<circle cx="604" cy="379" r="18" fill="#FEC7C3"/>
<circle cx="604" cy="430" r="18" fill="#FEC7C3"/>
<circle cx="604" cy="481" r="18" fill="#FEC7C3"/>
<circle cx="604" cy="532" r="18" fill="#FEC7C3"/>
<circle cx="669" cy="124" r="18" fill="#78ABCD"/>
<circle cx="669" cy="175" r="18" fill="#78ABCD"/>
<circle cx="669" cy="226" r="18" fill="#78ABCD"/>
<circle cx="669" cy="277" r="18" fill="#78ABCD"/>
<circle cx="669" cy="328" r="18" fill="#78ABCD"/>
<circle cx="669" cy="379" r="18" fill="#78ABCD"/>
<circle cx="669" cy="430" r="18" fill="#78ABCD"/>
<circle cx="669" cy="481" r="18" fill="#78ABCD"/>
<circle cx="669" cy="532" r="18" fill="#78ABCD"/>
<circle cx="734" cy="124" r="18" fill="#78ABCD"/>
<circle cx="734" cy="175" r="18" fill="#78ABCD"/>
<circle cx="734" cy="226" r="18" fill="#78ABCD"/>
<circle cx="734" cy="277" r="18" fill="#78ABCD"/>
<circle cx="734" cy="328" r="18" fill="#78ABCD"/>
<circle cx="734" cy="379" r="18" fill="#78ABCD"/>
<circle cx="734" cy="430" r="18" fill="#78ABCD"/>
<circle cx="734" cy="481" r="18" fill="#78ABCD"/>
<circle cx="734" cy="532" r="18" fill="#78ABCD"/>
<circle cx="799" cy="124" r="18" fill="#78ABCD"/>
<circle cx="799" cy="175" r="18" fill="#78ABCD"/>
<circle cx="799" cy="226" r="18" fill="#78ABCD"/>
<circle cx="799" cy="277" r="18" fill="#78ABCD"/>
<circle cx="799" cy="328" r="18" fill="#78ABCD"/>
<circle cx="799" cy="379" r="18" fill="#78ABCD"/>
<circle cx="799" cy="430" r="18" fill="#78ABCD"/>
<circle cx="799" cy="481" r="18" fill="#78ABCD"/>
<circle cx="799" cy="532" r="18" fill="#78ABCD"/>
<circle cx="864" cy="124" r="18" fill="#78ABCD"/>
<circle cx="864" cy="175" r="18" fill="#78ABCD"/>
<circle cx="864" cy="226" r="18" fill="#78ABCD"/>
<circle cx="864" cy="277" r="18" fill="#78ABCD"/>
<circle cx="864" cy="328" r="18" fill="#78ABCD"/>
<circle cx="864" cy="379" r="18" fill="#78ABCD"/>
<circle cx="864" cy="430" r="18" fill="#78ABCD"/>
<circle cx="864" cy="481" r="18" fill="#78ABCD"/>
<circle cx="864" cy="532" r="18" fill="#78ABCD"/>
<circle cx="929" cy="124" r="18" fill="#78ABCD"/>
<circle cx="929" cy="175" r="18" fill="#78ABCD"/>
<circle cx="929" cy="226" r="18" fill="#78ABCD"/>
<circle cx="929" cy="277" r="18" fill="#78ABCD"/>
<circle cx="929" cy="328" r="18" fill="#78ABCD"/>
<circle cx="929" cy="379" r="18" fill="#78ABCD"/>
<circle cx="929" cy="430" r="18" fill="#78ABCD"/>
<circle cx="929" cy="481" r="18" fill="#78ABCD"/>
<circle cx="929" cy="532" r="18" fill="#78ABCD"/>
<circle cx="994" cy="124" r="18" fill="#78ABCD"/>
<circle cx="994" cy="175" r="18" fill="#78ABCD"/>
<circle cx="994" cy="226" r="18" fill="#78ABCD"/>
<circle cx="994" cy="277" r="18" fill="#78ABCD"/>
<circle cx="994" cy="328" r="18" fill="#78ABCD"/>
<circle cx="994" cy="379" r="18" fill="#78ABCD"/>
<circle cx="994" cy="430" r="18" fill="#78ABCD"/>
<circle cx="994" cy="481" r="18" fill="#78ABCD"/>
<circle cx="994" cy="532" r="18" fill="#78ABCD"/>
<circle cx="1059" cy="124" r="18" fill="#78ABCD"/>
<circle cx="1059" cy="175" r="18" fill="#78ABCD"/>
<circle cx="1059" cy="226" r="18" fill="#78ABCD"/>
<circle cx="1059" cy="277" r="18" fill="#78ABCD"/>
<circle cx="1059" cy="328" r="18" fill="#78ABCD"/>
<circle cx="1059" cy="379" r="18" fill="#78ABCD"/>
<circle cx="1059" cy="430" r="18" fill="#78ABCD"/>
<circle cx="1059" cy="481" r="18" fill="#78ABCD"/>
<circle cx="1059" cy="532" r="18" fill="#78ABCD"/>
</svg>
