<svg width="1280" height="832" viewBox="0 0 1280 832" fill="none" xmlns="http://www.w3.org/2000/svg">
<rect width="1280" height="832" fill="#0A0A0A"/>
<rect x="321.5" y="641" width="638" height="120" rx="24" fill="#141414"/>
<path d="M379.042 676.048V681.64H385.138V683.44H379.042V689.2H385.858V691H376.858V674.248H385.858V676.048H379.042ZM393.795 688.984L397.875 677.848H400.203L395.043 691H392.499L387.339 677.848H389.691L393.795 688.984ZM414.088 683.92C414.088 684.336 414.064 684.776 414.016 685.24H403.504C403.584 686.536 404.024 687.552 404.824 688.288C405.64 689.008 406.624 689.368 407.776 689.368C408.72 689.368 409.504 689.152 410.128 688.72C410.768 688.272 411.216 687.68 411.472 686.944H413.824C413.472 688.208 412.768 689.24 411.712 690.04C410.656 690.824 409.344 691.216 407.776 691.216C406.528 691.216 405.408 690.936 404.416 690.376C403.44 689.816 402.672 689.024 402.112 688C401.552 686.96 401.272 685.76 401.272 684.4C401.272 683.04 401.544 681.848 402.088 680.824C402.632 679.8 403.392 679.016 404.368 678.472C405.36 677.912 406.496 677.632 407.776 677.632C409.024 677.632 410.128 677.904 411.088 678.448C412.048 678.992 412.784 679.744 413.296 680.704C413.824 681.648 414.088 682.72 414.088 683.92ZM411.832 683.464C411.832 682.632 411.648 681.92 411.28 681.328C410.912 680.72 410.408 680.264 409.768 679.96C409.144 679.64 408.448 679.48 407.68 679.48C406.576 679.48 405.632 679.832 404.848 680.536C404.08 681.24 403.64 682.216 403.528 683.464H411.832ZM418.891 679.984C419.275 679.232 419.819 678.648 420.523 678.232C421.243 677.816 422.115 677.608 423.139 677.608V679.864H422.563C420.115 679.864 418.891 681.192 418.891 683.848V691H416.707V677.848H418.891V679.984ZM436.724 677.848L428.804 697.192H426.548L429.14 690.856L423.836 677.848H426.26L430.388 688.504L434.468 677.848H436.724ZM445.918 675.712C445.502 675.712 445.15 675.568 444.862 675.28C444.574 674.992 444.43 674.64 444.43 674.224C444.43 673.808 444.574 673.456 444.862 673.168C445.15 672.88 445.502 672.736 445.918 672.736C446.318 672.736 446.654 672.88 446.926 673.168C447.214 673.456 447.358 673.808 447.358 674.224C447.358 674.64 447.214 674.992 446.926 675.28C446.654 675.568 446.318 675.712 445.918 675.712ZM446.974 677.848V691H444.79V677.848H446.974ZM456.84 677.608C458.44 677.608 459.736 678.096 460.728 679.072C461.72 680.032 462.216 681.424 462.216 683.248V691H460.056V683.56C460.056 682.248 459.728 681.248 459.072 680.56C458.416 679.856 457.52 679.504 456.384 679.504C455.232 679.504 454.312 679.864 453.624 680.584C452.952 681.304 452.616 682.352 452.616 683.728V691H450.432V677.848H452.616V679.72C453.048 679.048 453.632 678.528 454.368 678.16C455.12 677.792 455.944 677.608 456.84 677.608ZM468.184 679.648V687.4C468.184 688.04 468.32 688.496 468.592 688.768C468.864 689.024 469.336 689.152 470.008 689.152H471.616V691H469.648C468.432 691 467.52 690.72 466.912 690.16C466.304 689.6 466 688.68 466 687.4V679.648H464.296V677.848H466V674.536H468.184V677.848H471.616V679.648H468.184ZM485.998 683.92C485.998 684.336 485.974 684.776 485.926 685.24H475.414C475.494 686.536 475.934 687.552 476.734 688.288C477.55 689.008 478.534 689.368 479.686 689.368C480.63 689.368 481.414 689.152 482.038 688.72C482.678 688.272 483.126 687.68 483.382 686.944H485.734C485.382 688.208 484.678 689.24 483.622 690.04C482.566 690.824 481.254 691.216 479.686 691.216C478.438 691.216 477.318 690.936 476.326 690.376C475.35 689.816 474.582 689.024 474.022 688C473.462 686.96 473.182 685.76 473.182 684.4C473.182 683.04 473.454 681.848 473.998 680.824C474.542 679.8 475.302 679.016 476.278 678.472C477.27 677.912 478.406 677.632 479.686 677.632C480.934 677.632 482.038 677.904 482.998 678.448C483.958 678.992 484.694 679.744 485.206 680.704C485.734 681.648 485.998 682.72 485.998 683.92ZM483.742 683.464C483.742 682.632 483.558 681.92 483.19 681.328C482.822 680.72 482.318 680.264 481.678 679.96C481.054 679.64 480.358 679.48 479.59 679.48C478.486 679.48 477.542 679.832 476.758 680.536C475.99 681.24 475.55 682.216 475.438 683.464H483.742ZM490.801 679.984C491.185 679.232 491.729 678.648 492.433 678.232C493.153 677.816 494.025 677.608 495.049 677.608V679.864H494.473C492.025 679.864 490.801 681.192 490.801 683.848V691H488.617V677.848H490.801V679.984ZM496.49 684.376C496.49 683.032 496.762 681.856 497.306 680.848C497.85 679.824 498.594 679.032 499.538 678.472C500.498 677.912 501.562 677.632 502.73 677.632C503.882 677.632 504.882 677.88 505.73 678.376C506.578 678.872 507.21 679.496 507.626 680.248V677.848H509.834V691H507.626V688.552C507.194 689.32 506.546 689.96 505.682 690.472C504.834 690.968 503.842 691.216 502.706 691.216C501.538 691.216 500.482 690.928 499.538 690.352C498.594 689.776 497.85 688.968 497.306 687.928C496.762 686.888 496.49 685.704 496.49 684.376ZM507.626 684.4C507.626 683.408 507.426 682.544 507.026 681.808C506.626 681.072 506.082 680.512 505.394 680.128C504.722 679.728 503.978 679.528 503.162 679.528C502.346 679.528 501.602 679.72 500.93 680.104C500.258 680.488 499.722 681.048 499.322 681.784C498.922 682.52 498.722 683.384 498.722 684.376C498.722 685.384 498.922 686.264 499.322 687.016C499.722 687.752 500.258 688.32 500.93 688.72C501.602 689.104 502.346 689.296 503.162 689.296C503.978 689.296 504.722 689.104 505.394 688.72C506.082 688.32 506.626 687.752 507.026 687.016C507.426 686.264 507.626 685.392 507.626 684.4ZM512.445 684.4C512.445 683.04 512.717 681.856 513.261 680.848C513.805 679.824 514.557 679.032 515.517 678.472C516.493 677.912 517.605 677.632 518.853 677.632C520.469 677.632 521.797 678.024 522.837 678.808C523.893 679.592 524.589 680.68 524.925 682.072H522.573C522.349 681.272 521.909 680.64 521.253 680.176C520.613 679.712 519.813 679.48 518.853 679.48C517.605 679.48 516.597 679.912 515.829 680.776C515.061 681.624 514.677 682.832 514.677 684.4C514.677 685.984 515.061 687.208 515.829 688.072C516.597 688.936 517.605 689.368 518.853 689.368C519.813 689.368 520.613 689.144 521.253 688.696C521.893 688.248 522.333 687.608 522.573 686.776H524.925C524.573 688.12 523.869 689.2 522.813 690.016C521.757 690.816 520.437 691.216 518.853 691.216C517.605 691.216 516.493 690.936 515.517 690.376C514.557 689.816 513.805 689.024 513.261 688C512.717 686.976 512.445 685.776 512.445 684.4ZM530.239 679.648V687.4C530.239 688.04 530.375 688.496 530.647 688.768C530.919 689.024 531.391 689.152 532.063 689.152H533.671V691H531.703C530.487 691 529.575 690.72 528.967 690.16C528.359 689.6 528.055 688.68 528.055 687.4V679.648H526.351V677.848H528.055V674.536H530.239V677.848H533.671V679.648H530.239ZM537.181 675.712C536.765 675.712 536.413 675.568 536.125 675.28C535.837 674.992 535.693 674.64 535.693 674.224C535.693 673.808 535.837 673.456 536.125 673.168C536.413 672.88 536.765 672.736 537.181 672.736C537.581 672.736 537.917 672.88 538.189 673.168C538.477 673.456 538.621 673.808 538.621 674.224C538.621 674.64 538.477 674.992 538.189 675.28C537.917 675.568 537.581 675.712 537.181 675.712ZM538.237 677.848V691H536.053V677.848H538.237ZM547.431 691.216C546.199 691.216 545.079 690.936 544.071 690.376C543.079 689.816 542.295 689.024 541.719 688C541.159 686.96 540.879 685.76 540.879 684.4C540.879 683.056 541.167 681.872 541.743 680.848C542.335 679.808 543.135 679.016 544.143 678.472C545.151 677.912 546.279 677.632 547.527 677.632C548.775 677.632 549.903 677.912 550.911 678.472C551.919 679.016 552.711 679.8 553.287 680.824C553.879 681.848 554.175 683.04 554.175 684.4C554.175 685.76 553.871 686.96 553.263 688C552.671 689.024 551.863 689.816 550.839 690.376C549.815 690.936 548.679 691.216 547.431 691.216ZM547.431 689.296C548.215 689.296 548.951 689.112 549.639 688.744C550.327 688.376 550.879 687.824 551.295 687.088C551.727 686.352 551.943 685.456 551.943 684.4C551.943 683.344 551.735 682.448 551.319 681.712C550.903 680.976 550.359 680.432 549.687 680.08C549.015 679.712 548.287 679.528 547.503 679.528C546.703 679.528 545.967 679.712 545.295 680.08C544.639 680.432 544.111 680.976 543.711 681.712C543.311 682.448 543.111 683.344 543.111 684.4C543.111 685.472 543.303 686.376 543.687 687.112C544.087 687.848 544.615 688.4 545.271 688.768C545.927 689.12 546.647 689.296 547.431 689.296ZM563.191 677.608C564.791 677.608 566.087 678.096 567.079 679.072C568.071 680.032 568.567 681.424 568.567 683.248V691H566.407V683.56C566.407 682.248 566.079 681.248 565.423 680.56C564.767 679.856 563.871 679.504 562.735 679.504C561.583 679.504 560.663 679.864 559.975 680.584C559.303 681.304 558.967 682.352 558.967 683.728V691H556.783V677.848H558.967V679.72C559.399 679.048 559.983 678.528 560.719 678.16C561.471 677.792 562.295 677.608 563.191 677.608ZM580.189 679.984C580.573 679.232 581.117 678.648 581.821 678.232C582.541 677.816 583.413 677.608 584.437 677.608V679.864H583.861C581.413 679.864 580.189 681.192 580.189 683.848V691H578.005V677.848H580.189V679.984ZM598.694 683.92C598.694 684.336 598.67 684.776 598.622 685.24H588.11C588.19 686.536 588.63 687.552 589.43 688.288C590.246 689.008 591.23 689.368 592.382 689.368C593.326 689.368 594.11 689.152 594.734 688.72C595.374 688.272 595.822 687.68 596.078 686.944H598.43C598.078 688.208 597.374 689.24 596.318 690.04C595.262 690.824 593.95 691.216 592.382 691.216C591.134 691.216 590.014 690.936 589.022 690.376C588.046 689.816 587.278 689.024 586.718 688C586.158 686.96 585.878 685.76 585.878 684.4C585.878 683.04 586.15 681.848 586.694 680.824C587.238 679.8 587.998 679.016 588.974 678.472C589.966 677.912 591.102 677.632 592.382 677.632C593.63 677.632 594.734 677.904 595.694 678.448C596.654 678.992 597.39 679.744 597.902 680.704C598.43 681.648 598.694 682.72 598.694 683.92ZM596.438 683.464C596.438 682.632 596.254 681.92 595.886 681.328C595.518 680.72 595.014 680.264 594.374 679.96C593.75 679.64 593.054 679.48 592.286 679.48C591.182 679.48 590.238 679.832 589.454 680.536C588.686 681.24 588.246 682.216 588.134 683.464H596.438ZM600.497 684.376C600.497 683.032 600.769 681.856 601.313 680.848C601.857 679.824 602.601 679.032 603.545 678.472C604.505 677.912 605.577 677.632 606.761 677.632C607.897 677.632 608.889 677.888 609.737 678.4C610.601 678.896 611.233 679.512 611.633 680.248V677.848H613.841V697.24H611.633V688.576C611.217 689.312 610.577 689.936 609.713 690.448C608.849 690.96 607.841 691.216 606.689 691.216C605.537 691.216 604.489 690.928 603.545 690.352C602.601 689.776 601.857 688.968 601.313 687.928C600.769 686.888 600.497 685.704 600.497 684.376ZM611.633 684.4C611.633 683.408 611.433 682.544 611.033 681.808C610.633 681.072 610.089 680.512 609.401 680.128C608.729 679.728 607.985 679.528 607.169 679.528C606.353 679.528 605.609 679.72 604.937 680.104C604.265 680.488 603.729 681.048 603.329 681.784C602.929 682.52 602.729 683.384 602.729 684.376C602.729 685.384 602.929 686.264 603.329 687.016C603.729 687.752 604.265 688.32 604.937 688.72C605.609 689.104 606.353 689.296 607.169 689.296C607.985 689.296 608.729 689.104 609.401 688.72C610.089 688.32 610.633 687.752 611.033 687.016C611.433 686.264 611.633 685.392 611.633 684.4ZM628.931 677.848V691H626.747V689.056C626.331 689.728 625.747 690.256 624.995 690.64C624.259 691.008 623.443 691.192 622.547 691.192C621.523 691.192 620.603 690.984 619.787 690.568C618.971 690.136 618.323 689.496 617.843 688.648C617.379 687.8 617.147 686.768 617.147 685.552V677.848H619.307V685.264C619.307 686.56 619.635 687.56 620.291 688.264C620.947 688.952 621.843 689.296 622.979 689.296C624.147 689.296 625.067 688.936 625.739 688.216C626.411 687.496 626.747 686.448 626.747 685.072V677.848H628.931ZM633.483 675.712C633.067 675.712 632.715 675.568 632.427 675.28C632.139 674.992 631.995 674.64 631.995 674.224C631.995 673.808 632.139 673.456 632.427 673.168C632.715 672.88 633.067 672.736 633.483 672.736C633.883 672.736 634.219 672.88 634.491 673.168C634.779 673.456 634.923 673.808 634.923 674.224C634.923 674.64 634.779 674.992 634.491 675.28C634.219 675.568 633.883 675.712 633.483 675.712ZM634.539 677.848V691H632.355V677.848H634.539ZM640.181 679.984C640.565 679.232 641.109 678.648 641.813 678.232C642.533 677.816 643.405 677.608 644.429 677.608V679.864H643.853C641.405 679.864 640.181 681.192 640.181 683.848V691H637.997V677.848H640.181V679.984ZM658.686 683.92C658.686 684.336 658.662 684.776 658.614 685.24H648.102C648.182 686.536 648.622 687.552 649.422 688.288C650.238 689.008 651.222 689.368 652.374 689.368C653.318 689.368 654.102 689.152 654.726 688.72C655.366 688.272 655.814 687.68 656.07 686.944H658.422C658.07 688.208 657.366 689.24 656.31 690.04C655.254 690.824 653.942 691.216 652.374 691.216C651.126 691.216 650.006 690.936 649.014 690.376C648.038 689.816 647.27 689.024 646.71 688C646.15 686.96 645.87 685.76 645.87 684.4C645.87 683.04 646.142 681.848 646.686 680.824C647.23 679.8 647.99 679.016 648.966 678.472C649.958 677.912 651.094 677.632 652.374 677.632C653.622 677.632 654.726 677.904 655.686 678.448C656.646 678.992 657.382 679.744 657.894 680.704C658.422 681.648 658.686 682.72 658.686 683.92ZM656.43 683.464C656.43 682.632 656.246 681.92 655.878 681.328C655.51 680.72 655.006 680.264 654.366 679.96C653.742 679.64 653.046 679.48 652.278 679.48C651.174 679.48 650.23 679.832 649.446 680.536C648.678 681.24 648.238 682.216 648.126 683.464H656.43ZM665.961 691.216C664.953 691.216 664.049 691.048 663.249 690.712C662.449 690.36 661.817 689.88 661.353 689.272C660.889 688.648 660.633 687.936 660.585 687.136H662.841C662.905 687.792 663.209 688.328 663.753 688.744C664.313 689.16 665.041 689.368 665.937 689.368C666.769 689.368 667.425 689.184 667.905 688.816C668.385 688.448 668.625 687.984 668.625 687.424C668.625 686.848 668.369 686.424 667.857 686.152C667.345 685.864 666.553 685.584 665.481 685.312C664.505 685.056 663.705 684.8 663.081 684.544C662.473 684.272 661.945 683.88 661.497 683.368C661.065 682.84 660.849 682.152 660.849 681.304C660.849 680.632 661.049 680.016 661.449 679.456C661.849 678.896 662.417 678.456 663.153 678.136C663.889 677.8 664.729 677.632 665.673 677.632C667.129 677.632 668.305 678 669.201 678.736C670.097 679.472 670.577 680.48 670.641 681.76H668.457C668.409 681.072 668.129 680.52 667.617 680.104C667.121 679.688 666.449 679.48 665.601 679.48C664.817 679.48 664.193 679.648 663.729 679.984C663.265 680.32 663.033 680.76 663.033 681.304C663.033 681.736 663.169 682.096 663.441 682.384C663.729 682.656 664.081 682.88 664.497 683.056C664.929 683.216 665.521 683.4 666.273 683.608C667.217 683.864 667.985 684.12 668.577 684.376C669.169 684.616 669.673 684.984 670.089 685.48C670.521 685.976 670.745 686.624 670.761 687.424C670.761 688.144 670.561 688.792 670.161 689.368C669.761 689.944 669.193 690.4 668.457 690.736C667.737 691.056 666.905 691.216 665.961 691.216ZM682.379 679.648V687.4C682.379 688.04 682.515 688.496 682.787 688.768C683.059 689.024 683.531 689.152 684.203 689.152H685.811V691H683.843C682.627 691 681.715 690.72 681.107 690.16C680.499 689.6 680.195 688.68 680.195 687.4V679.648H678.491V677.848H680.195V674.536H682.379V677.848H685.811V679.648H682.379ZM694.721 677.608C695.713 677.608 696.609 677.824 697.409 678.256C698.209 678.672 698.833 679.304 699.281 680.152C699.745 681 699.977 682.032 699.977 683.248V691H697.817V683.56C697.817 682.248 697.489 681.248 696.833 680.56C696.177 679.856 695.281 679.504 694.145 679.504C692.993 679.504 692.073 679.864 691.385 680.584C690.713 681.304 690.377 682.352 690.377 683.728V691H688.193V673.24H690.377V679.72C690.809 679.048 691.401 678.528 692.153 678.16C692.921 677.792 693.777 677.608 694.721 677.608ZM715.28 683.92C715.28 684.336 715.256 684.776 715.208 685.24H704.696C704.776 686.536 705.216 687.552 706.016 688.288C706.832 689.008 707.816 689.368 708.968 689.368C709.912 689.368 710.696 689.152 711.32 688.72C711.96 688.272 712.408 687.68 712.664 686.944H715.016C714.664 688.208 713.96 689.24 712.904 690.04C711.848 690.824 710.536 691.216 708.968 691.216C707.72 691.216 706.6 690.936 705.608 690.376C704.632 689.816 703.864 689.024 703.304 688C702.744 686.96 702.464 685.76 702.464 684.4C702.464 683.04 702.736 681.848 703.28 680.824C703.824 679.8 704.584 679.016 705.56 678.472C706.552 677.912 707.688 677.632 708.968 677.632C710.216 677.632 711.32 677.904 712.28 678.448C713.24 678.992 713.976 679.744 714.488 680.704C715.016 681.648 715.28 682.72 715.28 683.92ZM713.024 683.464C713.024 682.632 712.84 681.92 712.472 681.328C712.104 680.72 711.6 680.264 710.96 679.96C710.336 679.64 709.64 679.48 708.872 679.48C707.768 679.48 706.824 679.832 706.04 680.536C705.272 681.24 704.832 682.216 704.72 683.464H713.024ZM733.715 677.608C734.739 677.608 735.651 677.824 736.451 678.256C737.251 678.672 737.883 679.304 738.347 680.152C738.811 681 739.043 682.032 739.043 683.248V691H736.883V683.56C736.883 682.248 736.555 681.248 735.899 680.56C735.259 679.856 734.387 679.504 733.283 679.504C732.147 679.504 731.243 679.872 730.571 680.608C729.899 681.328 729.563 682.376 729.563 683.752V691H727.403V683.56C727.403 682.248 727.075 681.248 726.419 680.56C725.779 679.856 724.907 679.504 723.803 679.504C722.667 679.504 721.763 679.872 721.091 680.608C720.419 681.328 720.083 682.376 720.083 683.752V691H717.899V677.848H720.083V679.744C720.515 679.056 721.091 678.528 721.811 678.16C722.547 677.792 723.355 677.608 724.235 677.608C725.339 677.608 726.315 677.856 727.163 678.352C728.011 678.848 728.643 679.576 729.059 680.536C729.427 679.608 730.035 678.888 730.883 678.376C731.731 677.864 732.675 677.608 733.715 677.608ZM751.16 679.648V687.4C751.16 688.04 751.296 688.496 751.568 688.768C751.84 689.024 752.312 689.152 752.984 689.152H754.592V691H752.624C751.408 691 750.496 690.72 749.888 690.16C749.28 689.6 748.976 688.68 748.976 687.4V679.648H747.272V677.848H748.976V674.536H751.16V677.848H754.592V679.648H751.16ZM762.71 691.216C761.478 691.216 760.358 690.936 759.35 690.376C758.358 689.816 757.574 689.024 756.998 688C756.438 686.96 756.158 685.76 756.158 684.4C756.158 683.056 756.446 681.872 757.022 680.848C757.614 679.808 758.414 679.016 759.422 678.472C760.43 677.912 761.558 677.632 762.806 677.632C764.054 677.632 765.182 677.912 766.19 678.472C767.198 679.016 767.99 679.8 768.566 680.824C769.158 681.848 769.454 683.04 769.454 684.4C769.454 685.76 769.15 686.96 768.542 688C767.95 689.024 767.142 689.816 766.118 690.376C765.094 690.936 763.958 691.216 762.71 691.216ZM762.71 689.296C763.494 689.296 764.23 689.112 764.918 688.744C765.606 688.376 766.158 687.824 766.574 687.088C767.006 686.352 767.222 685.456 767.222 684.4C767.222 683.344 767.014 682.448 766.598 681.712C766.182 680.976 765.638 680.432 764.966 680.08C764.294 679.712 763.566 679.528 762.782 679.528C761.982 679.528 761.246 679.712 760.574 680.08C759.918 680.432 759.39 680.976 758.99 681.712C758.59 682.448 758.39 683.344 758.39 684.4C758.39 685.472 758.582 686.376 758.966 687.112C759.366 687.848 759.894 688.4 760.55 688.768C761.206 689.12 761.926 689.296 762.71 689.296ZM795.716 677.848L791.612 691H789.356L786.188 680.56L783.02 691H780.764L776.636 677.848H778.868L781.892 688.888L785.156 677.848H787.388L790.58 688.912L793.556 677.848H795.716ZM809.62 683.92C809.62 684.336 809.596 684.776 809.548 685.24H799.036C799.116 686.536 799.556 687.552 800.356 688.288C801.172 689.008 802.156 689.368 803.308 689.368C804.252 689.368 805.036 689.152 805.66 688.72C806.3 688.272 806.748 687.68 807.004 686.944H809.356C809.004 688.208 808.3 689.24 807.244 690.04C806.188 690.824 804.876 691.216 803.308 691.216C802.06 691.216 800.94 690.936 799.948 690.376C798.972 689.816 798.204 689.024 797.644 688C797.084 686.96 796.804 685.76 796.804 684.4C796.804 683.04 797.076 681.848 797.62 680.824C798.164 679.8 798.924 679.016 799.9 678.472C800.892 677.912 802.028 677.632 803.308 677.632C804.556 677.632 805.66 677.904 806.62 678.448C807.58 678.992 808.316 679.744 808.828 680.704C809.356 681.648 809.62 682.72 809.62 683.92ZM807.364 683.464C807.364 682.632 807.18 681.92 806.812 681.328C806.444 680.72 805.94 680.264 805.3 679.96C804.676 679.64 803.98 679.48 803.212 679.48C802.108 679.48 801.164 679.832 800.38 680.536C799.612 681.24 799.172 682.216 799.06 683.464H807.364ZM813.367 675.712C812.951 675.712 812.599 675.568 812.311 675.28C812.023 674.992 811.879 674.64 811.879 674.224C811.879 673.808 812.023 673.456 812.311 673.168C812.599 672.88 812.951 672.736 813.367 672.736C813.767 672.736 814.103 672.88 814.375 673.168C814.663 673.456 814.807 673.808 814.807 674.224C814.807 674.64 814.663 674.992 814.375 675.28C814.103 675.568 813.767 675.712 813.367 675.712ZM814.423 677.848V691H812.239V677.848H814.423ZM823.305 677.632C824.441 677.632 825.433 677.88 826.281 678.376C827.145 678.872 827.785 679.496 828.201 680.248V677.848H830.409V691.288C830.409 692.488 830.153 693.552 829.641 694.48C829.129 695.424 828.393 696.16 827.433 696.688C826.489 697.216 825.385 697.48 824.121 697.48C822.393 697.48 820.953 697.072 819.801 696.256C818.649 695.44 817.969 694.328 817.761 692.92H819.921C820.161 693.72 820.657 694.36 821.409 694.84C822.161 695.336 823.065 695.584 824.121 695.584C825.321 695.584 826.297 695.208 827.049 694.456C827.817 693.704 828.201 692.648 828.201 691.288V688.528C827.769 689.296 827.129 689.936 826.281 690.448C825.433 690.96 824.441 691.216 823.305 691.216C822.137 691.216 821.073 690.928 820.113 690.352C819.169 689.776 818.425 688.968 817.881 687.928C817.337 686.888 817.065 685.704 817.065 684.376C817.065 683.032 817.337 681.856 817.881 680.848C818.425 679.824 819.169 679.032 820.113 678.472C821.073 677.912 822.137 677.632 823.305 677.632ZM828.201 684.4C828.201 683.408 828.001 682.544 827.601 681.808C827.201 681.072 826.657 680.512 825.969 680.128C825.297 679.728 824.553 679.528 823.737 679.528C822.921 679.528 822.177 679.72 821.505 680.104C820.833 680.488 820.297 681.048 819.897 681.784C819.497 682.52 819.297 683.384 819.297 684.376C819.297 685.384 819.497 686.264 819.897 687.016C820.297 687.752 820.833 688.32 821.505 688.72C822.177 689.104 822.921 689.296 823.737 689.296C824.553 689.296 825.297 689.104 825.969 688.72C826.657 688.32 827.201 687.752 827.601 687.016C828.001 686.264 828.201 685.392 828.201 684.4ZM840.364 677.608C841.356 677.608 842.252 677.824 843.052 678.256C843.852 678.672 844.476 679.304 844.924 680.152C845.388 681 845.62 682.032 845.62 683.248V691H843.46V683.56C843.46 682.248 843.132 681.248 842.476 680.56C841.82 679.856 840.924 679.504 839.788 679.504C838.636 679.504 837.716 679.864 837.028 680.584C836.356 681.304 836.02 682.352 836.02 683.728V691H833.836V673.24H836.02V679.72C836.452 679.048 837.044 678.528 837.796 678.16C838.564 677.792 839.42 677.608 840.364 677.608ZM857.722 679.648V687.4C857.722 688.04 857.858 688.496 858.13 688.768C858.402 689.024 858.874 689.152 859.546 689.152H861.154V691H859.186C857.97 691 857.058 690.72 856.45 690.16C855.842 689.6 855.538 688.68 855.538 687.4V679.648H853.834V677.848H855.538V674.536H857.722V677.848H861.154V679.648H857.722ZM870.064 677.608C871.056 677.608 871.952 677.824 872.752 678.256C873.552 678.672 874.176 679.304 874.624 680.152C875.088 681 875.32 682.032 875.32 683.248V691H873.16V683.56C873.16 682.248 872.832 681.248 872.176 680.56C871.52 679.856 870.624 679.504 869.488 679.504C868.336 679.504 867.416 679.864 866.728 680.584C866.056 681.304 865.72 682.352 865.72 683.728V691H863.536V673.24H865.72V679.72C866.152 679.048 866.744 678.528 867.496 678.16C868.264 677.792 869.12 677.608 870.064 677.608ZM890.624 683.92C890.624 684.336 890.6 684.776 890.552 685.24H880.04C880.12 686.536 880.56 687.552 881.36 688.288C882.176 689.008 883.16 689.368 884.312 689.368C885.256 689.368 886.04 689.152 886.664 688.72C887.304 688.272 887.752 687.68 888.008 686.944H890.36C890.008 688.208 889.304 689.24 888.248 690.04C887.192 690.824 885.88 691.216 884.312 691.216C883.064 691.216 881.944 690.936 880.952 690.376C879.976 689.816 879.208 689.024 878.648 688C878.088 686.96 877.808 685.76 877.808 684.4C877.808 683.04 878.08 681.848 878.624 680.824C879.168 679.8 879.928 679.016 880.904 678.472C881.896 677.912 883.032 677.632 884.312 677.632C885.56 677.632 886.664 677.904 887.624 678.448C888.584 678.992 889.32 679.744 889.832 680.704C890.36 681.648 890.624 682.72 890.624 683.92ZM888.368 683.464C888.368 682.632 888.184 681.92 887.816 681.328C887.448 680.72 886.944 680.264 886.304 679.96C885.68 679.64 884.984 679.48 884.216 679.48C883.112 679.48 882.168 679.832 881.384 680.536C880.616 681.24 880.176 682.216 880.064 683.464H888.368ZM894.37 675.712C893.954 675.712 893.602 675.568 893.314 675.28C893.026 674.992 892.882 674.64 892.882 674.224C892.882 673.808 893.026 673.456 893.314 673.168C893.602 672.88 893.954 672.736 894.37 672.736C894.77 672.736 895.106 672.88 895.378 673.168C895.666 673.456 895.81 673.808 895.81 674.224C895.81 674.64 895.666 674.992 895.378 675.28C895.106 675.568 894.77 675.712 894.37 675.712ZM895.426 677.848V691H893.242V677.848H895.426ZM901.069 679.984C901.453 679.232 901.997 678.648 902.701 678.232C903.421 677.816 904.293 677.608 905.317 677.608V679.864H904.741C902.293 679.864 901.069 681.192 901.069 683.848V691H898.885V677.848H901.069V679.984ZM362.537 720.4C362.537 719.04 362.809 717.856 363.353 716.848C363.897 715.824 364.649 715.032 365.609 714.472C366.585 713.912 367.697 713.632 368.945 713.632C370.561 713.632 371.889 714.024 372.929 714.808C373.985 715.592 374.681 716.68 375.017 718.072H372.665C372.441 717.272 372.001 716.64 371.345 716.176C370.705 715.712 369.905 715.48 368.945 715.48C367.697 715.48 366.689 715.912 365.921 716.776C365.153 717.624 364.769 718.832 364.769 720.4C364.769 721.984 365.153 723.208 365.921 724.072C366.689 724.936 367.697 725.368 368.945 725.368C369.905 725.368 370.705 725.144 371.345 724.696C371.985 724.248 372.425 723.608 372.665 722.776H375.017C374.665 724.12 373.961 725.2 372.905 726.016C371.849 726.816 370.529 727.216 368.945 727.216C367.697 727.216 366.585 726.936 365.609 726.376C364.649 725.816 363.897 725.024 363.353 724C362.809 722.976 362.537 721.776 362.537 720.4ZM383.403 727.216C382.171 727.216 381.051 726.936 380.043 726.376C379.051 725.816 378.267 725.024 377.691 724C377.131 722.96 376.851 721.76 376.851 720.4C376.851 719.056 377.139 717.872 377.715 716.848C378.307 715.808 379.107 715.016 380.115 714.472C381.123 713.912 382.251 713.632 383.499 713.632C384.747 713.632 385.875 713.912 386.883 714.472C387.891 715.016 388.683 715.8 389.259 716.824C389.851 717.848 390.147 719.04 390.147 720.4C390.147 721.76 389.843 722.96 389.235 724C388.643 725.024 387.835 725.816 386.811 726.376C385.787 726.936 384.651 727.216 383.403 727.216ZM383.403 725.296C384.187 725.296 384.923 725.112 385.611 724.744C386.299 724.376 386.851 723.824 387.267 723.088C387.699 722.352 387.915 721.456 387.915 720.4C387.915 719.344 387.707 718.448 387.291 717.712C386.875 716.976 386.331 716.432 385.659 716.08C384.987 715.712 384.259 715.528 383.475 715.528C382.675 715.528 381.939 715.712 381.267 716.08C380.611 716.432 380.083 716.976 379.683 717.712C379.283 718.448 379.083 719.344 379.083 720.4C379.083 721.472 379.275 722.376 379.659 723.112C380.059 723.848 380.587 724.4 381.243 724.768C381.899 725.12 382.619 725.296 383.403 725.296ZM408.57 713.608C409.594 713.608 410.506 713.824 411.306 714.256C412.106 714.672 412.738 715.304 413.202 716.152C413.666 717 413.898 718.032 413.898 719.248V727H411.738V719.56C411.738 718.248 411.41 717.248 410.754 716.56C410.114 715.856 409.242 715.504 408.138 715.504C407.002 715.504 406.098 715.872 405.426 716.608C404.754 717.328 404.418 718.376 404.418 719.752V727H402.258V719.56C402.258 718.248 401.93 717.248 401.274 716.56C400.634 715.856 399.762 715.504 398.658 715.504C397.522 715.504 396.618 715.872 395.946 716.608C395.274 717.328 394.938 718.376 394.938 719.752V727H392.754V713.848H394.938V715.744C395.37 715.056 395.946 714.528 396.666 714.16C397.402 713.792 398.21 713.608 399.09 713.608C400.194 713.608 401.17 713.856 402.018 714.352C402.866 714.848 403.498 715.576 403.914 716.536C404.282 715.608 404.89 714.888 405.738 714.376C406.586 713.864 407.53 713.608 408.57 713.608ZM422.569 715.648H419.809V727H417.625V715.648H415.921V713.848H417.625V712.912C417.625 711.44 418.001 710.368 418.753 709.696C419.521 709.008 420.745 708.664 422.425 708.664V710.488C421.465 710.488 420.785 710.68 420.385 711.064C420.001 711.432 419.809 712.048 419.809 712.912V713.848H422.569V715.648ZM430.587 727.216C429.355 727.216 428.235 726.936 427.227 726.376C426.235 725.816 425.451 725.024 424.875 724C424.315 722.96 424.035 721.76 424.035 720.4C424.035 719.056 424.323 717.872 424.899 716.848C425.491 715.808 426.291 715.016 427.299 714.472C428.307 713.912 429.435 713.632 430.683 713.632C431.931 713.632 433.059 713.912 434.067 714.472C435.075 715.016 435.867 715.8 436.443 716.824C437.035 717.848 437.331 719.04 437.331 720.4C437.331 721.76 437.027 722.96 436.419 724C435.827 725.024 435.019 725.816 433.995 726.376C432.971 726.936 431.835 727.216 430.587 727.216ZM430.587 725.296C431.371 725.296 432.107 725.112 432.795 724.744C433.483 724.376 434.035 723.824 434.451 723.088C434.883 722.352 435.099 721.456 435.099 720.4C435.099 719.344 434.891 718.448 434.475 717.712C434.059 716.976 433.515 716.432 432.843 716.08C432.171 715.712 431.443 715.528 430.659 715.528C429.859 715.528 429.123 715.712 428.451 716.08C427.795 716.432 427.267 716.976 426.867 717.712C426.467 718.448 426.267 719.344 426.267 720.4C426.267 721.472 426.459 722.376 426.843 723.112C427.243 723.848 427.771 724.4 428.427 724.768C429.083 725.12 429.803 725.296 430.587 725.296ZM442.123 715.984C442.507 715.232 443.051 714.648 443.755 714.232C444.475 713.816 445.347 713.608 446.371 713.608V715.864H445.795C443.347 715.864 442.123 717.192 442.123 719.848V727H439.939V713.848H442.123V715.984ZM451.292 715.648V723.4C451.292 724.04 451.428 724.496 451.7 724.768C451.972 725.024 452.444 725.152 453.116 725.152H454.724V727H452.756C451.54 727 450.628 726.72 450.02 726.16C449.412 725.6 449.108 724.68 449.108 723.4V715.648H447.404V713.848H449.108V710.536H451.292V713.848H454.724V715.648H451.292ZM462.425 720.376C462.425 719.032 462.697 717.856 463.241 716.848C463.785 715.824 464.529 715.032 465.473 714.472C466.433 713.912 467.497 713.632 468.665 713.632C469.817 713.632 470.817 713.88 471.665 714.376C472.513 714.872 473.145 715.496 473.561 716.248V713.848H475.769V727H473.561V724.552C473.129 725.32 472.481 725.96 471.617 726.472C470.769 726.968 469.777 727.216 468.641 727.216C467.473 727.216 466.417 726.928 465.473 726.352C464.529 725.776 463.785 724.968 463.241 723.928C462.697 722.888 462.425 721.704 462.425 720.376ZM473.561 720.4C473.561 719.408 473.361 718.544 472.961 717.808C472.561 717.072 472.017 716.512 471.329 716.128C470.657 715.728 469.913 715.528 469.097 715.528C468.281 715.528 467.537 715.72 466.865 716.104C466.193 716.488 465.657 717.048 465.257 717.784C464.857 718.52 464.657 719.384 464.657 720.376C464.657 721.384 464.857 722.264 465.257 723.016C465.657 723.752 466.193 724.32 466.865 724.72C467.537 725.104 468.281 725.296 469.097 725.296C469.913 725.296 470.657 725.104 471.329 724.72C472.017 724.32 472.561 723.752 472.961 723.016C473.361 722.264 473.561 721.392 473.561 720.4ZM485.604 713.608C487.204 713.608 488.5 714.096 489.492 715.072C490.484 716.032 490.98 717.424 490.98 719.248V727H488.82V719.56C488.82 718.248 488.492 717.248 487.836 716.56C487.18 715.856 486.284 715.504 485.148 715.504C483.996 715.504 483.076 715.864 482.388 716.584C481.716 717.304 481.38 718.352 481.38 719.728V727H479.196V713.848H481.38V715.72C481.812 715.048 482.396 714.528 483.132 714.16C483.884 713.792 484.708 713.608 485.604 713.608ZM493.467 720.376C493.467 719.032 493.739 717.856 494.283 716.848C494.827 715.824 495.571 715.032 496.515 714.472C497.475 713.912 498.547 713.632 499.731 713.632C500.755 713.632 501.707 713.872 502.587 714.352C503.467 714.816 504.139 715.432 504.603 716.2V709.24H506.811V727H504.603V724.528C504.171 725.312 503.531 725.96 502.683 726.472C501.835 726.968 500.843 727.216 499.707 727.216C498.539 727.216 497.475 726.928 496.515 726.352C495.571 725.776 494.827 724.968 494.283 723.928C493.739 722.888 493.467 721.704 493.467 720.376ZM504.603 720.4C504.603 719.408 504.403 718.544 504.003 717.808C503.603 717.072 503.059 716.512 502.371 716.128C501.699 715.728 500.955 715.528 500.139 715.528C499.323 715.528 498.579 715.72 497.907 716.104C497.235 716.488 496.699 717.048 496.299 717.784C495.899 718.52 495.699 719.384 495.699 720.376C495.699 721.384 495.899 722.264 496.299 723.016C496.699 723.752 497.235 724.32 497.907 724.72C498.579 725.104 499.323 725.296 500.139 725.296C500.955 725.296 501.699 725.104 502.371 724.72C503.059 724.32 503.603 723.752 504.003 723.016C504.403 722.264 504.603 721.392 504.603 720.4ZM521.268 724.984L525.348 713.848H527.676L522.516 727H519.972L514.812 713.848H517.164L521.268 724.984ZM530.689 711.712C530.273 711.712 529.921 711.568 529.633 711.28C529.345 710.992 529.201 710.64 529.201 710.224C529.201 709.808 529.345 709.456 529.633 709.168C529.921 708.88 530.273 708.736 530.689 708.736C531.089 708.736 531.425 708.88 531.697 709.168C531.985 709.456 532.129 709.808 532.129 710.224C532.129 710.64 531.985 710.992 531.697 711.28C531.425 711.568 531.089 711.712 530.689 711.712ZM531.745 713.848V727H529.561V713.848H531.745ZM539.86 727.216C538.852 727.216 537.948 727.048 537.148 726.712C536.348 726.36 535.716 725.88 535.252 725.272C534.788 724.648 534.532 723.936 534.484 723.136H536.74C536.804 723.792 537.108 724.328 537.652 724.744C538.212 725.16 538.94 725.368 539.836 725.368C540.668 725.368 541.324 725.184 541.804 724.816C542.284 724.448 542.524 723.984 542.524 723.424C542.524 722.848 542.268 722.424 541.756 722.152C541.244 721.864 540.452 721.584 539.38 721.312C538.404 721.056 537.604 720.8 536.98 720.544C536.372 720.272 535.844 719.88 535.396 719.368C534.964 718.84 534.748 718.152 534.748 717.304C534.748 716.632 534.948 716.016 535.348 715.456C535.748 714.896 536.316 714.456 537.052 714.136C537.788 713.8 538.628 713.632 539.572 713.632C541.028 713.632 542.204 714 543.1 714.736C543.996 715.472 544.476 716.48 544.54 717.76H542.356C542.308 717.072 542.028 716.52 541.516 716.104C541.02 715.688 540.348 715.48 539.5 715.48C538.716 715.48 538.092 715.648 537.628 715.984C537.164 716.32 536.932 716.76 536.932 717.304C536.932 717.736 537.068 718.096 537.34 718.384C537.628 718.656 537.98 718.88 538.396 719.056C538.828 719.216 539.42 719.4 540.172 719.608C541.116 719.864 541.884 720.12 542.476 720.376C543.068 720.616 543.572 720.984 543.988 721.48C544.42 721.976 544.644 722.624 544.66 723.424C544.66 724.144 544.46 724.792 544.06 725.368C543.66 725.944 543.092 726.4 542.356 726.736C541.636 727.056 540.804 727.216 539.86 727.216ZM548.607 711.712C548.191 711.712 547.839 711.568 547.551 711.28C547.263 710.992 547.119 710.64 547.119 710.224C547.119 709.808 547.263 709.456 547.551 709.168C547.839 708.88 548.191 708.736 548.607 708.736C549.007 708.736 549.343 708.88 549.615 709.168C549.903 709.456 550.047 709.808 550.047 710.224C550.047 710.64 549.903 710.992 549.615 711.28C549.343 711.568 549.007 711.712 548.607 711.712ZM549.663 713.848V727H547.479V713.848H549.663ZM555.305 716.296C555.753 715.512 556.409 714.872 557.273 714.376C558.137 713.88 559.121 713.632 560.225 713.632C561.409 713.632 562.473 713.912 563.417 714.472C564.361 715.032 565.105 715.824 565.649 716.848C566.193 717.856 566.465 719.032 566.465 720.376C566.465 721.704 566.193 722.888 565.649 723.928C565.105 724.968 564.353 725.776 563.393 726.352C562.449 726.928 561.393 727.216 560.225 727.216C559.089 727.216 558.089 726.968 557.225 726.472C556.377 725.976 555.737 725.344 555.305 724.576V727H553.121V709.24H555.305V716.296ZM564.233 720.376C564.233 719.384 564.033 718.52 563.633 717.784C563.233 717.048 562.689 716.488 562.001 716.104C561.329 715.72 560.585 715.528 559.769 715.528C558.969 715.528 558.225 715.728 557.537 716.128C556.865 716.512 556.321 717.08 555.905 717.832C555.505 718.568 555.305 719.424 555.305 720.4C555.305 721.392 555.505 722.264 555.905 723.016C556.321 723.752 556.865 724.32 557.537 724.72C558.225 725.104 558.969 725.296 559.769 725.296C560.585 725.296 561.329 725.104 562.001 724.72C562.689 724.32 563.233 723.752 563.633 723.016C564.033 722.264 564.233 721.384 564.233 720.376ZM570.204 711.712C569.788 711.712 569.436 711.568 569.148 711.28C568.86 710.992 568.716 710.64 568.716 710.224C568.716 709.808 568.86 709.456 569.148 709.168C569.436 708.88 569.788 708.736 570.204 708.736C570.604 708.736 570.94 708.88 571.212 709.168C571.5 709.456 571.644 709.808 571.644 710.224C571.644 710.64 571.5 710.992 571.212 711.28C570.94 711.568 570.604 711.712 570.204 711.712ZM571.26 713.848V727H569.076V713.848H571.26ZM576.902 709.24V727H574.718V709.24H576.902ZM581.488 711.712C581.072 711.712 580.72 711.568 580.432 711.28C580.144 710.992 580 710.64 580 710.224C580 709.808 580.144 709.456 580.432 709.168C580.72 708.88 581.072 708.736 581.488 708.736C581.888 708.736 582.224 708.88 582.496 709.168C582.784 709.456 582.928 709.808 582.928 710.224C582.928 710.64 582.784 710.992 582.496 711.28C582.224 711.568 581.888 711.712 581.488 711.712ZM582.544 713.848V727H580.36V713.848H582.544ZM588.666 715.648V723.4C588.666 724.04 588.802 724.496 589.074 724.768C589.346 725.024 589.818 725.152 590.49 725.152H592.098V727H590.13C588.914 727 588.002 726.72 587.394 726.16C586.786 725.6 586.482 724.68 586.482 723.4V715.648H584.778V713.848H586.482V710.536H588.666V713.848H592.098V715.648H588.666ZM605.809 713.848L597.889 733.192H595.633L598.225 726.856L592.921 713.848H595.345L599.473 724.504L603.553 713.848H605.809ZM613.059 720.376C613.059 719.032 613.331 717.856 613.875 716.848C614.419 715.824 615.163 715.032 616.107 714.472C617.067 713.912 618.131 713.632 619.299 713.632C620.451 713.632 621.451 713.88 622.299 714.376C623.147 714.872 623.779 715.496 624.195 716.248V713.848H626.403V727H624.195V724.552C623.763 725.32 623.115 725.96 622.251 726.472C621.403 726.968 620.411 727.216 619.275 727.216C618.107 727.216 617.051 726.928 616.107 726.352C615.163 725.776 614.419 724.968 613.875 723.928C613.331 722.888 613.059 721.704 613.059 720.376ZM624.195 720.4C624.195 719.408 623.995 718.544 623.595 717.808C623.195 717.072 622.651 716.512 621.963 716.128C621.291 715.728 620.547 715.528 619.731 715.528C618.915 715.528 618.171 715.72 617.499 716.104C616.827 716.488 616.291 717.048 615.891 717.784C615.491 718.52 615.291 719.384 615.291 720.376C615.291 721.384 615.491 722.264 615.891 723.016C616.291 723.752 616.827 724.32 617.499 724.72C618.171 725.104 618.915 725.296 619.731 725.296C620.547 725.296 621.291 725.104 621.963 724.72C622.651 724.32 623.195 723.752 623.595 723.016C623.995 722.264 624.195 721.392 624.195 720.4ZM635.253 713.632C636.389 713.632 637.381 713.88 638.229 714.376C639.093 714.872 639.733 715.496 640.149 716.248V713.848H642.357V727.288C642.357 728.488 642.101 729.552 641.589 730.48C641.077 731.424 640.341 732.16 639.381 732.688C638.437 733.216 637.333 733.48 636.069 733.48C634.341 733.48 632.901 733.072 631.749 732.256C630.597 731.44 629.917 730.328 629.709 728.92H631.869C632.109 729.72 632.605 730.36 633.357 730.84C634.109 731.336 635.013 731.584 636.069 731.584C637.269 731.584 638.245 731.208 638.997 730.456C639.765 729.704 640.149 728.648 640.149 727.288V724.528C639.717 725.296 639.077 725.936 638.229 726.448C637.381 726.96 636.389 727.216 635.253 727.216C634.085 727.216 633.021 726.928 632.061 726.352C631.117 725.776 630.373 724.968 629.829 723.928C629.285 722.888 629.013 721.704 629.013 720.376C629.013 719.032 629.285 717.856 629.829 716.848C630.373 715.824 631.117 715.032 632.061 714.472C633.021 713.912 634.085 713.632 635.253 713.632ZM640.149 720.4C640.149 719.408 639.949 718.544 639.549 717.808C639.149 717.072 638.605 716.512 637.917 716.128C637.245 715.728 636.501 715.528 635.685 715.528C634.869 715.528 634.125 715.72 633.453 716.104C632.781 716.488 632.245 717.048 631.845 717.784C631.445 718.52 631.245 719.384 631.245 720.376C631.245 721.384 631.445 722.264 631.845 723.016C632.245 723.752 632.781 724.32 633.453 724.72C634.125 725.104 634.869 725.296 635.685 725.296C636.501 725.296 637.245 725.104 637.917 724.72C638.605 724.32 639.149 723.752 639.549 723.016C639.949 722.264 640.149 721.392 640.149 720.4ZM644.968 720.376C644.968 719.032 645.24 717.856 645.784 716.848C646.328 715.824 647.072 715.032 648.016 714.472C648.976 713.912 650.04 713.632 651.208 713.632C652.36 713.632 653.36 713.88 654.208 714.376C655.056 714.872 655.688 715.496 656.104 716.248V713.848H658.312V727H656.104V724.552C655.672 725.32 655.024 725.96 654.16 726.472C653.312 726.968 652.32 727.216 651.184 727.216C650.016 727.216 648.96 726.928 648.016 726.352C647.072 725.776 646.328 724.968 645.784 723.928C645.24 722.888 644.968 721.704 644.968 720.376ZM656.104 720.4C656.104 719.408 655.904 718.544 655.504 717.808C655.104 717.072 654.56 716.512 653.872 716.128C653.2 715.728 652.456 715.528 651.64 715.528C650.824 715.528 650.08 715.72 649.408 716.104C648.736 716.488 648.2 717.048 647.8 717.784C647.4 718.52 647.2 719.384 647.2 720.376C647.2 721.384 647.4 722.264 647.8 723.016C648.2 723.752 648.736 724.32 649.408 724.72C650.08 725.104 650.824 725.296 651.64 725.296C652.456 725.296 653.2 725.104 653.872 724.72C654.56 724.32 655.104 723.752 655.504 723.016C655.904 722.264 656.104 721.392 656.104 720.4ZM662.867 711.712C662.451 711.712 662.099 711.568 661.811 711.28C661.523 710.992 661.379 710.64 661.379 710.224C661.379 709.808 661.523 709.456 661.811 709.168C662.099 708.88 662.451 708.736 662.867 708.736C663.267 708.736 663.603 708.88 663.875 709.168C664.163 709.456 664.307 709.808 664.307 710.224C664.307 710.64 664.163 710.992 663.875 711.28C663.603 711.568 663.267 711.712 662.867 711.712ZM663.923 713.848V727H661.739V713.848H663.923ZM673.789 713.608C675.389 713.608 676.685 714.096 677.677 715.072C678.669 716.032 679.165 717.424 679.165 719.248V727H677.005V719.56C677.005 718.248 676.677 717.248 676.021 716.56C675.365 715.856 674.469 715.504 673.333 715.504C672.181 715.504 671.261 715.864 670.573 716.584C669.901 717.304 669.565 718.352 669.565 719.728V727H667.381V713.848H669.565V715.72C669.997 715.048 670.581 714.528 671.317 714.16C672.069 713.792 672.893 713.608 673.789 713.608ZM687.125 727.216C686.117 727.216 685.213 727.048 684.413 726.712C683.613 726.36 682.981 725.88 682.517 725.272C682.053 724.648 681.797 723.936 681.749 723.136H684.005C684.069 723.792 684.373 724.328 684.917 724.744C685.477 725.16 686.205 725.368 687.101 725.368C687.933 725.368 688.589 725.184 689.069 724.816C689.549 724.448 689.789 723.984 689.789 723.424C689.789 722.848 689.533 722.424 689.021 722.152C688.509 721.864 687.717 721.584 686.645 721.312C685.669 721.056 684.869 720.8 684.245 720.544C683.637 720.272 683.109 719.88 682.661 719.368C682.229 718.84 682.013 718.152 682.013 717.304C682.013 716.632 682.213 716.016 682.613 715.456C683.013 714.896 683.581 714.456 684.317 714.136C685.053 713.8 685.893 713.632 686.837 713.632C688.293 713.632 689.469 714 690.365 714.736C691.261 715.472 691.741 716.48 691.805 717.76H689.621C689.573 717.072 689.293 716.52 688.781 716.104C688.285 715.688 687.613 715.48 686.765 715.48C685.981 715.48 685.357 715.648 684.893 715.984C684.429 716.32 684.197 716.76 684.197 717.304C684.197 717.736 684.333 718.096 684.605 718.384C684.893 718.656 685.245 718.88 685.661 719.056C686.093 719.216 686.685 719.4 687.437 719.608C688.381 719.864 689.149 720.12 689.741 720.376C690.333 720.616 690.837 720.984 691.253 721.48C691.685 721.976 691.909 722.624 691.925 723.424C691.925 724.144 691.725 724.792 691.325 725.368C690.925 725.944 690.357 726.4 689.621 726.736C688.901 727.056 688.069 727.216 687.125 727.216ZM697.408 715.648V723.4C697.408 724.04 697.544 724.496 697.816 724.768C698.088 725.024 698.56 725.152 699.232 725.152H700.84V727H698.872C697.656 727 696.744 726.72 696.136 726.16C695.528 725.6 695.224 724.68 695.224 723.4V715.648H693.52V713.848H695.224V710.536H697.408V713.848H700.84V715.648H697.408ZM714.012 727.216C713.004 727.216 712.1 727.048 711.3 726.712C710.5 726.36 709.868 725.88 709.404 725.272C708.94 724.648 708.684 723.936 708.636 723.136H710.892C710.956 723.792 711.26 724.328 711.804 724.744C712.364 725.16 713.092 725.368 713.988 725.368C714.82 725.368 715.476 725.184 715.956 724.816C716.436 724.448 716.676 723.984 716.676 723.424C716.676 722.848 716.42 722.424 715.908 722.152C715.396 721.864 714.604 721.584 713.532 721.312C712.556 721.056 711.756 720.8 711.132 720.544C710.524 720.272 709.996 719.88 709.548 719.368C709.116 718.84 708.9 718.152 708.9 717.304C708.9 716.632 709.1 716.016 709.5 715.456C709.9 714.896 710.468 714.456 711.204 714.136C711.94 713.8 712.78 713.632 713.724 713.632C715.18 713.632 716.356 714 717.252 714.736C718.148 715.472 718.628 716.48 718.692 717.76H716.508C716.46 717.072 716.18 716.52 715.668 716.104C715.172 715.688 714.5 715.48 713.652 715.48C712.868 715.48 712.244 715.648 711.78 715.984C711.316 716.32 711.084 716.76 711.084 717.304C711.084 717.736 711.22 718.096 711.492 718.384C711.78 718.656 712.132 718.88 712.548 719.056C712.98 719.216 713.572 719.4 714.324 719.608C715.268 719.864 716.036 720.12 716.628 720.376C717.22 720.616 717.724 720.984 718.14 721.48C718.572 721.976 718.796 722.624 718.812 723.424C718.812 724.144 718.612 724.792 718.212 725.368C717.812 725.944 717.244 726.4 716.508 726.736C715.788 727.056 714.956 727.216 714.012 727.216ZM720.815 720.376C720.815 719.032 721.087 717.856 721.631 716.848C722.175 715.824 722.919 715.032 723.863 714.472C724.823 713.912 725.887 713.632 727.055 713.632C728.207 713.632 729.207 713.88 730.055 714.376C730.903 714.872 731.535 715.496 731.951 716.248V713.848H734.159V727H731.951V724.552C731.519 725.32 730.871 725.96 730.007 726.472C729.159 726.968 728.167 727.216 727.031 727.216C725.863 727.216 724.807 726.928 723.863 726.352C722.919 725.776 722.175 724.968 721.631 723.928C721.087 722.888 720.815 721.704 720.815 720.376ZM731.951 720.4C731.951 719.408 731.751 718.544 731.351 717.808C730.951 717.072 730.407 716.512 729.719 716.128C729.047 715.728 728.303 715.528 727.487 715.528C726.671 715.528 725.927 715.72 725.255 716.104C724.583 716.488 724.047 717.048 723.647 717.784C723.247 718.52 723.047 719.384 723.047 720.376C723.047 721.384 723.247 722.264 723.647 723.016C724.047 723.752 724.583 724.32 725.255 724.72C725.927 725.104 726.671 725.296 727.487 725.296C728.303 725.296 729.047 725.104 729.719 724.72C730.407 724.32 730.951 723.752 731.351 723.016C731.751 722.264 731.951 721.392 731.951 720.4ZM742.938 715.648H740.178V727H737.994V715.648H736.29V713.848H737.994V712.912C737.994 711.44 738.37 710.368 739.122 709.696C739.89 709.008 741.114 708.664 742.794 708.664V710.488C741.834 710.488 741.154 710.68 740.754 711.064C740.37 711.432 740.178 712.048 740.178 712.912V713.848H742.938V715.648ZM757.221 719.92C757.221 720.336 757.197 720.776 757.149 721.24H746.637C746.717 722.536 747.157 723.552 747.957 724.288C748.773 725.008 749.757 725.368 750.909 725.368C751.853 725.368 752.637 725.152 753.261 724.72C753.901 724.272 754.349 723.68 754.605 722.944H756.957C756.605 724.208 755.901 725.24 754.845 726.04C753.789 726.824 752.477 727.216 750.909 727.216C749.661 727.216 748.541 726.936 747.549 726.376C746.573 725.816 745.805 725.024 745.245 724C744.685 722.96 744.405 721.76 744.405 720.4C744.405 719.04 744.677 717.848 745.221 716.824C745.765 715.8 746.525 715.016 747.501 714.472C748.493 713.912 749.629 713.632 750.909 713.632C752.157 713.632 753.261 713.904 754.221 714.448C755.181 714.992 755.917 715.744 756.429 716.704C756.957 717.648 757.221 718.72 757.221 719.92ZM754.965 719.464C754.965 718.632 754.781 717.92 754.413 717.328C754.045 716.72 753.541 716.264 752.901 715.96C752.277 715.64 751.581 715.48 750.813 715.48C749.709 715.48 748.765 715.832 747.981 716.536C747.213 717.24 746.773 718.216 746.661 719.464H754.965ZM762.503 715.648V723.4C762.503 724.04 762.639 724.496 762.911 724.768C763.183 725.024 763.655 725.152 764.327 725.152H765.935V727H763.967C762.751 727 761.839 726.72 761.231 726.16C760.623 725.6 760.319 724.68 760.319 723.4V715.648H758.615V713.848H760.319V710.536H762.503V713.848H765.935V715.648H762.503ZM779.646 713.848L771.726 733.192H769.47L772.062 726.856L766.758 713.848H769.182L773.31 724.504L777.39 713.848H779.646ZM786.895 720.376C786.895 719.032 787.167 717.856 787.711 716.848C788.255 715.824 788.999 715.032 789.943 714.472C790.903 713.912 791.967 713.632 793.135 713.632C794.287 713.632 795.287 713.88 796.135 714.376C796.983 714.872 797.615 715.496 798.031 716.248V713.848H800.239V727H798.031V724.552C797.599 725.32 796.951 725.96 796.087 726.472C795.239 726.968 794.247 727.216 793.111 727.216C791.943 727.216 790.887 726.928 789.943 726.352C788.999 725.776 788.255 724.968 787.711 723.928C787.167 722.888 786.895 721.704 786.895 720.376ZM798.031 720.4C798.031 719.408 797.831 718.544 797.431 717.808C797.031 717.072 796.487 716.512 795.799 716.128C795.127 715.728 794.383 715.528 793.567 715.528C792.751 715.528 792.007 715.72 791.335 716.104C790.663 716.488 790.127 717.048 789.727 717.784C789.327 718.52 789.127 719.384 789.127 720.376C789.127 721.384 789.327 722.264 789.727 723.016C790.127 723.752 790.663 724.32 791.335 724.72C792.007 725.104 792.751 725.296 793.567 725.296C794.383 725.296 795.127 725.104 795.799 724.72C796.487 724.32 797.031 723.752 797.431 723.016C797.831 722.264 798.031 721.392 798.031 720.4ZM810.074 713.608C811.674 713.608 812.97 714.096 813.962 715.072C814.954 716.032 815.45 717.424 815.45 719.248V727H813.29V719.56C813.29 718.248 812.962 717.248 812.306 716.56C811.65 715.856 810.754 715.504 809.618 715.504C808.466 715.504 807.546 715.864 806.858 716.584C806.186 717.304 805.85 718.352 805.85 719.728V727H803.666V713.848H805.85V715.72C806.282 715.048 806.866 714.528 807.602 714.16C808.354 713.792 809.178 713.608 810.074 713.608ZM817.938 720.376C817.938 719.032 818.21 717.856 818.754 716.848C819.298 715.824 820.042 715.032 820.986 714.472C821.946 713.912 823.018 713.632 824.202 713.632C825.226 713.632 826.178 713.872 827.058 714.352C827.938 714.816 828.61 715.432 829.074 716.2V709.24H831.282V727H829.074V724.528C828.642 725.312 828.002 725.96 827.154 726.472C826.306 726.968 825.314 727.216 824.178 727.216C823.01 727.216 821.946 726.928 820.986 726.352C820.042 725.776 819.298 724.968 818.754 723.928C818.21 722.888 817.938 721.704 817.938 720.376ZM829.074 720.4C829.074 719.408 828.874 718.544 828.474 717.808C828.074 717.072 827.53 716.512 826.842 716.128C826.17 715.728 825.426 715.528 824.61 715.528C823.794 715.528 823.05 715.72 822.378 716.104C821.706 716.488 821.17 717.048 820.77 717.784C820.37 718.52 820.17 719.384 820.17 720.376C820.17 721.384 820.37 722.264 820.77 723.016C821.17 723.752 821.706 724.32 822.378 724.72C823.05 725.104 823.794 725.296 824.61 725.296C825.426 725.296 826.17 725.104 826.842 724.72C827.53 724.32 828.074 723.752 828.474 723.016C828.874 722.264 829.074 721.392 829.074 720.4ZM843.027 716.272C843.459 715.52 844.099 714.896 844.947 714.4C845.811 713.888 846.811 713.632 847.947 713.632C849.115 713.632 850.171 713.912 851.115 714.472C852.075 715.032 852.827 715.824 853.371 716.848C853.915 717.856 854.187 719.032 854.187 720.376C854.187 721.704 853.915 722.888 853.371 723.928C852.827 724.968 852.075 725.776 851.115 726.352C850.171 726.928 849.115 727.216 847.947 727.216C846.827 727.216 845.835 726.968 844.971 726.472C844.123 725.96 843.475 725.328 843.027 724.576V733.24H840.843V713.848H843.027V716.272ZM851.955 720.376C851.955 719.384 851.755 718.52 851.355 717.784C850.955 717.048 850.411 716.488 849.723 716.104C849.051 715.72 848.307 715.528 847.491 715.528C846.691 715.528 845.947 715.728 845.259 716.128C844.587 716.512 844.043 717.08 843.627 717.832C843.227 718.568 843.027 719.424 843.027 720.4C843.027 721.392 843.227 722.264 843.627 723.016C844.043 723.752 844.587 724.32 845.259 724.72C845.947 725.104 846.691 725.296 847.491 725.296C848.307 725.296 849.051 725.104 849.723 724.72C850.411 724.32 850.955 723.752 851.355 723.016C851.755 722.264 851.955 721.384 851.955 720.376ZM868.798 719.92C868.798 720.336 868.774 720.776 868.726 721.24H858.214C858.294 722.536 858.734 723.552 859.534 724.288C860.35 725.008 861.334 725.368 862.486 725.368C863.43 725.368 864.214 725.152 864.838 724.72C865.478 724.272 865.926 723.68 866.182 722.944H868.534C868.182 724.208 867.478 725.24 866.422 726.04C865.366 726.824 864.054 727.216 862.486 727.216C861.238 727.216 860.118 726.936 859.126 726.376C858.15 725.816 857.382 725.024 856.822 724C856.262 722.96 855.982 721.76 855.982 720.4C855.982 719.04 856.254 717.848 856.798 716.824C857.342 715.8 858.102 715.016 859.078 714.472C860.07 713.912 861.206 713.632 862.486 713.632C863.734 713.632 864.838 713.904 865.798 714.448C866.758 714.992 867.494 715.744 868.006 716.704C868.534 717.648 868.798 718.72 868.798 719.92ZM866.542 719.464C866.542 718.632 866.358 717.92 865.99 717.328C865.622 716.72 865.118 716.264 864.478 715.96C863.854 715.64 863.158 715.48 862.39 715.48C861.286 715.48 860.342 715.832 859.558 716.536C858.79 717.24 858.35 718.216 858.238 719.464H866.542ZM870.6 720.376C870.6 719.032 870.872 717.856 871.416 716.848C871.96 715.824 872.704 715.032 873.648 714.472C874.608 713.912 875.672 713.632 876.84 713.632C877.992 713.632 878.992 713.88 879.84 714.376C880.688 714.872 881.32 715.496 881.736 716.248V713.848H883.944V727H881.736V724.552C881.304 725.32 880.656 725.96 879.792 726.472C878.944 726.968 877.952 727.216 876.816 727.216C875.648 727.216 874.592 726.928 873.648 726.352C872.704 725.776 871.96 724.968 871.416 723.928C870.872 722.888 870.6 721.704 870.6 720.376ZM881.736 720.4C881.736 719.408 881.536 718.544 881.136 717.808C880.736 717.072 880.192 716.512 879.504 716.128C878.832 715.728 878.088 715.528 877.272 715.528C876.456 715.528 875.712 715.72 875.04 716.104C874.368 716.488 873.832 717.048 873.432 717.784C873.032 718.52 872.832 719.384 872.832 720.376C872.832 721.384 873.032 722.264 873.432 723.016C873.832 723.752 874.368 724.32 875.04 724.72C875.712 725.104 876.456 725.296 877.272 725.296C878.088 725.296 878.832 725.104 879.504 724.72C880.192 724.32 880.736 723.752 881.136 723.016C881.536 722.264 881.736 721.392 881.736 720.4ZM886.555 720.4C886.555 719.04 886.827 717.856 887.371 716.848C887.915 715.824 888.667 715.032 889.627 714.472C890.603 713.912 891.715 713.632 892.963 713.632C894.579 713.632 895.907 714.024 896.947 714.808C898.003 715.592 898.699 716.68 899.035 718.072H896.683C896.459 717.272 896.019 716.64 895.363 716.176C894.723 715.712 893.923 715.48 892.963 715.48C891.715 715.48 890.707 715.912 889.939 716.776C889.171 717.624 888.787 718.832 888.787 720.4C888.787 721.984 889.171 723.208 889.939 724.072C890.707 724.936 891.715 725.368 892.963 725.368C893.923 725.368 894.723 725.144 895.363 724.696C896.003 724.248 896.443 723.608 896.683 722.776H899.035C898.683 724.12 897.979 725.2 896.923 726.016C895.867 726.816 894.547 727.216 892.963 727.216C891.715 727.216 890.603 726.936 889.627 726.376C888.667 725.816 887.915 725.024 887.371 724C886.827 722.976 886.555 721.776 886.555 720.4ZM913.685 719.92C913.685 720.336 913.661 720.776 913.613 721.24H903.101C903.181 722.536 903.621 723.552 904.421 724.288C905.237 725.008 906.221 725.368 907.373 725.368C908.317 725.368 909.101 725.152 909.725 724.72C910.365 724.272 910.813 723.68 911.069 722.944H913.421C913.069 724.208 912.365 725.24 911.309 726.04C910.253 726.824 908.941 727.216 907.373 727.216C906.125 727.216 905.005 726.936 904.013 726.376C903.037 725.816 902.269 725.024 901.709 724C901.149 722.96 900.869 721.76 900.869 720.4C900.869 719.04 901.141 717.848 901.685 716.824C902.229 715.8 902.989 715.016 903.965 714.472C904.957 713.912 906.093 713.632 907.373 713.632C908.621 713.632 909.725 713.904 910.685 714.448C911.645 714.992 912.381 715.744 912.893 716.704C913.421 717.648 913.685 718.72 913.685 719.92ZM911.429 719.464C911.429 718.632 911.245 717.92 910.877 717.328C910.509 716.72 910.005 716.264 909.365 715.96C908.741 715.64 908.045 715.48 907.277 715.48C906.173 715.48 905.229 715.832 904.445 716.536C903.677 717.24 903.237 718.216 903.125 719.464H911.429ZM917 727.144C916.584 727.144 916.232 727 915.944 726.712C915.656 726.424 915.512 726.072 915.512 725.656C915.512 725.24 915.656 724.888 915.944 724.6C916.232 724.312 916.584 724.168 917 724.168C917.4 724.168 917.736 724.312 918.008 724.6C918.296 724.888 918.44 725.24 918.44 725.656C918.44 726.072 918.296 726.424 918.008 726.712C917.736 727 917.4 727.144 917 727.144Z" fill="#FAFAFA"/>
<line x1="190" y1="345" x2="1090" y2="345" stroke="#494743" stroke-width="12"/>
<path d="M639.191 349.187C639.997 348.103 641.623 348.113 642.416 349.207L684.177 406.826C685.135 408.149 684.191 410 682.557 410H597.978C596.334 410 595.392 408.127 596.373 406.807L639.191 349.187Z" fill="#494743"/>
<path d="M250.5 218L308.039 259.804L286.061 327.446H214.939L192.961 259.804L250.5 218Z" fill="#E0543D"/>
<path d="M1029.5 218L1076.8 240.779L1088.48 291.963L1055.75 333.009H1003.25L970.517 291.963L982.199 240.779L1029.5 218Z" fill="#E0543D"/>
</svg>
