<svg width="1280" height="832" viewBox="0 0 1280 832" fill="none" xmlns="http://www.w3.org/2000/svg">
<rect width="1280" height="832" fill="#0A0A0A"/>
<rect x="298.5" y="641" width="683" height="84" rx="24" fill="#141414"/>
<path d="M350.84 674.272V676.048H346.28V691H344.096V676.048H339.512V674.272H350.84ZM359.792 677.608C360.784 677.608 361.68 677.824 362.48 678.256C363.28 678.672 363.904 679.304 364.352 680.152C364.816 681 365.048 682.032 365.048 683.248V691H362.888V683.56C362.888 682.248 362.56 681.248 361.904 680.56C361.248 679.856 360.352 679.504 359.216 679.504C358.064 679.504 357.144 679.864 356.456 680.584C355.784 681.304 355.448 682.352 355.448 683.728V691H353.264V673.24H355.448V679.72C355.88 679.048 356.472 678.528 357.224 678.16C357.992 677.792 358.848 677.608 359.792 677.608ZM380.352 683.92C380.352 684.336 380.328 684.776 380.28 685.24H369.768C369.848 686.536 370.288 687.552 371.088 688.288C371.904 689.008 372.888 689.368 374.04 689.368C374.984 689.368 375.768 689.152 376.392 688.72C377.032 688.272 377.48 687.68 377.736 686.944H380.088C379.736 688.208 379.032 689.24 377.976 690.04C376.92 690.824 375.608 691.216 374.04 691.216C372.792 691.216 371.672 690.936 370.68 690.376C369.704 689.816 368.936 689.024 368.376 688C367.816 686.96 367.536 685.76 367.536 684.4C367.536 683.04 367.808 681.848 368.352 680.824C368.896 679.8 369.656 679.016 370.632 678.472C371.624 677.912 372.76 677.632 374.04 677.632C375.288 677.632 376.392 677.904 377.352 678.448C378.312 678.992 379.048 679.744 379.56 680.704C380.088 681.648 380.352 682.72 380.352 683.92ZM378.096 683.464C378.096 682.632 377.912 681.92 377.544 681.328C377.176 680.72 376.672 680.264 376.032 679.96C375.408 679.64 374.712 679.48 373.944 679.48C372.84 679.48 371.896 679.832 371.112 680.536C370.344 681.24 369.904 682.216 369.792 683.464H378.096ZM406.625 677.848L402.521 691H400.265L397.097 680.56L393.929 691H391.673L387.545 677.848H389.777L392.801 688.888L396.065 677.848H398.297L401.489 688.912L404.465 677.848H406.625ZM414.265 691.216C413.033 691.216 411.913 690.936 410.905 690.376C409.913 689.816 409.129 689.024 408.553 688C407.993 686.96 407.713 685.76 407.713 684.4C407.713 683.056 408.001 681.872 408.577 680.848C409.169 679.808 409.969 679.016 410.977 678.472C411.985 677.912 413.113 677.632 414.361 677.632C415.609 677.632 416.737 677.912 417.745 678.472C418.753 679.016 419.545 679.8 420.121 680.824C420.713 681.848 421.009 683.04 421.009 684.4C421.009 685.76 420.705 686.96 420.097 688C419.505 689.024 418.697 689.816 417.673 690.376C416.649 690.936 415.513 691.216 414.265 691.216ZM414.265 689.296C415.049 689.296 415.785 689.112 416.473 688.744C417.161 688.376 417.713 687.824 418.129 687.088C418.561 686.352 418.777 685.456 418.777 684.4C418.777 683.344 418.569 682.448 418.153 681.712C417.737 680.976 417.193 680.432 416.521 680.08C415.849 679.712 415.121 679.528 414.337 679.528C413.537 679.528 412.801 679.712 412.129 680.08C411.473 680.432 410.945 680.976 410.545 681.712C410.145 682.448 409.945 683.344 409.945 684.4C409.945 685.472 410.137 686.376 410.521 687.112C410.921 687.848 411.449 688.4 412.105 688.768C412.761 689.12 413.481 689.296 414.265 689.296ZM425.8 679.984C426.184 679.232 426.728 678.648 427.432 678.232C428.152 677.816 429.024 677.608 430.048 677.608V679.864H429.472C427.024 679.864 425.8 681.192 425.8 683.848V691H423.616V677.848H425.8V679.984ZM434.489 673.24V691H432.305V673.24H434.489ZM437.132 684.376C437.132 683.032 437.404 681.856 437.948 680.848C438.492 679.824 439.236 679.032 440.18 678.472C441.14 677.912 442.212 677.632 443.396 677.632C444.42 677.632 445.372 677.872 446.252 678.352C447.132 678.816 447.804 679.432 448.268 680.2V673.24H450.476V691H448.268V688.528C447.836 689.312 447.196 689.96 446.348 690.472C445.5 690.968 444.508 691.216 443.372 691.216C442.204 691.216 441.14 690.928 440.18 690.352C439.236 689.776 438.492 688.968 437.948 687.928C437.404 686.888 437.132 685.704 437.132 684.376ZM448.268 684.4C448.268 683.408 448.068 682.544 447.668 681.808C447.268 681.072 446.724 680.512 446.036 680.128C445.364 679.728 444.62 679.528 443.804 679.528C442.988 679.528 442.244 679.72 441.572 680.104C440.9 680.488 440.364 681.048 439.964 681.784C439.564 682.52 439.364 683.384 439.364 684.376C439.364 685.384 439.564 686.264 439.964 687.016C440.364 687.752 440.9 688.32 441.572 688.72C442.244 689.104 442.988 689.296 443.804 689.296C444.62 689.296 445.364 689.104 446.036 688.72C446.724 688.32 447.268 687.752 447.668 687.016C448.068 686.264 448.268 685.392 448.268 684.4ZM456.158 687.976L453.47 694.432H452.006L453.758 687.976H456.158ZM471.059 677.608C472.051 677.608 472.947 677.824 473.747 678.256C474.547 678.672 475.171 679.304 475.619 680.152C476.083 681 476.315 682.032 476.315 683.248V691H474.155V683.56C474.155 682.248 473.827 681.248 473.171 680.56C472.515 679.856 471.619 679.504 470.483 679.504C469.331 679.504 468.411 679.864 467.723 680.584C467.051 681.304 466.715 682.352 466.715 683.728V691H464.531V673.24H466.715V679.72C467.147 679.048 467.739 678.528 468.491 678.16C469.259 677.792 470.115 677.608 471.059 677.608ZM485.354 691.216C484.122 691.216 483.002 690.936 481.994 690.376C481.002 689.816 480.218 689.024 479.642 688C479.082 686.96 478.802 685.76 478.802 684.4C478.802 683.056 479.09 681.872 479.666 680.848C480.258 679.808 481.058 679.016 482.066 678.472C483.074 677.912 484.202 677.632 485.45 677.632C486.698 677.632 487.826 677.912 488.834 678.472C489.842 679.016 490.634 679.8 491.21 680.824C491.802 681.848 492.098 683.04 492.098 684.4C492.098 685.76 491.794 686.96 491.186 688C490.594 689.024 489.786 689.816 488.762 690.376C487.738 690.936 486.602 691.216 485.354 691.216ZM485.354 689.296C486.138 689.296 486.874 689.112 487.562 688.744C488.25 688.376 488.802 687.824 489.218 687.088C489.65 686.352 489.866 685.456 489.866 684.4C489.866 683.344 489.658 682.448 489.242 681.712C488.826 680.976 488.282 680.432 487.61 680.08C486.938 679.712 486.21 679.528 485.426 679.528C484.626 679.528 483.89 679.712 483.218 680.08C482.562 680.432 482.034 680.976 481.634 681.712C481.234 682.448 481.034 683.344 481.034 684.4C481.034 685.472 481.226 686.376 481.61 687.112C482.01 687.848 482.538 688.4 483.194 688.768C483.85 689.12 484.57 689.296 485.354 689.296ZM512.226 677.848L508.122 691H505.866L502.698 680.56L499.53 691H497.274L493.146 677.848H495.378L498.402 688.888L501.666 677.848H503.898L507.09 688.912L510.066 677.848H512.226ZM526.129 683.92C526.129 684.336 526.105 684.776 526.057 685.24H515.545C515.625 686.536 516.065 687.552 516.865 688.288C517.681 689.008 518.665 689.368 519.817 689.368C520.761 689.368 521.545 689.152 522.169 688.72C522.809 688.272 523.257 687.68 523.513 686.944H525.865C525.513 688.208 524.809 689.24 523.753 690.04C522.697 690.824 521.385 691.216 519.817 691.216C518.569 691.216 517.449 690.936 516.457 690.376C515.481 689.816 514.713 689.024 514.153 688C513.593 686.96 513.313 685.76 513.313 684.4C513.313 683.04 513.585 681.848 514.129 680.824C514.673 679.8 515.433 679.016 516.409 678.472C517.401 677.912 518.537 677.632 519.817 677.632C521.065 677.632 522.169 677.904 523.129 678.448C524.089 678.992 524.825 679.744 525.337 680.704C525.865 681.648 526.129 682.72 526.129 683.92ZM523.873 683.464C523.873 682.632 523.689 681.92 523.321 681.328C522.953 680.72 522.449 680.264 521.809 679.96C521.185 679.64 520.489 679.48 519.721 679.48C518.617 679.48 517.673 679.832 516.889 680.536C516.121 681.24 515.681 682.216 515.569 683.464H523.873ZM533.644 688.984L537.724 677.848H540.052L534.892 691H532.348L527.188 677.848H529.54L533.644 688.984ZM553.937 683.92C553.937 684.336 553.913 684.776 553.865 685.24H543.353C543.433 686.536 543.873 687.552 544.673 688.288C545.489 689.008 546.473 689.368 547.625 689.368C548.569 689.368 549.353 689.152 549.977 688.72C550.617 688.272 551.065 687.68 551.321 686.944H553.673C553.321 688.208 552.617 689.24 551.561 690.04C550.505 690.824 549.193 691.216 547.625 691.216C546.377 691.216 545.257 690.936 544.265 690.376C543.289 689.816 542.521 689.024 541.961 688C541.401 686.96 541.121 685.76 541.121 684.4C541.121 683.04 541.393 681.848 541.937 680.824C542.481 679.8 543.241 679.016 544.217 678.472C545.209 677.912 546.345 677.632 547.625 677.632C548.873 677.632 549.977 677.904 550.937 678.448C551.897 678.992 552.633 679.744 553.145 680.704C553.673 681.648 553.937 682.72 553.937 683.92ZM551.681 683.464C551.681 682.632 551.497 681.92 551.129 681.328C550.761 680.72 550.257 680.264 549.617 679.96C548.993 679.64 548.297 679.48 547.529 679.48C546.425 679.48 545.481 679.832 544.697 680.536C543.929 681.24 543.489 682.216 543.377 683.464H551.681ZM558.74 679.984C559.124 679.232 559.668 678.648 560.372 678.232C561.092 677.816 561.964 677.608 562.988 677.608V679.864H562.412C559.964 679.864 558.74 681.192 558.74 683.848V691H556.556V677.848H558.74V679.984ZM567.501 687.976L564.813 694.432H563.349L565.101 687.976H567.501ZM577.001 675.712C576.585 675.712 576.233 675.568 575.945 675.28C575.657 674.992 575.513 674.64 575.513 674.224C575.513 673.808 575.657 673.456 575.945 673.168C576.233 672.88 576.585 672.736 577.001 672.736C577.401 672.736 577.737 672.88 578.009 673.168C578.297 673.456 578.441 673.808 578.441 674.224C578.441 674.64 578.297 674.992 578.009 675.28C577.737 675.568 577.401 675.712 577.001 675.712ZM578.057 677.848V691H575.873V677.848H578.057ZM586.172 691.216C585.164 691.216 584.26 691.048 583.46 690.712C582.66 690.36 582.028 689.88 581.564 689.272C581.1 688.648 580.844 687.936 580.796 687.136H583.052C583.116 687.792 583.42 688.328 583.964 688.744C584.524 689.16 585.252 689.368 586.148 689.368C586.98 689.368 587.636 689.184 588.116 688.816C588.596 688.448 588.836 687.984 588.836 687.424C588.836 686.848 588.58 686.424 588.068 686.152C587.556 685.864 586.764 685.584 585.692 685.312C584.716 685.056 583.916 684.8 583.292 684.544C582.684 684.272 582.156 683.88 581.708 683.368C581.276 682.84 581.06 682.152 581.06 681.304C581.06 680.632 581.26 680.016 581.66 679.456C582.06 678.896 582.628 678.456 583.364 678.136C584.1 677.8 584.94 677.632 585.884 677.632C587.34 677.632 588.516 678 589.412 678.736C590.308 679.472 590.788 680.48 590.852 681.76H588.668C588.62 681.072 588.34 680.52 587.828 680.104C587.332 679.688 586.66 679.48 585.812 679.48C585.028 679.48 584.404 679.648 583.94 679.984C583.476 680.32 583.244 680.76 583.244 681.304C583.244 681.736 583.38 682.096 583.652 682.384C583.94 682.656 584.292 682.88 584.708 683.056C585.14 683.216 585.732 683.4 586.484 683.608C587.428 683.864 588.196 684.12 588.788 684.376C589.38 684.616 589.884 684.984 590.3 685.48C590.732 685.976 590.956 686.624 590.972 687.424C590.972 688.144 590.772 688.792 590.372 689.368C589.972 689.944 589.404 690.4 588.668 690.736C587.948 691.056 587.116 691.216 586.172 691.216ZM599.109 684.376C599.109 683.032 599.381 681.856 599.925 680.848C600.469 679.824 601.213 679.032 602.157 678.472C603.117 677.912 604.189 677.632 605.373 677.632C606.397 677.632 607.349 677.872 608.229 678.352C609.109 678.816 609.781 679.432 610.245 680.2V673.24H612.453V691H610.245V688.528C609.813 689.312 609.173 689.96 608.325 690.472C607.477 690.968 606.485 691.216 605.349 691.216C604.181 691.216 603.117 690.928 602.157 690.352C601.213 689.776 600.469 688.968 599.925 687.928C599.381 686.888 599.109 685.704 599.109 684.376ZM610.245 684.4C610.245 683.408 610.045 682.544 609.645 681.808C609.245 681.072 608.701 680.512 608.013 680.128C607.341 679.728 606.597 679.528 605.781 679.528C604.965 679.528 604.221 679.72 603.549 680.104C602.877 680.488 602.341 681.048 601.941 681.784C601.541 682.52 601.341 683.384 601.341 684.376C601.341 685.384 601.541 686.264 601.941 687.016C602.341 687.752 602.877 688.32 603.549 688.72C604.221 689.104 604.965 689.296 605.781 689.296C606.597 689.296 607.341 689.104 608.013 688.72C608.701 688.32 609.245 687.752 609.645 687.016C610.045 686.264 610.245 685.392 610.245 684.4ZM627.88 683.92C627.88 684.336 627.856 684.776 627.808 685.24H617.296C617.376 686.536 617.816 687.552 618.616 688.288C619.432 689.008 620.416 689.368 621.568 689.368C622.512 689.368 623.296 689.152 623.92 688.72C624.56 688.272 625.008 687.68 625.264 686.944H627.616C627.264 688.208 626.56 689.24 625.504 690.04C624.448 690.824 623.136 691.216 621.568 691.216C620.32 691.216 619.2 690.936 618.208 690.376C617.232 689.816 616.464 689.024 615.904 688C615.344 686.96 615.064 685.76 615.064 684.4C615.064 683.04 615.336 681.848 615.88 680.824C616.424 679.8 617.184 679.016 618.16 678.472C619.152 677.912 620.288 677.632 621.568 677.632C622.816 677.632 623.92 677.904 624.88 678.448C625.84 678.992 626.576 679.744 627.088 680.704C627.616 681.648 627.88 682.72 627.88 683.92ZM625.624 683.464C625.624 682.632 625.44 681.92 625.072 681.328C624.704 680.72 624.2 680.264 623.56 679.96C622.936 679.64 622.24 679.48 621.472 679.48C620.368 679.48 619.424 679.832 618.64 680.536C617.872 681.24 617.432 682.216 617.32 683.464H625.624ZM635.155 691.216C634.147 691.216 633.243 691.048 632.443 690.712C631.643 690.36 631.011 689.88 630.547 689.272C630.083 688.648 629.827 687.936 629.779 687.136H632.035C632.099 687.792 632.403 688.328 632.947 688.744C633.507 689.16 634.235 689.368 635.131 689.368C635.963 689.368 636.619 689.184 637.099 688.816C637.579 688.448 637.819 687.984 637.819 687.424C637.819 686.848 637.563 686.424 637.051 686.152C636.539 685.864 635.747 685.584 634.675 685.312C633.699 685.056 632.899 684.8 632.275 684.544C631.667 684.272 631.139 683.88 630.691 683.368C630.259 682.84 630.043 682.152 630.043 681.304C630.043 680.632 630.243 680.016 630.643 679.456C631.043 678.896 631.611 678.456 632.347 678.136C633.083 677.8 633.923 677.632 634.867 677.632C636.323 677.632 637.499 678 638.395 678.736C639.291 679.472 639.771 680.48 639.835 681.76H637.651C637.603 681.072 637.323 680.52 636.811 680.104C636.315 679.688 635.643 679.48 634.795 679.48C634.011 679.48 633.387 679.648 632.923 679.984C632.459 680.32 632.227 680.76 632.227 681.304C632.227 681.736 632.363 682.096 632.635 682.384C632.923 682.656 633.275 682.88 633.691 683.056C634.123 683.216 634.715 683.4 635.467 683.608C636.411 683.864 637.179 684.12 637.771 684.376C638.363 684.616 638.867 684.984 639.283 685.48C639.715 685.976 639.939 686.624 639.955 687.424C639.955 688.144 639.755 688.792 639.355 689.368C638.955 689.944 638.387 690.4 637.651 690.736C636.931 691.056 636.099 691.216 635.155 691.216ZM643.902 675.712C643.486 675.712 643.134 675.568 642.846 675.28C642.558 674.992 642.414 674.64 642.414 674.224C642.414 673.808 642.558 673.456 642.846 673.168C643.134 672.88 643.486 672.736 643.902 672.736C644.302 672.736 644.638 672.88 644.91 673.168C645.198 673.456 645.342 673.808 645.342 674.224C645.342 674.64 645.198 674.992 644.91 675.28C644.638 675.568 644.302 675.712 643.902 675.712ZM644.958 677.848V691H642.774V677.848H644.958ZM653.84 677.632C654.976 677.632 655.968 677.88 656.816 678.376C657.68 678.872 658.32 679.496 658.736 680.248V677.848H660.944V691.288C660.944 692.488 660.688 693.552 660.176 694.48C659.664 695.424 658.928 696.16 657.968 696.688C657.024 697.216 655.92 697.48 654.656 697.48C652.928 697.48 651.488 697.072 650.336 696.256C649.184 695.44 648.504 694.328 648.296 692.92H650.456C650.696 693.72 651.192 694.36 651.944 694.84C652.696 695.336 653.6 695.584 654.656 695.584C655.856 695.584 656.832 695.208 657.584 694.456C658.352 693.704 658.736 692.648 658.736 691.288V688.528C658.304 689.296 657.664 689.936 656.816 690.448C655.968 690.96 654.976 691.216 653.84 691.216C652.672 691.216 651.608 690.928 650.648 690.352C649.704 689.776 648.96 688.968 648.416 687.928C647.872 686.888 647.6 685.704 647.6 684.376C647.6 683.032 647.872 681.856 648.416 680.848C648.96 679.824 649.704 679.032 650.648 678.472C651.608 677.912 652.672 677.632 653.84 677.632ZM658.736 684.4C658.736 683.408 658.536 682.544 658.136 681.808C657.736 681.072 657.192 680.512 656.504 680.128C655.832 679.728 655.088 679.528 654.272 679.528C653.456 679.528 652.712 679.72 652.04 680.104C651.368 680.488 650.832 681.048 650.432 681.784C650.032 682.52 649.832 683.384 649.832 684.376C649.832 685.384 650.032 686.264 650.432 687.016C650.832 687.752 651.368 688.32 652.04 688.72C652.712 689.104 653.456 689.296 654.272 689.296C655.088 689.296 655.832 689.104 656.504 688.72C657.192 688.32 657.736 687.752 658.136 687.016C658.536 686.264 658.736 685.392 658.736 684.4ZM670.779 677.608C672.379 677.608 673.675 678.096 674.667 679.072C675.659 680.032 676.155 681.424 676.155 683.248V691H673.995V683.56C673.995 682.248 673.667 681.248 673.011 680.56C672.355 679.856 671.459 679.504 670.323 679.504C669.171 679.504 668.251 679.864 667.563 680.584C666.891 681.304 666.555 682.352 666.555 683.728V691H664.371V677.848H666.555V679.72C666.987 679.048 667.571 678.528 668.307 678.16C669.059 677.792 669.883 677.608 670.779 677.608ZM691.458 683.92C691.458 684.336 691.434 684.776 691.386 685.24H680.874C680.954 686.536 681.394 687.552 682.194 688.288C683.01 689.008 683.994 689.368 685.146 689.368C686.09 689.368 686.874 689.152 687.498 688.72C688.138 688.272 688.586 687.68 688.842 686.944H691.194C690.842 688.208 690.138 689.24 689.082 690.04C688.026 690.824 686.714 691.216 685.146 691.216C683.898 691.216 682.778 690.936 681.786 690.376C680.81 689.816 680.042 689.024 679.482 688C678.922 686.96 678.642 685.76 678.642 684.4C678.642 683.04 678.914 681.848 679.458 680.824C680.002 679.8 680.762 679.016 681.738 678.472C682.73 677.912 683.866 677.632 685.146 677.632C686.394 677.632 687.498 677.904 688.458 678.448C689.418 678.992 690.154 679.744 690.666 680.704C691.194 681.648 691.458 682.72 691.458 683.92ZM689.202 683.464C689.202 682.632 689.018 681.92 688.65 681.328C688.282 680.72 687.778 680.264 687.138 679.96C686.514 679.64 685.818 679.48 685.05 679.48C683.946 679.48 683.002 679.832 682.218 680.536C681.45 681.24 681.01 682.216 680.898 683.464H689.202ZM693.261 684.376C693.261 683.032 693.533 681.856 694.077 680.848C694.621 679.824 695.365 679.032 696.309 678.472C697.269 677.912 698.341 677.632 699.525 677.632C700.549 677.632 701.501 677.872 702.381 678.352C703.261 678.816 703.933 679.432 704.397 680.2V673.24H706.605V691H704.397V688.528C703.965 689.312 703.325 689.96 702.477 690.472C701.629 690.968 700.637 691.216 699.501 691.216C698.333 691.216 697.269 690.928 696.309 690.352C695.365 689.776 694.621 688.968 694.077 687.928C693.533 686.888 693.261 685.704 693.261 684.376ZM704.397 684.4C704.397 683.408 704.197 682.544 703.797 681.808C703.397 681.072 702.853 680.512 702.165 680.128C701.493 679.728 700.749 679.528 699.933 679.528C699.117 679.528 698.373 679.72 697.701 680.104C697.029 680.488 696.493 681.048 696.093 681.784C695.693 682.52 695.493 683.384 695.493 684.376C695.493 685.384 695.693 686.264 696.093 687.016C696.493 687.752 697.029 688.32 697.701 688.72C698.373 689.104 699.117 689.296 699.933 689.296C700.749 689.296 701.493 689.104 702.165 688.72C702.853 688.32 703.397 687.752 703.797 687.016C704.197 686.264 704.397 685.392 704.397 684.4ZM721.518 679.648H718.758V691H716.574V679.648H714.87V677.848H716.574V676.912C716.574 675.44 716.95 674.368 717.702 673.696C718.47 673.008 719.694 672.664 721.374 672.664V674.488C720.414 674.488 719.734 674.68 719.334 675.064C718.95 675.432 718.758 676.048 718.758 676.912V677.848H721.518V679.648ZM729.537 691.216C728.305 691.216 727.185 690.936 726.177 690.376C725.185 689.816 724.401 689.024 723.825 688C723.265 686.96 722.985 685.76 722.985 684.4C722.985 683.056 723.273 681.872 723.849 680.848C724.441 679.808 725.241 679.016 726.249 678.472C727.257 677.912 728.385 677.632 729.633 677.632C730.881 677.632 732.009 677.912 733.017 678.472C734.025 679.016 734.817 679.8 735.393 680.824C735.985 681.848 736.281 683.04 736.281 684.4C736.281 685.76 735.977 686.96 735.369 688C734.777 689.024 733.969 689.816 732.945 690.376C731.921 690.936 730.785 691.216 729.537 691.216ZM729.537 689.296C730.321 689.296 731.057 689.112 731.745 688.744C732.433 688.376 732.985 687.824 733.401 687.088C733.833 686.352 734.049 685.456 734.049 684.4C734.049 683.344 733.841 682.448 733.425 681.712C733.009 680.976 732.465 680.432 731.793 680.08C731.121 679.712 730.393 679.528 729.609 679.528C728.809 679.528 728.073 679.712 727.401 680.08C726.745 680.432 726.217 680.976 725.817 681.712C725.417 682.448 725.217 683.344 725.217 684.4C725.217 685.472 725.409 686.376 725.793 687.112C726.193 687.848 726.721 688.4 727.377 688.768C728.033 689.12 728.753 689.296 729.537 689.296ZM741.072 679.984C741.456 679.232 742 678.648 742.704 678.232C743.424 677.816 744.296 677.608 745.32 677.608V679.864H744.744C742.296 679.864 741.072 681.192 741.072 683.848V691H738.888V677.848H741.072V679.984ZM754.888 675.712C754.472 675.712 754.12 675.568 753.832 675.28C753.56 674.992 753.424 674.64 753.424 674.224C753.424 673.808 753.56 673.456 753.832 673.168C754.12 672.88 754.472 672.736 754.888 672.736C755.304 672.736 755.648 672.88 755.92 673.168C756.208 673.456 756.352 673.808 756.352 674.224C756.352 674.64 756.208 674.992 755.92 675.28C755.648 675.568 755.304 675.712 754.888 675.712ZM755.968 693.856C755.968 695.024 755.672 695.88 755.08 696.424C754.488 696.968 753.624 697.24 752.488 697.24H751.216V695.392H752.128C752.736 695.392 753.16 695.272 753.4 695.032C753.656 694.792 753.784 694.384 753.784 693.808V677.848H755.968V693.856ZM771.065 677.848V691H768.881V689.056C768.465 689.728 767.881 690.256 767.129 690.64C766.393 691.008 765.577 691.192 764.681 691.192C763.657 691.192 762.737 690.984 761.921 690.568C761.105 690.136 760.457 689.496 759.977 688.648C759.513 687.8 759.281 686.768 759.281 685.552V677.848H761.441V685.264C761.441 686.56 761.769 687.56 762.425 688.264C763.081 688.952 763.977 689.296 765.113 689.296C766.281 689.296 767.201 688.936 767.873 688.216C768.545 687.496 768.881 686.448 768.881 685.072V677.848H771.065ZM779.145 691.216C778.137 691.216 777.233 691.048 776.433 690.712C775.633 690.36 775.001 689.88 774.537 689.272C774.073 688.648 773.817 687.936 773.769 687.136H776.025C776.089 687.792 776.393 688.328 776.937 688.744C777.497 689.16 778.225 689.368 779.121 689.368C779.953 689.368 780.609 689.184 781.089 688.816C781.569 688.448 781.809 687.984 781.809 687.424C781.809 686.848 781.553 686.424 781.041 686.152C780.529 685.864 779.737 685.584 778.665 685.312C777.689 685.056 776.889 684.8 776.265 684.544C775.657 684.272 775.129 683.88 774.681 683.368C774.249 682.84 774.033 682.152 774.033 681.304C774.033 680.632 774.233 680.016 774.633 679.456C775.033 678.896 775.601 678.456 776.337 678.136C777.073 677.8 777.913 677.632 778.857 677.632C780.313 677.632 781.489 678 782.385 678.736C783.281 679.472 783.761 680.48 783.825 681.76H781.641C781.593 681.072 781.313 680.52 780.801 680.104C780.305 679.688 779.633 679.48 778.785 679.48C778.001 679.48 777.377 679.648 776.913 679.984C776.449 680.32 776.217 680.76 776.217 681.304C776.217 681.736 776.353 682.096 776.625 682.384C776.913 682.656 777.265 682.88 777.681 683.056C778.113 683.216 778.705 683.4 779.457 683.608C780.401 683.864 781.169 684.12 781.761 684.376C782.353 684.616 782.857 684.984 783.273 685.48C783.705 685.976 783.929 686.624 783.945 687.424C783.945 688.144 783.745 688.792 783.345 689.368C782.945 689.944 782.377 690.4 781.641 690.736C780.921 691.056 780.089 691.216 779.145 691.216ZM789.428 679.648V687.4C789.428 688.04 789.564 688.496 789.836 688.768C790.108 689.024 790.58 689.152 791.252 689.152H792.86V691H790.892C789.676 691 788.764 690.72 788.156 690.16C787.548 689.6 787.244 688.68 787.244 687.4V679.648H785.54V677.848H787.244V674.536H789.428V677.848H792.86V679.648H789.428ZM804.04 679.648V687.4C804.04 688.04 804.176 688.496 804.448 688.768C804.72 689.024 805.192 689.152 805.864 689.152H807.472V691H805.504C804.288 691 803.376 690.72 802.768 690.16C802.16 689.6 801.856 688.68 801.856 687.4V679.648H800.152V677.848H801.856V674.536H804.04V677.848H807.472V679.648H804.04ZM827.374 677.848L823.27 691H821.014L817.846 680.56L814.678 691H812.422L808.294 677.848H810.526L813.55 688.888L816.814 677.848H819.046L822.238 688.912L825.214 677.848H827.374ZM835.014 691.216C833.782 691.216 832.662 690.936 831.654 690.376C830.662 689.816 829.878 689.024 829.302 688C828.742 686.96 828.462 685.76 828.462 684.4C828.462 683.056 828.75 681.872 829.326 680.848C829.918 679.808 830.718 679.016 831.726 678.472C832.734 677.912 833.862 677.632 835.11 677.632C836.358 677.632 837.486 677.912 838.494 678.472C839.502 679.016 840.294 679.8 840.87 680.824C841.462 681.848 841.758 683.04 841.758 684.4C841.758 685.76 841.454 686.96 840.846 688C840.254 689.024 839.446 689.816 838.422 690.376C837.398 690.936 836.262 691.216 835.014 691.216ZM835.014 689.296C835.798 689.296 836.534 689.112 837.222 688.744C837.91 688.376 838.462 687.824 838.878 687.088C839.31 686.352 839.526 685.456 839.526 684.4C839.526 683.344 839.318 682.448 838.902 681.712C838.486 680.976 837.942 680.432 837.27 680.08C836.598 679.712 835.87 679.528 835.086 679.528C834.286 679.528 833.55 679.712 832.878 680.08C832.222 680.432 831.694 680.976 831.294 681.712C830.894 682.448 830.694 683.344 830.694 684.4C830.694 685.472 830.886 686.376 831.27 687.112C831.67 687.848 832.198 688.4 832.854 688.768C833.51 689.12 834.23 689.296 835.014 689.296ZM856.236 691.216C855.004 691.216 853.884 690.936 852.876 690.376C851.884 689.816 851.1 689.024 850.524 688C849.964 686.96 849.684 685.76 849.684 684.4C849.684 683.056 849.972 681.872 850.548 680.848C851.14 679.808 851.94 679.016 852.948 678.472C853.956 677.912 855.084 677.632 856.332 677.632C857.58 677.632 858.708 677.912 859.716 678.472C860.724 679.016 861.516 679.8 862.092 680.824C862.684 681.848 862.98 683.04 862.98 684.4C862.98 685.76 862.676 686.96 862.068 688C861.476 689.024 860.668 689.816 859.644 690.376C858.62 690.936 857.484 691.216 856.236 691.216ZM856.236 689.296C857.02 689.296 857.756 689.112 858.444 688.744C859.132 688.376 859.684 687.824 860.1 687.088C860.532 686.352 860.748 685.456 860.748 684.4C860.748 683.344 860.54 682.448 860.124 681.712C859.708 680.976 859.164 680.432 858.492 680.08C857.82 679.712 857.092 679.528 856.308 679.528C855.508 679.528 854.772 679.712 854.1 680.08C853.444 680.432 852.916 680.976 852.516 681.712C852.116 682.448 851.916 683.344 851.916 684.4C851.916 685.472 852.108 686.376 852.492 687.112C852.892 687.848 853.42 688.4 854.076 688.768C854.732 689.12 855.452 689.296 856.236 689.296ZM867.772 680.272C868.204 679.52 868.844 678.896 869.692 678.4C870.556 677.888 871.556 677.632 872.692 677.632C873.86 677.632 874.916 677.912 875.86 678.472C876.82 679.032 877.572 679.824 878.116 680.848C878.66 681.856 878.932 683.032 878.932 684.376C878.932 685.704 878.66 686.888 878.116 687.928C877.572 688.968 876.82 689.776 875.86 690.352C874.916 690.928 873.86 691.216 872.692 691.216C871.572 691.216 870.58 690.968 869.716 690.472C868.868 689.96 868.22 689.328 867.772 688.576V697.24H865.588V677.848H867.772V680.272ZM876.7 684.376C876.7 683.384 876.5 682.52 876.1 681.784C875.7 681.048 875.156 680.488 874.468 680.104C873.796 679.72 873.052 679.528 872.236 679.528C871.436 679.528 870.692 679.728 870.004 680.128C869.332 680.512 868.788 681.08 868.372 681.832C867.972 682.568 867.772 683.424 867.772 684.4C867.772 685.392 867.972 686.264 868.372 687.016C868.788 687.752 869.332 688.32 870.004 688.72C870.692 689.104 871.436 689.296 872.236 689.296C873.052 689.296 873.796 689.104 874.468 688.72C875.156 688.32 875.7 687.752 876.1 687.016C876.5 686.264 876.7 685.384 876.7 684.376ZM884.206 679.648V687.4C884.206 688.04 884.342 688.496 884.614 688.768C884.886 689.024 885.358 689.152 886.03 689.152H887.638V691H885.67C884.454 691 883.542 690.72 882.934 690.16C882.326 689.6 882.022 688.68 882.022 687.4V679.648H880.318V677.848H882.022V674.536H884.206V677.848H887.638V679.648H884.206ZM891.148 675.712C890.732 675.712 890.38 675.568 890.092 675.28C889.804 674.992 889.66 674.64 889.66 674.224C889.66 673.808 889.804 673.456 890.092 673.168C890.38 672.88 890.732 672.736 891.148 672.736C891.548 672.736 891.884 672.88 892.156 673.168C892.444 673.456 892.588 673.808 892.588 674.224C892.588 674.64 892.444 674.992 892.156 675.28C891.884 675.568 891.548 675.712 891.148 675.712ZM892.204 677.848V691H890.02V677.848H892.204ZM901.399 691.216C900.167 691.216 899.047 690.936 898.039 690.376C897.047 689.816 896.263 689.024 895.687 688C895.127 686.96 894.847 685.76 894.847 684.4C894.847 683.056 895.135 681.872 895.711 680.848C896.303 679.808 897.103 679.016 898.111 678.472C899.119 677.912 900.247 677.632 901.495 677.632C902.743 677.632 903.871 677.912 904.879 678.472C905.887 679.016 906.679 679.8 907.255 680.824C907.847 681.848 908.143 683.04 908.143 684.4C908.143 685.76 907.839 686.96 907.231 688C906.639 689.024 905.831 689.816 904.807 690.376C903.783 690.936 902.647 691.216 901.399 691.216ZM901.399 689.296C902.183 689.296 902.919 689.112 903.607 688.744C904.295 688.376 904.847 687.824 905.263 687.088C905.695 686.352 905.911 685.456 905.911 684.4C905.911 683.344 905.703 682.448 905.287 681.712C904.871 680.976 904.327 680.432 903.655 680.08C902.983 679.712 902.255 679.528 901.471 679.528C900.671 679.528 899.935 679.712 899.263 680.08C898.607 680.432 898.079 680.976 897.679 681.712C897.279 682.448 897.079 683.344 897.079 684.4C897.079 685.472 897.271 686.376 897.655 687.112C898.055 687.848 898.583 688.4 899.239 688.768C899.895 689.12 900.615 689.296 901.399 689.296ZM917.158 677.608C918.758 677.608 920.054 678.096 921.046 679.072C922.038 680.032 922.534 681.424 922.534 683.248V691H920.374V683.56C920.374 682.248 920.046 681.248 919.39 680.56C918.734 679.856 917.838 679.504 916.702 679.504C915.55 679.504 914.63 679.864 913.942 680.584C913.27 681.304 912.934 682.352 912.934 683.728V691H910.75V677.848H912.934V679.72C913.366 679.048 913.95 678.528 914.686 678.16C915.438 677.792 916.262 677.608 917.158 677.608ZM930.494 691.216C929.486 691.216 928.582 691.048 927.782 690.712C926.982 690.36 926.35 689.88 925.886 689.272C925.422 688.648 925.166 687.936 925.118 687.136H927.374C927.438 687.792 927.742 688.328 928.286 688.744C928.846 689.16 929.574 689.368 930.47 689.368C931.302 689.368 931.958 689.184 932.438 688.816C932.918 688.448 933.158 687.984 933.158 687.424C933.158 686.848 932.902 686.424 932.39 686.152C931.878 685.864 931.086 685.584 930.014 685.312C929.038 685.056 928.238 684.8 927.614 684.544C927.006 684.272 926.478 683.88 926.03 683.368C925.598 682.84 925.382 682.152 925.382 681.304C925.382 680.632 925.582 680.016 925.982 679.456C926.382 678.896 926.95 678.456 927.686 678.136C928.422 677.8 929.262 677.632 930.206 677.632C931.662 677.632 932.838 678 933.734 678.736C934.63 679.472 935.11 680.48 935.174 681.76H932.99C932.942 681.072 932.662 680.52 932.15 680.104C931.654 679.688 930.982 679.48 930.134 679.48C929.35 679.48 928.726 679.648 928.262 679.984C927.798 680.32 927.566 680.76 927.566 681.304C927.566 681.736 927.702 682.096 927.974 682.384C928.262 682.656 928.614 682.88 929.03 683.056C929.462 683.216 930.054 683.4 930.806 683.608C931.75 683.864 932.518 684.12 933.11 684.376C933.702 684.616 934.206 684.984 934.622 685.48C935.054 685.976 935.278 686.624 935.294 687.424C935.294 688.144 935.094 688.792 934.694 689.368C934.294 689.944 933.726 690.4 932.99 690.736C932.27 691.056 931.438 691.216 930.494 691.216ZM938.809 691.144C938.393 691.144 938.041 691 937.753 690.712C937.465 690.424 937.321 690.072 937.321 689.656C937.321 689.24 937.465 688.888 937.753 688.6C938.041 688.312 938.393 688.168 938.809 688.168C939.209 688.168 939.545 688.312 939.817 688.6C940.105 688.888 940.249 689.24 940.249 689.656C940.249 690.072 940.105 690.424 939.817 690.712C939.545 691 939.209 691.144 938.809 691.144Z" fill="#FAFAFA"/>
<circle cx="442.041" cy="290.082" r="42.9796" fill="#FEC7C3"/>
<path d="M440.704 336.677C442.035 334.885 444.724 334.901 446.034 336.709L515.068 431.958C516.652 434.143 515.09 437.204 512.391 437.204H372.576C369.858 437.204 368.301 434.107 369.922 431.926L440.704 336.677Z" fill="#FEC7C3"/>
<circle cx="837.564" cy="286.775" r="42.9796" fill="#78ABCD"/>
<path d="M836.227 433.588C837.558 435.38 840.247 435.364 841.557 433.557L910.591 338.308C912.175 336.122 910.613 333.061 907.914 333.061H768.099C765.381 333.061 763.824 336.158 765.445 338.339L836.227 433.588Z" fill="#78ABCD"/>
</svg>
